<svg width="412" height="917" viewBox="0 0 412 917" fill="none" xmlns="http://www.w3.org/2000/svg">
<g clip-path="url(#clip0_461_20348)">
<rect width="412" height="917" fill="white"/>
<g opacity="0.2" filter="url(#filter0_f_461_20348)">
<circle cx="206" cy="786" r="144" fill="url(#paint0_linear_461_20348)"/>
</g>
<path d="M206 421.399C204.756 421.399 203.49 421.177 202.203 420.733C200.916 420.288 199.782 419.577 198.8 418.599L189.6 410.199C180.178 401.577 171.666 393.023 164.064 384.535C156.463 376.048 152.663 366.692 152.667 356.466C152.667 348.111 155.467 341.133 161.067 335.533C166.667 329.933 173.645 327.133 182 327.133C186.711 327.133 191.156 328.132 195.334 330.13C199.511 332.128 203.067 334.863 206 338.333C208.934 334.866 212.489 332.134 216.667 330.135C220.845 328.137 225.289 327.136 230 327.133C238.356 327.133 245.334 329.933 250.934 335.533C256.534 341.133 259.334 348.111 259.334 356.466C259.334 366.688 255.556 376.066 248 384.599C240.445 393.133 231.867 401.711 222.267 410.333L213.2 418.599C212.223 419.577 211.09 420.288 209.803 420.733C208.516 421.177 207.248 421.399 206 421.399ZM200.934 348.999C198.356 345.355 195.6 342.576 192.667 340.663C189.734 338.751 186.178 337.796 182 337.799C176.667 337.799 172.223 339.577 168.667 343.133C165.111 346.688 163.334 351.133 163.334 356.466C163.334 361.088 164.978 366 168.267 371.202C171.556 376.404 175.49 381.447 180.07 386.333C184.649 391.218 189.36 395.796 194.203 400.066C199.046 404.336 202.978 407.847 206 410.599C209.023 407.844 212.957 404.333 217.803 400.066C222.649 395.799 227.36 391.222 231.936 386.333C236.512 381.444 240.445 376.4 243.734 371.202C247.023 366.004 248.667 361.092 248.667 356.466C248.667 351.133 246.889 346.688 243.334 343.133C239.778 339.577 235.334 337.799 230 337.799C225.823 337.799 222.267 338.756 219.334 340.669C216.4 342.582 213.645 345.359 211.067 348.999C210.445 349.888 209.689 350.555 208.8 350.999C207.911 351.444 206.978 351.666 206 351.666C205.023 351.666 204.089 351.444 203.2 350.999C202.311 350.555 201.556 349.888 200.934 348.999Z" fill="#EAEAEA"/>
<path d="M99.6955 468.44C99.2155 468.44 98.8315 468.296 98.5435 468.008C98.2555 467.72 98.1115 467.328 98.1115 466.832C98.1115 465.792 98.6395 465.272 99.6955 465.272C100.175 465.272 100.551 465.416 100.823 465.704C101.111 465.976 101.255 466.352 101.255 466.832C101.255 467.904 100.735 468.44 99.6955 468.44ZM103.391 468.44C102.911 468.44 102.527 468.296 102.239 468.008C101.951 467.72 101.807 467.328 101.807 466.832C101.807 465.792 102.335 465.272 103.391 465.272C103.871 465.272 104.247 465.416 104.519 465.704C104.807 465.976 104.951 466.352 104.951 466.832C104.951 467.904 104.431 468.44 103.391 468.44ZM107.447 479.096H109.607V482H107.159C105.671 482 104.519 481.504 103.703 480.512C103.015 481.04 102.175 481.304 101.183 481.304C99.7115 481.304 98.5355 480.752 97.6555 479.648C96.9355 478.736 96.5755 477.64 96.5755 476.36C96.5755 474.776 97.0875 473.488 98.1115 472.496C98.9755 471.664 99.9755 471.248 101.111 471.248C101.703 471.248 102.247 471.36 102.743 471.584V470.96L105.743 469.376V477.368C105.743 477.992 105.871 478.44 106.127 478.712C106.399 478.968 106.839 479.096 107.447 479.096ZM102.743 474.608C102.327 474.256 101.855 474.08 101.327 474.08C100.799 474.08 100.367 474.296 100.031 474.728C99.7115 475.16 99.5515 475.728 99.5515 476.432C99.5515 477.136 99.7115 477.696 100.031 478.112C100.351 478.528 100.791 478.736 101.351 478.736C101.959 478.736 102.431 478.528 102.767 478.112C102.751 477.984 102.743 477.784 102.743 477.512V474.608ZM116.135 468.92C115.655 468.92 115.271 468.776 114.983 468.488C114.695 468.2 114.551 467.808 114.551 467.312C114.551 466.848 114.695 466.472 114.983 466.184C115.271 465.896 115.655 465.752 116.135 465.752C116.615 465.752 116.991 465.896 117.263 466.184C117.551 466.456 117.695 466.832 117.695 467.312C117.695 468.384 117.175 468.92 116.135 468.92ZM121.463 479.096V482H108.167V479.096H111.719C111.271 478.216 111.047 477.24 111.047 476.168C111.047 474.472 111.639 473.128 112.823 472.136C113.783 471.336 114.895 470.936 116.159 470.936C117.871 470.936 119.255 471.672 120.311 473.144V475.808C119.143 474.432 117.871 473.744 116.495 473.744C115.759 473.744 115.167 473.976 114.719 474.44C114.287 474.888 114.071 475.496 114.071 476.264C114.071 477.144 114.343 477.84 114.887 478.352C115.447 478.848 116.207 479.096 117.167 479.096H121.463ZM129.148 480.512C129.148 482.368 128.636 483.872 127.612 485.024C126.668 486.096 125.42 486.632 123.868 486.632C122.86 486.632 121.876 486.376 120.916 485.864V483.224C121.748 483.688 122.564 483.92 123.364 483.92C124.244 483.92 124.924 483.632 125.404 483.056C125.9 482.496 126.148 481.712 126.148 480.704V472.952L129.148 471.344V480.512ZM137.892 482C136.436 482 135.308 481.536 134.508 480.608C133.82 479.808 133.476 478.776 133.476 477.512V468.104L136.5 466.52V477.368C136.5 477.992 136.628 478.44 136.884 478.712C137.14 478.968 137.572 479.096 138.18 479.096H140.34V482H137.892ZM146.813 469.208C146.333 469.208 145.949 469.064 145.661 468.776C145.373 468.488 145.229 468.096 145.229 467.6C145.229 467.136 145.373 466.76 145.661 466.472C145.949 466.184 146.333 466.04 146.813 466.04C147.293 466.04 147.669 466.184 147.941 466.472C148.229 466.744 148.373 467.12 148.373 467.6C148.373 468.672 147.853 469.208 146.813 469.208ZM138.893 482V479.096H142.757C142.261 478.408 142.013 477.528 142.013 476.456C142.013 474.696 142.493 473.304 143.453 472.28C144.317 471.384 145.445 470.936 146.837 470.936C148.261 470.936 149.365 471.392 150.149 472.304C150.853 473.088 151.205 474.112 151.205 475.376V477.536C151.189 478.912 150.781 480 149.981 480.8C149.197 481.6 148.133 482 146.789 482H138.893ZM148.181 475.328C148.181 474.272 147.733 473.744 146.837 473.744C145.605 473.744 144.989 474.616 144.989 476.36C144.989 478.184 145.581 479.096 146.765 479.096C147.709 479.096 148.181 478.584 148.181 477.56V475.328ZM162.742 468.44C162.262 468.44 161.878 468.296 161.59 468.008C161.302 467.72 161.158 467.328 161.158 466.832C161.158 465.792 161.686 465.272 162.742 465.272C163.222 465.272 163.598 465.416 163.87 465.704C164.158 465.976 164.302 466.352 164.302 466.832C164.302 467.904 163.782 468.44 162.742 468.44ZM166.438 468.44C165.958 468.44 165.574 468.296 165.286 468.008C164.998 467.72 164.854 467.328 164.854 466.832C164.854 465.792 165.382 465.272 166.438 465.272C166.918 465.272 167.294 465.416 167.566 465.704C167.854 465.976 167.998 466.352 167.998 466.832C167.998 467.904 167.478 468.44 166.438 468.44ZM170.494 479.096H172.654V482H170.206C168.718 482 167.566 481.504 166.75 480.512C166.062 481.04 165.222 481.304 164.23 481.304C162.758 481.304 161.582 480.752 160.702 479.648C159.982 478.736 159.622 477.64 159.622 476.36C159.622 474.776 160.134 473.488 161.158 472.496C162.022 471.664 163.022 471.248 164.158 471.248C164.75 471.248 165.294 471.36 165.79 471.584V470.96L168.79 469.376V477.368C168.79 477.992 168.918 478.44 169.174 478.712C169.446 478.968 169.886 479.096 170.494 479.096ZM165.79 474.608C165.374 474.256 164.902 474.08 164.374 474.08C163.846 474.08 163.414 474.296 163.078 474.728C162.758 475.16 162.598 475.728 162.598 476.432C162.598 477.136 162.758 477.696 163.078 478.112C163.398 478.528 163.838 478.736 164.398 478.736C165.006 478.736 165.478 478.528 165.814 478.112C165.798 477.984 165.79 477.784 165.79 477.512V474.608ZM179.47 479.096H181.63V482H179.182C177.934 482 176.918 481.648 176.134 480.944C175.254 481.648 174.174 482 172.894 482H171.214V479.096H172.726C173.462 479.096 173.982 478.936 174.286 478.616C174.606 478.296 174.766 477.752 174.766 476.984V468.128L177.766 466.52V471.368L177.79 471.344V477.368C177.79 477.992 177.918 478.44 178.174 478.712C178.43 478.968 178.862 479.096 179.47 479.096ZM197.71 468.92C197.23 468.92 196.846 468.776 196.558 468.488C196.27 468.2 196.126 467.808 196.126 467.312C196.126 466.848 196.27 466.472 196.558 466.184C196.846 465.896 197.23 465.752 197.71 465.752C198.19 465.752 198.566 465.896 198.838 466.184C199.126 466.456 199.27 466.832 199.27 467.312C199.27 468.384 198.75 468.92 197.71 468.92ZM204.91 479.096H207.07V482H204.622C203.454 482 202.486 481.688 201.718 481.064C200.95 481.688 199.982 482 198.814 482H188.446C187.278 482 186.31 481.688 185.542 481.064C184.774 481.688 183.806 482 182.638 482H180.19V479.096H182.35C182.958 479.096 183.39 478.968 183.646 478.712C183.902 478.44 184.03 477.992 184.03 477.368V474.2L187.054 472.616V477.368C187.054 478.392 187.462 478.96 188.278 479.072C189.046 476.736 190.166 474.84 191.638 473.384C193.27 471.752 195.142 470.936 197.254 470.936C199.142 470.936 200.654 471.592 201.79 472.904C202.75 474.008 203.23 475.376 203.23 477.008V477.512C203.23 478.568 203.79 479.096 204.91 479.096ZM198.694 479.096C199.27 479.096 199.662 478.976 199.87 478.736C200.094 478.48 200.206 478.016 200.206 477.344V477.008C200.206 476.048 199.934 475.264 199.39 474.656C198.846 474.048 198.142 473.744 197.278 473.744C196.03 473.744 194.862 474.224 193.774 475.184C192.702 476.144 191.854 477.448 191.23 479.096H198.694ZM213.228 469.232C212.748 469.232 212.364 469.088 212.076 468.8C211.788 468.512 211.644 468.12 211.644 467.624C211.644 467.16 211.788 466.784 212.076 466.496C212.364 466.208 212.748 466.064 213.228 466.064C213.708 466.064 214.084 466.208 214.356 466.496C214.644 466.768 214.788 467.144 214.788 467.624C214.788 468.696 214.268 469.232 213.228 469.232ZM217.068 479.096H220.86V482H215.172C214.356 482 213.716 481.944 213.252 481.832C212.756 481.944 212.116 482 211.332 482H205.62V479.096H209.412C208.804 478.12 208.5 477.128 208.5 476.12C208.5 474.52 208.972 473.232 209.916 472.256C210.764 471.376 211.876 470.936 213.252 470.936C214.82 470.936 216.036 471.504 216.9 472.64C217.62 473.568 217.98 474.728 217.98 476.12C217.98 477.128 217.676 478.12 217.068 479.096ZM213.228 478.832C213.772 478.576 214.212 478.184 214.548 477.656C214.9 477.112 215.076 476.544 215.076 475.952C215.076 475.264 214.908 474.728 214.572 474.344C214.252 473.944 213.812 473.744 213.252 473.744C212.036 473.744 211.428 474.472 211.428 475.928C211.428 476.552 211.596 477.136 211.932 477.68C212.268 478.208 212.7 478.592 213.228 478.832ZM234.689 479.096H236.825V482H234.377C233.225 482 232.281 481.704 231.545 481.112C230.681 482.024 229.545 482.48 228.137 482.48C226.697 482.48 225.561 482.024 224.729 481.112C223.961 481.704 223.009 482 221.873 482H219.425V479.096H221.585C222.193 479.096 222.625 478.968 222.881 478.712C223.137 478.44 223.265 477.992 223.265 477.368V476.672C223.265 474.8 223.753 473.344 224.729 472.304C225.577 471.392 226.713 470.936 228.137 470.936C229.753 470.936 231.001 471.528 231.881 472.712C232.617 473.72 232.985 475.04 232.985 476.672V477.368C232.985 477.992 233.113 478.44 233.369 478.712C233.641 478.968 234.081 479.096 234.689 479.096ZM228.137 479.576C229.353 479.576 229.961 478.584 229.961 476.6C229.961 474.696 229.353 473.744 228.137 473.744C226.905 473.744 226.289 474.696 226.289 476.6C226.289 478.584 226.905 479.576 228.137 479.576ZM235.385 482V479.096H236.897C237.633 479.096 238.153 478.936 238.457 478.616C238.777 478.296 238.937 477.752 238.937 476.984V468.128L241.937 466.52V477.008C241.937 478.56 241.465 479.8 240.521 480.728C239.657 481.576 238.505 482 237.065 482H235.385ZM246.258 482V468.128L249.282 466.52V482H246.258ZM261.039 468.44C260.559 468.44 260.175 468.296 259.887 468.008C259.599 467.72 259.455 467.328 259.455 466.832C259.455 465.792 259.983 465.272 261.039 465.272C261.519 465.272 261.895 465.416 262.167 465.704C262.455 465.976 262.599 466.352 262.599 466.832C262.599 467.904 262.079 468.44 261.039 468.44ZM264.735 468.44C264.255 468.44 263.871 468.296 263.583 468.008C263.295 467.72 263.151 467.328 263.151 466.832C263.151 465.792 263.679 465.272 264.735 465.272C265.215 465.272 265.591 465.416 265.863 465.704C266.151 465.976 266.295 466.352 266.295 466.832C266.295 467.904 265.775 468.44 264.735 468.44ZM268.791 479.096H270.951V482H268.503C267.015 482 265.863 481.504 265.047 480.512C264.359 481.04 263.519 481.304 262.527 481.304C261.055 481.304 259.879 480.752 258.999 479.648C258.279 478.736 257.919 477.64 257.919 476.36C257.919 474.776 258.431 473.488 259.455 472.496C260.319 471.664 261.319 471.248 262.455 471.248C263.047 471.248 263.591 471.36 264.087 471.584V470.96L267.087 469.376V477.368C267.087 477.992 267.215 478.44 267.471 478.712C267.743 478.968 268.183 479.096 268.791 479.096ZM264.087 474.608C263.671 474.256 263.199 474.08 262.671 474.08C262.143 474.08 261.711 474.296 261.375 474.728C261.055 475.16 260.895 475.728 260.895 476.432C260.895 477.136 261.055 477.696 261.375 478.112C261.695 478.528 262.135 478.736 262.695 478.736C263.303 478.736 263.775 478.528 264.111 478.112C264.095 477.984 264.087 477.784 264.087 477.512V474.608ZM284.774 479.096H286.91V482H284.462C283.31 482 282.366 481.704 281.63 481.112C280.766 482.024 279.63 482.48 278.222 482.48C276.782 482.48 275.646 482.024 274.814 481.112C274.046 481.704 273.094 482 271.958 482H269.51V479.096H271.67C272.278 479.096 272.71 478.968 272.966 478.712C273.222 478.44 273.35 477.992 273.35 477.368V476.672C273.35 474.8 273.838 473.344 274.814 472.304C275.662 471.392 276.798 470.936 278.222 470.936C279.838 470.936 281.086 471.528 281.966 472.712C282.702 473.72 283.07 475.04 283.07 476.672V477.368C283.07 477.992 283.198 478.44 283.454 478.712C283.726 478.968 284.166 479.096 284.774 479.096ZM278.222 479.576C279.438 479.576 280.046 478.584 280.046 476.6C280.046 474.696 279.438 473.744 278.222 473.744C276.99 473.744 276.374 474.696 276.374 476.6C276.374 478.584 276.99 479.576 278.222 479.576ZM287.559 468.464L288.303 467.072H289.023C288.847 466.752 288.759 466.424 288.759 466.088C288.759 465.576 288.943 465.136 289.311 464.768C289.695 464.4 290.151 464.216 290.679 464.216C291.159 464.216 291.607 464.384 292.023 464.72V466.112C291.639 465.776 291.255 465.608 290.871 465.608C290.343 465.608 290.079 465.848 290.079 466.328C290.079 466.568 290.183 466.816 290.391 467.072H292.767L292.023 468.464H287.559ZM285.471 482V479.096H287.631C288.239 479.096 288.671 478.968 288.927 478.712C289.183 478.44 289.311 477.992 289.311 477.368V472.928L292.335 471.344V477.512C292.335 478.968 291.887 480.104 290.991 480.92C290.207 481.64 289.183 482 287.919 482H285.471ZM300.9 482C299.444 482 298.316 481.536 297.516 480.608C296.828 479.808 296.484 478.776 296.484 477.512V468.104L299.508 466.52V477.368C299.508 477.992 299.636 478.44 299.892 478.712C300.148 478.968 300.58 479.096 301.188 479.096H303.348V482H300.9ZM308.021 469.232C307.541 469.232 307.157 469.088 306.869 468.8C306.581 468.512 306.437 468.12 306.437 467.624C306.437 466.584 306.965 466.064 308.021 466.064C308.501 466.064 308.877 466.208 309.149 466.496C309.437 466.768 309.581 467.144 309.581 467.624C309.581 468.696 309.061 469.232 308.021 469.232ZM311.717 469.232C311.237 469.232 310.853 469.088 310.565 468.8C310.277 468.512 310.133 468.12 310.133 467.624C310.133 466.584 310.661 466.064 311.717 466.064C312.197 466.064 312.573 466.208 312.845 466.496C313.133 466.768 313.277 467.144 313.277 467.624C313.277 468.696 312.757 469.232 311.717 469.232ZM301.901 482V479.096H305.741C305.261 478.392 305.021 477.512 305.021 476.456C305.021 474.696 305.501 473.304 306.461 472.28C307.325 471.384 308.453 470.936 309.845 470.936C311.269 470.936 312.373 471.392 313.157 472.304C313.861 473.088 314.213 474.112 314.213 475.376V477.536C314.197 478.912 313.789 480 312.989 480.8C312.205 481.6 311.141 482 309.797 482H301.901ZM311.189 475.328C311.189 474.272 310.741 473.744 309.845 473.744C308.613 473.744 307.997 474.616 307.997 476.36C307.997 478.184 308.589 479.096 309.773 479.096C310.717 479.096 311.189 478.584 311.189 477.56V475.328Z" fill="#A4A4A4"/>
<path d="M82.676 513.704H83.412V515H82.516C81.62 515 80.9213 514.723 80.42 514.168C79.9187 514.723 79.22 515 78.324 515H72.612C71.748 515 71.0707 514.712 70.58 514.136C70.1533 513.635 69.94 512.979 69.94 512.168V510.232L71.316 509.496V512.04C71.316 513.149 71.8333 513.704 72.868 513.704H78.18C79.2147 513.704 79.732 513.149 79.732 512.04V508.792L81.108 508.056V512.104C81.108 513.171 81.6307 513.704 82.676 513.704ZM74.948 516.6C75.46 516.6 75.716 516.861 75.716 517.384C75.716 517.917 75.46 518.184 74.948 518.184C74.4253 518.184 74.164 517.917 74.164 517.384C74.164 516.861 74.4253 516.6 74.948 516.6ZM87.9135 513.704H88.9695V515H87.7535C86.8362 515 86.1268 514.707 85.6255 514.12C85.0922 514.707 84.3562 515 83.4175 515H82.4575V513.704H83.3055C84.4148 513.704 84.9695 513.123 84.9695 511.96V505.416L86.3615 504.68V511.976C86.3615 512.595 86.4788 513.037 86.7135 513.304C86.9588 513.571 87.3588 513.704 87.9135 513.704ZM91.9724 506.232C91.4497 506.232 91.1884 505.965 91.1884 505.432C91.1884 504.909 91.4497 504.648 91.9724 504.648C92.4844 504.648 92.7404 504.909 92.7404 505.432C92.7404 505.965 92.4844 506.232 91.9724 506.232ZM94.0044 506.232C93.4817 506.232 93.2204 505.965 93.2204 505.432C93.2204 504.909 93.4817 504.648 94.0044 504.648C94.5164 504.648 94.7724 504.909 94.7724 505.432C94.7724 505.965 94.5164 506.232 94.0044 506.232ZM94.9964 513.704H97.9724V515H94.0684C93.6524 515 93.2897 514.963 92.9804 514.888C92.6817 514.963 92.319 515 91.8924 515H88.0044V513.704H90.9804C90.319 512.947 89.9884 512.109 89.9884 511.192C89.9884 510.147 90.2817 509.315 90.8684 508.696C91.4017 508.131 92.1057 507.848 92.9804 507.848C93.983 507.848 94.7564 508.211 95.3004 508.936C95.759 509.533 95.9884 510.285 95.9884 511.192C95.9884 512.109 95.6577 512.947 94.9964 513.704ZM92.9964 513.56C93.487 513.389 93.887 513.08 94.1964 512.632C94.5057 512.173 94.6604 511.672 94.6604 511.128C94.6604 510.509 94.5057 510.024 94.1964 509.672C93.8977 509.309 93.4924 509.128 92.9804 509.128C92.4684 509.128 92.0577 509.309 91.7484 509.672C91.4497 510.035 91.3004 510.52 91.3004 511.128C91.3004 511.661 91.4604 512.157 91.7804 512.616C92.1004 513.075 92.5057 513.389 92.9964 513.56ZM97.02 515V513.704H97.868C98.9773 513.704 99.532 513.123 99.532 511.96V505.416L100.924 504.68V511.976C100.924 512.925 100.641 513.677 100.076 514.232C99.5427 514.744 98.844 515 97.98 515H97.02ZM103.799 515V505.416L105.175 504.68V515H103.799ZM124.824 513.704H125.88V515H124.664C123.81 515 123.144 514.749 122.664 514.248C122.226 514.749 121.608 515 120.808 515H110.664L111.352 513.704H113.496L113.544 513.528V505.416L114.92 504.68V510.536C116.136 508.744 117.645 507.848 119.448 507.848C120.653 507.848 121.618 508.269 122.344 509.112C122.962 509.827 123.272 510.707 123.272 511.752V512.136C123.272 513.181 123.789 513.704 124.824 513.704ZM121.88 512.2V511.752C121.88 510.92 121.624 510.259 121.112 509.768C120.674 509.341 120.125 509.128 119.464 509.128C118.365 509.128 117.373 509.624 116.488 510.616C115.826 511.363 115.304 512.296 114.92 513.416V513.704H120.696C121.154 513.704 121.464 513.597 121.624 513.384C121.794 513.171 121.88 512.776 121.88 512.2ZM130.958 506.12C130.436 506.12 130.174 505.853 130.174 505.32C130.174 504.797 130.436 504.536 130.958 504.536C131.47 504.536 131.726 504.797 131.726 505.32C131.726 505.853 131.47 506.12 130.958 506.12ZM132.83 513.704H137.054V515H132.702C132.126 515 131.556 514.888 130.99 514.664C130.425 514.888 129.849 515 129.262 515H124.926V513.704H129.15H129.374C128.606 513.075 127.817 512.152 127.006 510.936V510.232C127.518 509.496 128.126 508.915 128.83 508.488C129.545 508.061 130.26 507.848 130.974 507.848C131.689 507.848 132.404 508.067 133.118 508.504C133.833 508.931 134.452 509.517 134.974 510.264V510.936C134.164 512.152 133.369 513.075 132.59 513.704H132.83ZM128.286 510.6C129.268 511.944 130.169 512.829 130.99 513.256C131.812 512.819 132.713 511.928 133.694 510.584C132.894 509.613 131.988 509.123 130.974 509.112C129.961 509.112 129.065 509.608 128.286 510.6ZM147.362 506.12C146.839 506.12 146.578 505.853 146.578 505.32C146.578 504.797 146.839 504.536 147.362 504.536C147.874 504.536 148.13 504.797 148.13 505.32C148.13 505.853 147.874 506.12 147.362 506.12ZM141.138 513.656C141.565 512.045 142.269 510.701 143.25 509.624C144.349 508.44 145.629 507.848 147.09 507.848C148.306 507.848 149.277 508.269 150.002 509.112C150.61 509.827 150.914 510.707 150.914 511.752V512.168C150.914 513.096 150.631 513.816 150.066 514.328C149.575 514.776 148.93 515 148.13 515H141.506C140.621 515 139.922 514.717 139.41 514.152C138.898 514.717 138.199 515 137.314 515H136.098V513.704H137.154C138.199 513.704 138.722 513.171 138.722 512.104V509.864L140.098 509.128V512.104C140.098 513 140.445 513.517 141.138 513.656ZM149.538 512.04V511.752C149.538 510.92 149.282 510.259 148.77 509.768C148.322 509.341 147.767 509.128 147.106 509.128C145.975 509.128 144.957 509.651 144.05 510.696C143.357 511.496 142.823 512.499 142.45 513.704H148.05C149.042 513.704 149.538 513.149 149.538 512.04ZM153.471 515V505.416L154.847 504.68V515H153.471ZM161.657 514.488C161.252 514.648 160.756 514.728 160.169 514.728C159.22 514.728 158.473 514.371 157.929 513.656C157.471 513.048 157.241 512.285 157.241 511.368C157.241 510.237 157.545 509.352 158.153 508.712C158.697 508.136 159.412 507.848 160.297 507.848C161.204 507.848 161.903 508.131 162.393 508.696C162.831 509.197 163.049 509.853 163.049 510.664V514.152C163.049 515.357 162.735 516.312 162.105 517.016C161.508 517.677 160.713 518.008 159.721 518.008C159.06 518.008 158.436 517.853 157.849 517.544V516.328C158.415 516.627 158.975 516.776 159.529 516.776C160.159 516.776 160.66 516.573 161.033 516.168C161.407 515.773 161.615 515.213 161.657 514.488ZM161.657 510.728C161.657 509.661 161.204 509.128 160.297 509.128C159.764 509.128 159.343 509.325 159.033 509.72C158.735 510.115 158.585 510.653 158.585 511.336C158.585 512.008 158.729 512.547 159.017 512.952C159.316 513.347 159.716 513.544 160.217 513.544C160.921 513.544 161.401 513.347 161.657 512.952V510.728ZM170.895 505.96C170.372 505.96 170.111 505.693 170.111 505.16C170.111 504.637 170.372 504.376 170.895 504.376C171.407 504.376 171.663 504.637 171.663 505.16C171.663 505.693 171.407 505.96 170.895 505.96ZM172.927 505.96C172.404 505.96 172.143 505.693 172.143 505.16C172.143 504.637 172.404 504.376 172.927 504.376C173.439 504.376 173.695 504.637 173.695 505.16C173.695 505.693 173.439 505.96 172.927 505.96ZM175.903 513.704H176.959V515H175.743C174.644 515 173.855 514.595 173.375 513.784C172.863 514.275 172.228 514.52 171.471 514.52C170.532 514.52 169.785 514.168 169.231 513.464C168.772 512.867 168.543 512.136 168.543 511.272C168.543 510.237 168.857 509.405 169.487 508.776C170.02 508.232 170.671 507.96 171.439 507.96C172.025 507.96 172.532 508.109 172.959 508.408V507.72L174.351 506.984V512.104C174.351 513.171 174.868 513.704 175.903 513.704ZM172.959 509.896C172.564 509.459 172.079 509.24 171.503 509.24C171.033 509.24 170.649 509.432 170.351 509.816C170.052 510.189 169.903 510.68 169.903 511.288C169.903 511.907 170.052 512.403 170.351 512.776C170.649 513.149 171.039 513.336 171.519 513.336C172.116 513.336 172.607 513.091 172.991 512.6C172.969 512.408 172.959 512.259 172.959 512.152V509.896ZM181.46 513.704H182.516V515H181.3C180.383 515 179.674 514.707 179.172 514.12C178.639 514.707 177.903 515 176.964 515H176.004V513.704H176.852C177.962 513.704 178.516 513.123 178.516 511.96V505.416L179.908 504.68V511.976C179.908 512.595 180.026 513.037 180.26 513.304C180.506 513.571 180.906 513.704 181.46 513.704ZM192.815 506.12C192.293 506.12 192.031 505.853 192.031 505.32C192.031 504.797 192.293 504.536 192.815 504.536C193.327 504.536 193.583 504.797 193.583 505.32C193.583 505.853 193.327 506.12 192.815 506.12ZM197.935 513.704H198.991V515H197.775C196.879 515 196.181 514.723 195.679 514.168C195.178 514.723 194.479 515 193.583 515H186.959C186.074 515 185.375 514.717 184.863 514.152C184.351 514.717 183.653 515 182.767 515H181.551V513.704H182.607C183.653 513.704 184.175 513.171 184.175 512.104V509.864L185.551 509.128V512.104C185.551 513 185.898 513.517 186.591 513.656C187.018 512.045 187.722 510.701 188.703 509.624C189.802 508.44 191.082 507.848 192.543 507.848C193.759 507.848 194.73 508.269 195.455 509.112C196.063 509.827 196.367 510.707 196.367 511.752V512.136C196.367 513.181 196.89 513.704 197.935 513.704ZM193.503 513.704C194.495 513.704 194.991 513.149 194.991 512.04V511.752C194.991 510.92 194.735 510.259 194.223 509.768C193.775 509.341 193.221 509.128 192.559 509.128C191.429 509.128 190.41 509.651 189.503 510.696C188.81 511.496 188.277 512.499 187.903 513.704H193.503ZM203.044 506.216C202.521 506.216 202.26 505.949 202.26 505.416C202.26 504.893 202.521 504.632 203.044 504.632C203.556 504.632 203.812 504.893 203.812 505.416C203.812 505.949 203.556 506.216 203.044 506.216ZM205.028 513.704H208.004V515H204.1C203.684 515 203.321 514.963 203.012 514.888C202.713 514.963 202.35 515 201.924 515H198.036V513.704H201.012C200.35 512.947 200.02 512.109 200.02 511.192C200.02 510.147 200.313 509.315 200.9 508.696C201.433 508.131 202.137 507.848 203.012 507.848C204.014 507.848 204.788 508.211 205.332 508.936C205.79 509.533 206.02 510.285 206.02 511.192C206.02 512.109 205.689 512.947 205.028 513.704ZM203.028 513.56C203.518 513.389 203.918 513.08 204.228 512.632C204.537 512.173 204.692 511.672 204.692 511.128C204.692 510.509 204.537 510.024 204.228 509.672C203.929 509.309 203.524 509.128 203.012 509.128C202.5 509.128 202.089 509.309 201.78 509.672C201.481 510.035 201.332 510.52 201.332 511.128C201.332 511.661 201.492 512.157 201.812 512.616C202.132 513.075 202.537 513.389 203.028 513.56ZM217.355 513.704H218.427V515H217.211C216.326 515 215.627 514.717 215.115 514.152C214.571 514.931 213.777 515.32 212.731 515.32C211.686 515.32 210.897 514.936 210.363 514.168C209.862 514.723 209.163 515 208.267 515H207.051V513.704H208.107C209.153 513.704 209.675 513.171 209.675 512.104V511.576C209.675 510.339 209.979 509.389 210.587 508.728C211.121 508.141 211.835 507.848 212.731 507.848C213.755 507.848 214.545 508.227 215.099 508.984C215.569 509.635 215.803 510.499 215.803 511.576V512.104C215.803 513.171 216.321 513.704 217.355 513.704ZM212.731 514.024C213.254 514.024 213.665 513.805 213.963 513.368C214.273 512.931 214.427 512.328 214.427 511.56C214.427 509.939 213.862 509.128 212.731 509.128C211.611 509.128 211.051 509.939 211.051 511.56C211.051 513.203 211.611 514.024 212.731 514.024ZM217.473 515V513.704H218.321C219.43 513.704 219.985 513.123 219.985 511.96V505.416L221.377 504.68V511.976C221.377 512.925 221.094 513.677 220.529 514.232C219.996 514.744 219.297 515 218.433 515H217.473ZM224.253 515V505.416L225.629 504.68V515H224.253ZM244.957 513.704H246.013V515H244.797C243.901 515 243.208 514.723 242.717 514.168C242.194 514.723 241.496 515 240.621 515H234.909C234.045 515 233.368 514.712 232.877 514.136C232.45 513.635 232.237 512.979 232.237 512.168V510.232L233.613 509.496V512.04C233.613 513.149 234.13 513.704 235.165 513.704H240.477C241.501 513.704 242.013 513.149 242.013 512.04V505.416L243.405 504.68V512.104C243.405 513.171 243.922 513.704 244.957 513.704ZM237.901 507.208C238.818 507.251 239.277 507.704 239.277 508.568C239.277 508.941 239.165 509.24 238.941 509.464C238.728 509.688 238.44 509.8 238.077 509.8H235.965L236.333 509.112H238.013C238.397 509.112 238.589 508.92 238.589 508.536C238.589 508.067 238.29 507.832 237.693 507.832C237.384 507.832 237.101 507.907 236.845 508.056V507.416L238.189 505.928H239.037L237.901 507.208ZM246.283 506.12C245.761 506.12 245.499 505.853 245.499 505.32C245.499 504.797 245.761 504.536 246.283 504.536C246.795 504.536 247.051 504.797 247.051 505.32C247.051 505.853 246.795 506.12 246.283 506.12ZM248.315 506.12C247.793 506.12 247.531 505.853 247.531 505.32C247.531 504.797 247.793 504.536 248.315 504.536C248.827 504.536 249.083 504.797 249.083 505.32C249.083 505.853 248.827 506.12 248.315 506.12ZM245.051 515V513.704H246.107C247.153 513.704 247.675 513.171 247.675 512.104V508.792L249.051 508.056V512.152C249.051 513.059 248.779 513.773 248.235 514.296C247.734 514.765 247.078 515 246.267 515H245.051ZM254.708 515C253.78 515 253.066 514.701 252.564 514.104C252.138 513.592 251.924 512.941 251.924 512.152V505.416L253.3 504.68V512.104C253.3 513.171 253.823 513.704 254.868 513.704H255.924V515H254.708ZM265.39 513.704H266.43V515H265.374C264.51 515 263.816 514.904 263.294 514.712C262.771 514.509 262.286 514.157 261.838 513.656C260.494 514.552 258.926 515 257.134 515H254.957V513.704H257.15C259.315 513.704 261.027 512.989 262.286 511.56C261.4 509.928 260.323 509.112 259.054 509.112C258.19 509.112 257.299 509.571 256.382 510.488V509.208C257.278 508.301 258.227 507.848 259.23 507.848C260.051 507.848 260.846 508.147 261.614 508.744C262.382 509.331 263.059 510.173 263.646 511.272V511.976C263.315 512.392 263 512.728 262.702 512.984C263.278 513.464 264.174 513.704 265.39 513.704ZM260.158 516.6C260.67 516.6 260.926 516.861 260.926 517.384C260.926 517.917 260.67 518.184 260.158 518.184C259.635 518.184 259.374 517.917 259.374 517.384C259.374 516.861 259.635 516.6 260.158 516.6ZM267.265 506.232C266.742 506.232 266.481 505.965 266.481 505.432C266.481 504.909 266.742 504.648 267.265 504.648C267.777 504.648 268.033 504.909 268.033 505.432C268.033 505.965 267.777 506.232 267.265 506.232ZM269.313 506.232C268.79 506.232 268.529 505.965 268.529 505.432C268.529 504.909 268.79 504.648 269.313 504.648C269.825 504.648 270.081 504.909 270.081 505.432C270.081 505.965 269.825 506.232 269.313 506.232ZM271.041 513.704H272.097V515H270.881C269.996 515 269.297 514.717 268.785 514.152C268.273 514.717 267.574 515 266.689 515H265.473V513.704H266.529C267.574 513.704 268.097 513.171 268.097 512.104V508.792L269.473 508.056V512.104C269.473 513.171 269.996 513.704 271.041 513.704ZM274.169 506.12C273.647 506.12 273.385 505.853 273.385 505.32C273.385 504.797 273.647 504.536 274.169 504.536C274.681 504.536 274.937 504.797 274.937 505.32C274.937 505.853 274.681 506.12 274.169 506.12ZM276.697 513.704H277.753V515H276.537C275.652 515 274.953 514.717 274.441 514.152C273.929 514.717 273.231 515 272.345 515H271.129V513.704H272.185C273.231 513.704 273.753 513.171 273.753 512.104V508.792L275.129 508.056V512.104C275.129 513.171 275.652 513.704 276.697 513.704ZM279.41 510.664C279.41 509.736 279.687 509.016 280.242 508.504C280.732 508.067 281.372 507.848 282.162 507.848C283.175 507.848 283.954 508.221 284.498 508.968C284.967 509.597 285.202 510.419 285.202 511.432C285.202 512.584 284.903 513.485 284.306 514.136C283.783 514.712 283.1 515 282.258 515C281.298 515 280.567 514.733 280.066 514.2C279.554 514.733 278.866 515 278.002 515H276.786V513.704H277.842C278.887 513.704 279.41 513.171 279.41 512.104V510.664ZM280.786 512.216C280.786 513.208 281.271 513.704 282.242 513.704C282.743 513.704 283.132 513.501 283.41 513.096C283.698 512.691 283.842 512.125 283.842 511.4C283.842 510.685 283.692 510.131 283.394 509.736C283.095 509.331 282.684 509.128 282.162 509.128C281.244 509.128 280.786 509.661 280.786 510.728V512.216ZM300.813 515C300.706 515.939 300.194 516.691 299.277 517.256C298.423 517.779 297.335 518.04 296.013 518.04C294.327 518.04 293.058 517.549 292.205 516.568C291.575 515.843 291.261 514.947 291.261 513.88C291.261 512.984 291.485 512.216 291.933 511.576L293.261 511.288C292.781 512.045 292.541 512.861 292.541 513.736C292.541 514.685 292.85 515.432 293.469 515.976C294.077 516.52 294.925 516.792 296.013 516.792C296.93 516.792 297.687 516.632 298.285 516.312C298.882 515.992 299.245 515.555 299.373 515H297.773L298.445 513.704H300.861V515H300.813ZM305.476 513.704H306.532V515H305.316C304.399 515 303.689 514.707 303.188 514.12C302.655 514.707 301.919 515 300.98 515H300.02V513.704H300.868C301.977 513.704 302.532 513.123 302.532 511.96V505.416L303.924 504.68V511.976C303.924 512.595 304.041 513.037 304.276 513.304C304.521 513.571 304.921 513.704 305.476 513.704ZM314.191 513.704V515H305.567V513.704H308.335C307.812 513.032 307.551 512.205 307.551 511.224C307.551 510.136 307.924 509.272 308.671 508.632C309.279 508.12 309.983 507.859 310.783 507.848C311.914 507.848 312.794 508.301 313.423 509.208V510.504C312.74 509.587 311.914 509.128 310.943 509.128C310.335 509.128 309.844 509.325 309.471 509.72C309.108 510.104 308.927 510.621 308.927 511.272C308.927 512.008 309.146 512.6 309.583 513.048C310.031 513.485 310.623 513.704 311.359 513.704H314.191ZM324.079 513.704H325.135V515H323.919C323.375 515 322.905 514.893 322.511 514.68C322.415 515.736 322.047 516.579 321.407 517.208C320.82 517.784 320.084 518.072 319.199 518.072C318.559 518.072 317.935 517.912 317.327 517.592V516.392C317.871 516.691 318.415 516.84 318.959 516.84C319.641 516.84 320.175 516.611 320.559 516.152C320.943 515.693 321.135 515.059 321.135 514.248V508.792L322.511 508.056V508.072L322.527 508.056V512.424C322.623 513.277 323.14 513.704 324.079 513.704ZM327.024 504.328C326.534 504.328 326.288 504.077 326.288 503.576C326.288 503.085 326.534 502.84 327.024 502.84C327.515 502.84 327.76 503.085 327.76 503.576C327.76 504.077 327.515 504.328 327.024 504.328ZM326.016 506.232C325.494 506.232 325.232 505.965 325.232 505.432C325.232 504.909 325.494 504.648 326.016 504.648C326.528 504.648 326.784 504.909 326.784 505.432C326.784 505.965 326.528 506.232 326.016 506.232ZM327.264 505.432C327.264 504.909 327.526 504.648 328.048 504.648C328.56 504.648 328.816 504.909 328.816 505.432C328.816 505.965 328.56 506.232 328.048 506.232C327.526 506.232 327.264 505.965 327.264 505.432ZM329.744 513.704H330.8V515H329.584C328.699 515 328 514.717 327.488 514.152C326.976 514.717 326.278 515 325.392 515H324.176V513.704H325.232C326.278 513.704 326.8 513.171 326.8 512.104V508.792L328.176 508.056V512.104C328.176 513.171 328.699 513.704 329.744 513.704ZM338.457 513.704V515H329.832V513.704H332.601C332.078 513.032 331.817 512.205 331.817 511.224C331.817 510.136 332.19 509.272 332.937 508.632C333.545 508.12 334.249 507.859 335.049 507.848C336.179 507.848 337.059 508.301 337.689 509.208V510.504C337.006 509.587 336.179 509.128 335.209 509.128C334.601 509.128 334.11 509.325 333.737 509.72C333.374 510.104 333.193 510.621 333.193 511.272C333.193 512.008 333.411 512.6 333.849 513.048C334.297 513.485 334.889 513.704 335.625 513.704H338.457ZM340.69 515V505.416L342.066 504.68V515H340.69Z" fill="#A4A4A4"/>
<g clip-path="url(#clip1_461_20348)">
<rect x="138" y="549" width="136" height="56" rx="28" fill="#FFFFF5"/>
<rect width="136" height="56" transform="translate(138 549)" fill="#2ECC71"/>
<path d="M164.832 569.96C164.309 569.96 164.048 569.693 164.048 569.16C164.048 568.637 164.309 568.376 164.832 568.376C165.344 568.376 165.6 568.637 165.6 569.16C165.6 569.693 165.344 569.96 164.832 569.96ZM166.864 569.96C166.341 569.96 166.08 569.693 166.08 569.16C166.08 568.637 166.341 568.376 166.864 568.376C167.376 568.376 167.632 568.637 167.632 569.16C167.632 569.693 167.376 569.96 166.864 569.96ZM169.84 577.704H170.896V579H169.68C168.581 579 167.792 578.595 167.312 577.784C166.8 578.275 166.165 578.52 165.408 578.52C164.469 578.52 163.723 578.168 163.168 577.464C162.709 576.867 162.48 576.136 162.48 575.272C162.48 574.237 162.795 573.405 163.424 572.776C163.957 572.232 164.608 571.96 165.376 571.96C165.963 571.96 166.469 572.109 166.896 572.408V571.72L168.288 570.984V576.104C168.288 577.171 168.805 577.704 169.84 577.704ZM166.896 573.896C166.501 573.459 166.016 573.24 165.44 573.24C164.971 573.24 164.587 573.432 164.288 573.816C163.989 574.189 163.84 574.68 163.84 575.288C163.84 575.907 163.989 576.403 164.288 576.776C164.587 577.149 164.976 577.336 165.456 577.336C166.053 577.336 166.544 577.091 166.928 576.6C166.907 576.408 166.896 576.259 166.896 576.152V573.896ZM175.398 577.704H176.454V579H175.238C174.321 579 173.611 578.707 173.11 578.12C172.577 578.707 171.841 579 170.902 579H169.942V577.704H170.79C171.899 577.704 172.454 577.123 172.454 575.96V569.416L173.846 568.68V575.976C173.846 576.595 173.963 577.037 174.198 577.304C174.443 577.571 174.843 577.704 175.398 577.704ZM186.753 570.12C186.23 570.12 185.969 569.853 185.969 569.32C185.969 568.797 186.23 568.536 186.753 568.536C187.265 568.536 187.521 568.797 187.521 569.32C187.521 569.853 187.265 570.12 186.753 570.12ZM191.873 577.704H192.929V579H191.713C190.817 579 190.118 578.723 189.617 578.168C189.115 578.723 188.417 579 187.521 579H180.897C180.011 579 179.313 578.717 178.801 578.152C178.289 578.717 177.59 579 176.705 579H175.489V577.704H176.545C177.59 577.704 178.113 577.171 178.113 576.104V573.864L179.489 573.128V576.104C179.489 577 179.835 577.517 180.529 577.656C180.955 576.045 181.659 574.701 182.641 573.624C183.739 572.44 185.019 571.848 186.481 571.848C187.697 571.848 188.667 572.269 189.393 573.112C190.001 573.827 190.305 574.707 190.305 575.752V576.136C190.305 577.181 190.827 577.704 191.873 577.704ZM187.441 577.704C188.433 577.704 188.929 577.149 188.929 576.04V575.752C188.929 574.92 188.673 574.259 188.161 573.768C187.713 573.341 187.158 573.128 186.497 573.128C185.366 573.128 184.347 573.651 183.441 574.696C182.747 575.496 182.214 576.499 181.841 577.704H187.441ZM195.941 570.232C195.418 570.232 195.157 569.965 195.157 569.432C195.157 568.909 195.418 568.648 195.941 568.648C196.453 568.648 196.709 568.909 196.709 569.432C196.709 569.965 196.453 570.232 195.941 570.232ZM197.973 570.232C197.45 570.232 197.189 569.965 197.189 569.432C197.189 568.909 197.45 568.648 197.973 568.648C198.485 568.648 198.741 568.909 198.741 569.432C198.741 569.965 198.485 570.232 197.973 570.232ZM198.965 577.704H201.941V579H198.037C197.621 579 197.258 578.963 196.949 578.888C196.65 578.963 196.288 579 195.861 579H191.973V577.704H194.949C194.288 576.947 193.957 576.109 193.957 575.192C193.957 574.147 194.25 573.315 194.837 572.696C195.37 572.131 196.074 571.848 196.949 571.848C197.952 571.848 198.725 572.211 199.269 572.936C199.728 573.533 199.957 574.285 199.957 575.192C199.957 576.109 199.626 576.947 198.965 577.704ZM196.965 577.56C197.456 577.389 197.856 577.08 198.165 576.632C198.474 576.173 198.629 575.672 198.629 575.128C198.629 574.509 198.474 574.024 198.165 573.672C197.866 573.309 197.461 573.128 196.949 573.128C196.437 573.128 196.026 573.309 195.717 573.672C195.418 574.035 195.269 574.52 195.269 575.128C195.269 575.661 195.429 576.157 195.749 576.616C196.069 577.075 196.474 577.389 196.965 577.56ZM203.613 574.664C203.613 573.736 203.89 573.016 204.445 572.504C204.935 572.067 205.575 571.848 206.365 571.848C207.378 571.848 208.157 572.221 208.701 572.968C209.17 573.597 209.405 574.419 209.405 575.432C209.405 576.584 209.106 577.485 208.509 578.136C207.986 578.712 207.303 579 206.461 579C205.501 579 204.77 578.733 204.269 578.2C203.757 578.733 203.069 579 202.205 579H200.989V577.704H202.045C203.09 577.704 203.613 577.171 203.613 576.104V574.664ZM204.989 576.216C204.989 577.208 205.474 577.704 206.445 577.704C206.946 577.704 207.335 577.501 207.613 577.096C207.901 576.691 208.045 576.125 208.045 575.4C208.045 574.685 207.895 574.131 207.597 573.736C207.298 573.331 206.887 573.128 206.365 573.128C205.447 573.128 204.989 573.661 204.989 574.728V576.216ZM225.544 570.232C225.021 570.232 224.76 569.965 224.76 569.432C224.76 568.909 225.021 568.648 225.544 568.648C226.056 568.648 226.312 568.909 226.312 569.432C226.312 569.965 226.056 570.232 225.544 570.232ZM227.464 577.704H230.328V579H226.552C226.125 579 225.762 578.963 225.464 578.888C225.154 578.963 224.792 579 224.376 579H218.456C217.592 579 216.914 578.712 216.424 578.136C215.997 577.635 215.784 576.979 215.784 576.168V574.232L217.16 573.496V576.04C217.16 577.149 217.677 577.704 218.712 577.704H223.448C222.786 576.947 222.456 576.109 222.456 575.192C222.456 574.147 222.754 573.315 223.352 572.696C223.885 572.131 224.589 571.848 225.464 571.848C226.456 571.848 227.229 572.211 227.784 572.936C228.232 573.533 228.456 574.285 228.456 575.192C228.456 576.109 228.125 576.947 227.464 577.704ZM225.464 577.56C225.954 577.389 226.354 577.075 226.664 576.616C226.984 576.157 227.144 575.661 227.144 575.128C227.144 574.52 226.989 574.035 226.68 573.672C226.381 573.309 225.976 573.128 225.464 573.128C224.952 573.128 224.541 573.309 224.232 573.672C223.933 574.024 223.784 574.509 223.784 575.128C223.784 575.661 223.938 576.157 224.248 576.616C224.568 577.075 224.973 577.389 225.464 577.56ZM240.628 570.12C240.105 570.12 239.844 569.853 239.844 569.32C239.844 568.797 240.105 568.536 240.628 568.536C241.14 568.536 241.396 568.797 241.396 569.32C241.396 569.853 241.14 570.12 240.628 570.12ZM234.404 577.656C234.83 576.045 235.534 574.701 236.516 573.624C237.614 572.44 238.894 571.848 240.356 571.848C241.572 571.848 242.542 572.269 243.268 573.112C243.876 573.827 244.18 574.707 244.18 575.752V576.168C244.18 577.096 243.897 577.816 243.332 578.328C242.841 578.776 242.196 579 241.396 579H234.772C233.886 579 233.188 578.717 232.676 578.152C232.164 578.717 231.465 579 230.58 579H229.364V577.704H230.42C231.465 577.704 231.988 577.171 231.988 576.104V573.864L233.364 573.128V576.104C233.364 577 233.71 577.517 234.404 577.656ZM242.804 576.04V575.752C242.804 574.92 242.548 574.259 242.036 573.768C241.588 573.341 241.033 573.128 240.372 573.128C239.241 573.128 238.222 573.651 237.316 574.696C236.622 575.496 236.089 576.499 235.716 577.704H241.316C242.308 577.704 242.804 577.149 242.804 576.04ZM245.889 568.456L246.257 567.768H246.689C246.582 567.576 246.529 567.379 246.529 567.176C246.529 566.856 246.646 566.584 246.881 566.36C247.116 566.125 247.393 566.008 247.713 566.008C247.98 566.008 248.236 566.093 248.481 566.264V566.968C248.246 566.787 248.022 566.696 247.809 566.696C247.414 566.696 247.217 566.872 247.217 567.224C247.217 567.405 247.292 567.587 247.441 567.768H248.897L248.529 568.456H245.889ZM246.737 579V570.056L248.113 569.32V579H246.737Z" fill="white"/>
</g>
<g clip-path="url(#clip2_461_20348)">
<rect width="412" height="64" transform="translate(0 853)" fill="#FFFFF5"/>
<g clip-path="url(#clip3_461_20348)">
<path d="M41.2002 873C40.1002 873 39.1585 872.608 38.3752 871.825C37.5919 871.042 37.2002 870.1 37.2002 869C37.2002 867.9 37.5919 866.958 38.3752 866.175C39.1585 865.392 40.1002 865 41.2002 865C42.3002 865 43.2419 865.392 44.0252 866.175C44.8085 866.958 45.2002 867.9 45.2002 869C45.2002 870.1 44.8085 871.042 44.0252 871.825C43.2419 872.608 42.3002 873 41.2002 873ZM33.2002 881V878.2C33.2002 877.633 33.346 877.113 33.6377 876.637C33.9294 876.162 34.3169 875.8 34.8002 875.55C35.8335 875.033 36.8835 874.646 37.9502 874.387C39.0169 874.129 40.1002 874 41.2002 874C42.3002 874 43.3835 874.129 44.4502 874.387C45.5169 874.646 46.5669 875.033 47.6002 875.55C48.0835 875.8 48.471 876.162 48.7627 876.637C49.0544 877.113 49.2002 877.633 49.2002 878.2V881H33.2002ZM35.2002 879H47.2002V878.2C47.2002 878.017 47.1544 877.85 47.0627 877.7C46.971 877.55 46.8502 877.433 46.7002 877.35C45.8002 876.9 44.8919 876.563 43.9752 876.338C43.0585 876.113 42.1335 876 41.2002 876C40.2669 876 39.3419 876.113 38.4252 876.338C37.5085 876.563 36.6002 876.9 35.7002 877.35C35.5502 877.433 35.4294 877.55 35.3377 877.7C35.246 877.85 35.2002 878.017 35.2002 878.2V879ZM41.2002 871C41.7502 871 42.221 870.804 42.6127 870.412C43.0044 870.021 43.2002 869.55 43.2002 869C43.2002 868.45 43.0044 867.979 42.6127 867.588C42.221 867.196 41.7502 867 41.2002 867C40.6502 867 40.1794 867.196 39.7877 867.588C39.396 867.979 39.2002 868.45 39.2002 869C39.2002 869.55 39.396 870.021 39.7877 870.412C40.1794 870.804 40.6502 871 41.2002 871Z" fill="#646464"/>
</g>
<path d="M30.3378 905C30.2445 905.821 29.7965 906.479 28.9938 906.974C28.2471 907.431 27.2951 907.66 26.1378 907.66C24.6631 907.66 23.5525 907.231 22.8058 906.372C22.2551 905.737 21.9798 904.953 21.9798 904.02C21.9798 903.236 22.1758 902.564 22.5678 902.004L23.7298 901.752C23.3098 902.415 23.0998 903.129 23.0998 903.894C23.0998 904.725 23.3705 905.378 23.9118 905.854C24.4438 906.33 25.1858 906.568 26.1378 906.568C26.9405 906.568 27.6031 906.428 28.1258 906.148C28.6485 905.868 28.9658 905.485 29.0778 905H27.6778L28.2658 903.866H30.3798V905H30.3378ZM25.1998 910.138C24.7425 910.138 24.5138 909.905 24.5138 909.438C24.5138 908.981 24.7425 908.752 25.1998 908.752C25.6478 908.752 25.8718 908.981 25.8718 909.438C25.8718 909.905 25.6478 910.138 25.1998 910.138ZM26.9778 910.138C26.5205 910.138 26.2918 909.905 26.2918 909.438C26.2918 908.981 26.5205 908.752 26.9778 908.752C27.4258 908.752 27.6498 908.981 27.6498 909.438C27.6498 909.905 27.4258 910.138 26.9778 910.138ZM29.6443 905V903.866H30.5683C31.4829 903.866 31.9403 903.399 31.9403 902.466V899.568L33.1443 898.924V902.508C33.1443 903.301 32.9063 903.927 32.4303 904.384C31.9916 904.795 31.4176 905 30.7083 905H29.6443ZM31.8983 907.786C31.4409 907.786 31.2123 907.553 31.2123 907.086C31.2123 906.629 31.4409 906.4 31.8983 906.4C32.3463 906.4 32.5703 906.629 32.5703 907.086C32.5703 907.553 32.3463 907.786 31.8983 907.786ZM38.0942 905C37.2822 905 36.6569 904.739 36.2182 904.216C35.8449 903.768 35.6582 903.199 35.6582 902.508V896.614L36.8622 895.97V902.466C36.8622 903.399 37.3196 903.866 38.2342 903.866H39.1582V905H38.0942ZM38.3122 905V903.866H39.5722C40.4776 903.866 40.9302 903.399 40.9302 902.466V900.506L42.1342 899.862V902.466C42.1342 903.399 42.5916 903.866 43.5062 903.866H44.1502C45.0649 903.866 45.5222 903.399 45.5222 902.466V900.03L46.7262 899.4V902.466C46.7262 903.399 47.1789 903.866 48.0842 903.866H48.7422C49.6569 903.866 50.1142 903.399 50.1142 902.466V899.568L51.3182 898.924V902.34C51.3182 903.357 51.8036 903.866 52.7742 903.866H53.9362V905H52.6762C51.8362 905 51.1969 904.715 50.7582 904.146C50.3662 904.706 49.7549 904.991 48.9242 905H47.9582C47.1369 905 46.5256 904.725 46.1242 904.174C45.7229 904.715 45.1256 904.991 44.3322 905H43.3662C42.5636 905 41.9522 904.725 41.5322 904.174C41.1309 904.725 40.5196 905 39.6982 905H38.3122ZM53.0915 905V903.866H55.0095C56.9042 903.866 58.4022 903.241 59.5035 901.99C58.7289 900.562 57.7862 899.848 56.6755 899.848C55.9195 899.848 55.1402 900.249 54.3375 901.052V899.932C55.1215 899.139 55.9522 898.742 56.8295 898.742C57.5482 898.742 58.2435 899.003 58.9155 899.526C59.5875 900.039 60.1802 900.777 60.6935 901.738V902.354C59.3215 904.118 57.4222 905 54.9955 905H53.0915Z" fill="#646464"/>
<g clip-path="url(#clip4_461_20348)">
<rect width="56" height="32" transform="translate(95.6006 857)" fill="#F1E00C"/>
<path d="M123.601 881.325C123.367 881.325 123.13 881.283 122.889 881.2C122.647 881.117 122.435 880.983 122.251 880.8L120.526 879.225C118.759 877.608 117.163 876.004 115.738 874.413C114.312 872.822 113.6 871.067 113.601 869.15C113.601 867.583 114.126 866.275 115.176 865.225C116.226 864.175 117.534 863.65 119.101 863.65C119.984 863.65 120.817 863.837 121.601 864.212C122.384 864.587 123.051 865.099 123.601 865.75C124.151 865.1 124.817 864.588 125.601 864.213C126.384 863.838 127.217 863.651 128.101 863.65C129.667 863.65 130.976 864.175 132.026 865.225C133.076 866.275 133.601 867.583 133.601 869.15C133.601 871.067 132.892 872.825 131.476 874.425C130.059 876.025 128.451 877.633 126.651 879.25L124.951 880.8C124.767 880.983 124.555 881.117 124.314 881.2C124.072 881.283 123.835 881.325 123.601 881.325ZM122.651 867.75C122.167 867.067 121.651 866.546 121.101 866.187C120.551 865.828 119.884 865.649 119.101 865.65C118.101 865.65 117.267 865.983 116.601 866.65C115.934 867.317 115.601 868.15 115.601 869.15C115.601 870.017 115.909 870.938 116.526 871.913C117.142 872.888 117.88 873.834 118.739 874.75C119.597 875.666 120.481 876.524 121.389 877.325C122.297 878.126 123.034 878.784 123.601 879.3C124.167 878.783 124.905 878.125 125.814 877.325C126.722 876.525 127.606 875.667 128.464 874.75C129.322 873.833 130.059 872.888 130.676 871.913C131.292 870.938 131.601 870.017 131.601 869.15C131.601 868.15 131.267 867.317 130.601 866.65C129.934 865.983 129.101 865.65 128.101 865.65C127.317 865.65 126.651 865.829 126.101 866.188C125.551 866.547 125.034 867.067 124.551 867.75C124.434 867.917 124.292 868.042 124.126 868.125C123.959 868.208 123.784 868.25 123.601 868.25C123.417 868.25 123.242 868.208 123.076 868.125C122.909 868.042 122.767 867.917 122.651 867.75Z" fill="#646464"/>
</g>
<path d="M100.266 897.09C99.8086 897.09 99.5799 896.857 99.5799 896.39C99.5799 895.933 99.8086 895.704 100.266 895.704C100.714 895.704 100.938 895.933 100.938 896.39C100.938 896.857 100.714 897.09 100.266 897.09ZM102.044 897.09C101.587 897.09 101.358 896.857 101.358 896.39C101.358 895.933 101.587 895.704 102.044 895.704C102.492 895.704 102.716 895.933 102.716 896.39C102.716 896.857 102.492 897.09 102.044 897.09ZM104.648 903.866H105.572V905H104.508C103.547 905 102.856 904.645 102.436 903.936C101.988 904.365 101.433 904.58 100.77 904.58C99.9486 904.58 99.2952 904.272 98.8099 903.656C98.4086 903.133 98.2079 902.494 98.2079 901.738C98.2079 900.833 98.4832 900.105 99.0339 899.554C99.5006 899.078 100.07 898.84 100.742 898.84C101.255 898.84 101.699 898.971 102.072 899.232V898.63L103.29 897.986V902.466C103.29 903.399 103.743 903.866 104.648 903.866ZM102.072 900.534C101.727 900.151 101.302 899.96 100.798 899.96C100.387 899.96 100.051 900.128 99.7899 900.464C99.5286 900.791 99.3979 901.22 99.3979 901.752C99.3979 902.293 99.5286 902.727 99.7899 903.054C100.051 903.381 100.392 903.544 100.812 903.544C101.335 903.544 101.764 903.329 102.1 902.9C102.081 902.732 102.072 902.601 102.072 902.508V900.534ZM109.511 903.866H110.435V905H109.371C108.568 905 107.948 904.743 107.509 904.23C107.042 904.743 106.398 905 105.577 905H104.737V903.866H105.479C106.45 903.866 106.935 903.357 106.935 902.34V896.614L108.153 895.97V902.354C108.153 902.895 108.256 903.283 108.461 903.516C108.676 903.749 109.026 903.866 109.511 903.866ZM119.447 897.23C118.989 897.23 118.761 896.997 118.761 896.53C118.761 896.073 118.989 895.844 119.447 895.844C119.895 895.844 120.119 896.073 120.119 896.53C120.119 896.997 119.895 897.23 119.447 897.23ZM123.927 903.866H124.851V905H123.787C123.003 905 122.391 904.757 121.953 904.272C121.514 904.757 120.903 905 120.119 905H114.323C113.548 905 112.937 904.753 112.489 904.258C112.041 904.753 111.429 905 110.655 905H109.591V903.866H110.515C111.429 903.866 111.887 903.399 111.887 902.466V900.506L113.091 899.862V902.466C113.091 903.25 113.394 903.703 114.001 903.824C114.374 902.415 114.99 901.239 115.849 900.296C116.81 899.26 117.93 898.742 119.209 898.742C120.273 898.742 121.122 899.111 121.757 899.848C122.289 900.473 122.555 901.243 122.555 902.158V902.494C122.555 903.409 123.012 903.866 123.927 903.866ZM120.049 903.866C120.917 903.866 121.351 903.381 121.351 902.41V902.158C121.351 901.43 121.127 900.851 120.679 900.422C120.287 900.049 119.801 899.862 119.223 899.862C118.233 899.862 117.342 900.319 116.549 901.234C115.942 901.934 115.475 902.811 115.149 903.866H120.049ZM128.396 897.314C127.939 897.314 127.71 897.081 127.71 896.614C127.71 896.157 127.939 895.928 128.396 895.928C128.844 895.928 129.068 896.157 129.068 896.614C129.068 897.081 128.844 897.314 128.396 897.314ZM130.132 903.866H132.736V905H129.32C128.956 905 128.639 904.967 128.368 904.902C128.107 904.967 127.79 905 127.416 905H124.014V903.866H126.618C126.04 903.203 125.75 902.471 125.75 901.668C125.75 900.753 126.007 900.025 126.52 899.484C126.987 898.989 127.603 898.742 128.368 898.742C129.246 898.742 129.922 899.059 130.398 899.694C130.8 900.217 131 900.875 131 901.668C131 902.471 130.711 903.203 130.132 903.866ZM128.382 903.74C128.812 903.591 129.162 903.32 129.432 902.928C129.703 902.527 129.838 902.088 129.838 901.612C129.838 901.071 129.703 900.646 129.432 900.338C129.171 900.021 128.816 899.862 128.368 899.862C127.92 899.862 127.561 900.021 127.29 900.338C127.029 900.655 126.898 901.08 126.898 901.612C126.898 902.079 127.038 902.513 127.318 902.914C127.598 903.315 127.953 903.591 128.382 903.74ZM140.919 903.866H141.857V905H140.793C140.018 905 139.407 904.753 138.959 904.258C138.483 904.939 137.788 905.28 136.873 905.28C135.958 905.28 135.268 904.944 134.801 904.272C134.362 904.757 133.751 905 132.967 905H131.903V903.866H132.827C133.742 903.866 134.199 903.399 134.199 902.466V902.004C134.199 900.921 134.465 900.091 134.997 899.512C135.464 898.999 136.089 898.742 136.873 898.742C137.769 898.742 138.46 899.073 138.945 899.736C139.356 900.305 139.561 901.061 139.561 902.004V902.466C139.561 903.399 140.014 903.866 140.919 903.866ZM136.873 904.146C137.33 904.146 137.69 903.955 137.951 903.572C138.222 903.189 138.357 902.662 138.357 901.99C138.357 900.571 137.862 899.862 136.873 899.862C135.893 899.862 135.403 900.571 135.403 901.99C135.403 903.427 135.893 904.146 136.873 904.146ZM141.022 905V903.866H141.764C142.735 903.866 143.22 903.357 143.22 902.34V896.614L144.438 895.97V902.354C144.438 903.185 144.191 903.843 143.696 904.328C143.23 904.776 142.618 905 141.862 905H141.022ZM146.954 905V896.614L148.158 895.97V905H146.954Z" fill="#646464"/>
<g clip-path="url(#clip5_461_20348)">
<path d="M203.658 874.874C203.855 874.874 204.043 874.952 204.181 875.091C204.32 875.23 204.398 875.418 204.398 875.614V877.587C204.398 877.783 204.32 877.972 204.181 878.11C204.043 878.249 203.855 878.327 203.658 878.327C203.462 878.327 203.274 878.249 203.135 878.11C202.996 877.972 202.918 877.783 202.918 877.587V875.614C202.918 875.418 202.996 875.23 203.135 875.091C203.274 874.952 203.462 874.874 203.658 874.874ZM208.344 875.614C208.344 875.418 208.266 875.23 208.127 875.091C207.989 874.952 207.8 874.874 207.604 874.874C207.408 874.874 207.22 874.952 207.081 875.091C206.942 875.23 206.864 875.418 206.864 875.614V877.587C206.864 877.783 206.942 877.972 207.081 878.11C207.22 878.249 207.408 878.327 207.604 878.327C207.8 878.327 207.989 878.249 208.127 878.11C208.266 877.972 208.344 877.783 208.344 877.587V875.614Z" fill="#646464"/>
<path fill-rule="evenodd" clip-rule="evenodd" d="M203.313 865.133C203.411 864.963 203.438 864.761 203.387 864.571C203.336 864.382 203.212 864.22 203.042 864.122C202.872 864.024 202.67 863.997 202.48 864.048C202.29 864.099 202.129 864.223 202.031 864.393L200.058 867.81C200.03 867.861 200.008 867.914 199.99 867.969H199.712C199.153 867.969 198.607 868.142 198.149 868.465C197.692 868.788 197.345 869.244 197.157 869.771C196.97 870.299 196.949 870.871 197.1 871.41C197.25 871.95 197.563 872.429 197.997 872.783L198.655 877.306L199.096 879.371C199.225 879.975 199.536 880.524 199.988 880.945C200.44 881.366 201.011 881.637 201.622 881.723C204.283 882.092 206.981 882.092 209.64 881.723C210.252 881.637 210.822 881.366 211.274 880.945C211.726 880.524 212.038 879.975 212.167 879.371L212.608 877.306L213.266 872.784C213.7 872.43 214.013 871.951 214.164 871.411C214.314 870.872 214.294 870.299 214.106 869.771C213.918 869.244 213.572 868.787 213.114 868.465C212.656 868.142 212.11 867.969 211.55 867.969H211.273C211.255 867.914 211.232 867.86 211.204 867.809L209.231 864.392C209.184 864.304 209.12 864.227 209.043 864.165C208.966 864.102 208.877 864.056 208.781 864.029C208.686 864.001 208.586 863.993 208.487 864.006C208.389 864.018 208.294 864.05 208.208 864.099C208.122 864.149 208.047 864.215 207.987 864.295C207.927 864.374 207.884 864.465 207.86 864.561C207.836 864.657 207.832 864.758 207.847 864.856C207.863 864.954 207.898 865.048 207.95 865.132L209.588 867.968H201.675L203.313 865.133ZM211.682 873.392L211.55 873.395H199.712C199.668 873.395 199.624 873.394 199.581 873.392L200.112 877.045L200.543 879.062C200.609 879.369 200.767 879.648 200.996 879.862C201.226 880.075 201.516 880.213 201.826 880.257C204.351 880.608 206.912 880.608 209.436 880.257C209.747 880.213 210.036 880.075 210.266 879.862C210.495 879.648 210.654 879.37 210.72 879.063L211.151 877.045L211.682 873.392ZM198.479 870.682C198.479 870.001 199.032 869.449 199.712 869.449H211.55C211.877 869.449 212.191 869.579 212.422 869.81C212.653 870.041 212.783 870.355 212.783 870.682C212.783 871.009 212.653 871.323 212.422 871.554C212.191 871.785 211.877 871.915 211.55 871.915H199.712C199.032 871.915 198.479 871.363 198.479 870.682Z" fill="#646464"/>
</g>
<path d="M190.991 897.09C190.534 897.09 190.305 896.857 190.305 896.39C190.305 895.933 190.534 895.704 190.991 895.704C191.439 895.704 191.663 895.933 191.663 896.39C191.663 896.857 191.439 897.09 190.991 897.09ZM192.769 897.09C192.312 897.09 192.083 896.857 192.083 896.39C192.083 895.933 192.312 895.704 192.769 895.704C193.217 895.704 193.441 895.933 193.441 896.39C193.441 896.857 193.217 897.09 192.769 897.09ZM195.373 903.866H196.297V905H195.233C194.272 905 193.581 904.645 193.161 903.936C192.713 904.365 192.158 904.58 191.495 904.58C190.674 904.58 190.021 904.272 189.535 903.656C189.134 903.133 188.933 902.494 188.933 901.738C188.933 900.833 189.209 900.105 189.759 899.554C190.226 899.078 190.795 898.84 191.467 898.84C191.981 898.84 192.424 898.971 192.797 899.232V898.63L194.015 897.986V902.466C194.015 903.399 194.468 903.866 195.373 903.866ZM192.797 900.534C192.452 900.151 192.027 899.96 191.523 899.96C191.113 899.96 190.777 900.128 190.515 900.464C190.254 900.791 190.123 901.22 190.123 901.752C190.123 902.293 190.254 902.727 190.515 903.054C190.777 903.381 191.117 903.544 191.537 903.544C192.06 903.544 192.489 903.329 192.825 902.9C192.807 902.732 192.797 902.601 192.797 902.508V900.534ZM200.237 903.866H201.161V905H200.097C199.294 905 198.673 904.743 198.235 904.23C197.768 904.743 197.124 905 196.303 905H195.463V903.866H196.205C197.175 903.866 197.661 903.357 197.661 902.34V896.614L198.879 895.97V902.354C198.879 902.895 198.981 903.283 199.187 903.516C199.401 903.749 199.751 903.866 200.237 903.866ZM200.316 905V903.866H201.576C202.481 903.866 202.934 903.399 202.934 902.466V900.506L204.138 899.862V902.466C204.138 903.399 204.595 903.866 205.51 903.866H206.154C207.069 903.866 207.526 903.399 207.526 902.466V900.03L208.73 899.4V902.466C208.73 903.399 209.183 903.866 210.088 903.866H210.746C211.661 903.866 212.118 903.399 212.118 902.466V899.568L213.322 898.924V902.34C213.322 903.357 213.807 903.866 214.778 903.866H215.94V905H214.68C213.84 905 213.201 904.715 212.762 904.146C212.37 904.706 211.759 904.991 210.928 905H209.962C209.141 905 208.529 904.725 208.128 904.174C207.727 904.715 207.129 904.991 206.336 905H205.37C204.567 905 203.956 904.725 203.536 904.174C203.135 904.725 202.523 905 201.702 905H200.316ZM215.095 905V903.866H215.837C216.808 903.866 217.293 903.357 217.293 902.34V896.614L218.511 895.97V902.354C218.511 903.185 218.264 903.843 217.769 904.328C217.303 904.776 216.691 905 215.935 905H215.095ZM221.027 905V896.614L222.231 895.97V905H221.027Z" fill="#646464"/>
<g clip-path="url(#clip6_461_20348)">
<path fill-rule="evenodd" clip-rule="evenodd" d="M288.358 864C287.854 864 287.389 864.125 286.882 864.335C286.391 864.538 285.821 864.837 285.112 865.21L283.389 866.114C282.518 866.571 281.822 866.937 281.283 867.296C280.726 867.668 280.296 868.06 279.984 868.591C279.672 869.12 279.532 869.693 279.464 870.376C279.399 871.038 279.399 871.852 279.399 872.877V873.039C279.399 874.064 279.399 874.878 279.464 875.541C279.532 876.224 279.673 876.797 279.984 877.326C280.296 877.857 280.725 878.248 281.284 878.621C281.821 878.98 282.518 879.346 283.389 879.802L285.112 880.707C285.821 881.079 286.391 881.378 286.882 881.582C287.39 881.792 287.854 881.917 288.358 881.917C288.862 881.917 289.326 881.792 289.834 881.582C290.324 881.378 290.894 881.079 291.604 880.707L293.327 879.803C294.198 879.346 294.894 878.98 295.432 878.621C295.99 878.248 296.419 877.857 296.732 877.326C297.044 876.797 297.184 876.223 297.251 875.541C297.316 874.878 297.316 874.064 297.316 873.04V872.877C297.316 871.852 297.316 871.038 297.251 870.376C297.184 869.693 297.043 869.12 296.732 868.591C296.419 868.06 295.99 867.668 295.432 867.296C294.894 866.937 294.198 866.571 293.327 866.114L291.604 865.21C290.894 864.837 290.324 864.538 289.834 864.335C289.325 864.125 288.862 864 288.358 864ZM285.666 866.33C286.408 865.941 286.928 865.669 287.359 865.491C287.779 865.317 288.075 865.25 288.358 865.25C288.641 865.25 288.936 865.317 289.356 865.491C289.788 865.669 290.307 865.941 291.049 866.33L292.715 867.205C293.624 867.681 294.261 868.017 294.739 868.335C294.974 868.492 295.158 868.638 295.308 868.785L292.532 870.172L285.449 866.444L285.666 866.33ZM284.145 867.128L284 867.205C283.092 867.681 282.454 868.017 281.978 868.335C281.775 868.467 281.584 868.618 281.409 868.785L288.358 872.26L291.155 870.86L284.317 867.262C284.253 867.227 284.195 867.182 284.145 867.128ZM280.806 869.881C280.764 870.059 280.732 870.262 280.709 870.497C280.65 871.092 280.649 871.845 280.649 872.909V873.007C280.649 874.072 280.649 874.824 280.709 875.418C280.766 875.999 280.875 876.375 281.061 876.692C281.246 877.006 281.514 877.272 281.978 877.582C282.454 877.9 283.092 878.236 284 878.712L285.667 879.587C286.409 879.976 286.928 880.247 287.359 880.426C287.495 880.482 287.619 880.528 287.733 880.563V873.344L280.806 869.881ZM288.983 880.562C289.096 880.528 289.221 880.482 289.356 880.426C289.788 880.247 290.307 879.976 291.049 879.587L292.715 878.712C293.624 878.235 294.261 877.9 294.739 877.582C295.202 877.272 295.469 877.006 295.655 876.692C295.841 876.375 295.949 876 296.007 875.418C296.065 874.824 296.066 874.072 296.066 873.007V872.91C296.066 871.845 296.066 871.093 296.007 870.498C295.987 870.291 295.955 870.085 295.909 869.882L293.149 871.261V873.792C293.149 873.957 293.084 874.116 292.966 874.234C292.849 874.351 292.69 874.417 292.524 874.417C292.359 874.417 292.2 874.351 292.082 874.234C291.965 874.116 291.899 873.957 291.899 873.792V871.887L288.983 873.345V880.562Z" fill="#646464"/>
</g>
<path d="M278.112 905C278.019 905.821 277.571 906.479 276.768 906.974C276.022 907.431 275.07 907.66 273.912 907.66C272.438 907.66 271.327 907.231 270.58 906.372C270.03 905.737 269.754 904.953 269.754 904.02C269.754 903.236 269.95 902.564 270.342 902.004L271.504 901.752C271.084 902.415 270.874 903.129 270.874 903.894C270.874 904.725 271.145 905.378 271.686 905.854C272.218 906.33 272.96 906.568 273.912 906.568C274.715 906.568 275.378 906.428 275.9 906.148C276.423 905.868 276.74 905.485 276.852 905H275.452L276.04 903.866H278.154V905H278.112ZM272.974 910.138C272.517 910.138 272.288 909.905 272.288 909.438C272.288 908.981 272.517 908.752 272.974 908.752C273.422 908.752 273.646 908.981 273.646 909.438C273.646 909.905 273.422 910.138 272.974 910.138ZM274.752 910.138C274.295 910.138 274.066 909.905 274.066 909.438C274.066 908.981 274.295 908.752 274.752 908.752C275.2 908.752 275.424 908.981 275.424 909.438C275.424 909.905 275.2 910.138 274.752 910.138ZM278.497 897.23C278.039 897.23 277.811 896.997 277.811 896.53C277.811 896.073 278.039 895.844 278.497 895.844C278.945 895.844 279.169 896.073 279.169 896.53C279.169 896.997 278.945 897.23 278.497 897.23ZM280.275 897.23C279.817 897.23 279.589 896.997 279.589 896.53C279.589 896.073 279.817 895.844 280.275 895.844C280.723 895.844 280.947 896.073 280.947 896.53C280.947 896.997 280.723 897.23 280.275 897.23ZM277.419 905V903.866H278.343C279.257 903.866 279.715 903.399 279.715 902.466V899.568L280.919 898.924V902.508C280.919 903.301 280.681 903.927 280.205 904.384C279.766 904.795 279.192 905 278.483 905H277.419ZM285.869 905C285.057 905 284.431 904.739 283.993 904.216C283.619 903.768 283.433 903.199 283.433 902.508V896.614L284.637 895.97V902.466C284.637 903.399 285.094 903.866 286.009 903.866H286.933V905H285.869ZM290.959 903.866H291.883V905H290.819C290.044 905 289.433 904.753 288.985 904.258C288.537 904.753 287.925 905 287.151 905H286.087V903.866H287.011C287.925 903.866 288.383 903.399 288.383 902.466V899.568L289.587 898.924V902.466C289.587 903.399 290.044 903.866 290.959 903.866ZM288.901 906.4C289.349 906.4 289.573 906.629 289.573 907.086C289.573 907.553 289.349 907.786 288.901 907.786C288.443 907.786 288.215 907.553 288.215 907.086C288.215 906.629 288.443 906.4 288.901 906.4ZM295.81 903.866H296.734V905H295.67C294.867 905 294.247 904.743 293.808 904.23C293.341 904.743 292.697 905 291.876 905H291.036V903.866H291.778C292.749 903.866 293.234 903.357 293.234 902.34V896.614L294.452 895.97V902.354C294.452 902.895 294.555 903.283 294.76 903.516C294.975 903.749 295.325 903.866 295.81 903.866ZM299.739 901.094C300.803 899.526 302.124 898.742 303.701 898.742C304.756 898.742 305.601 899.111 306.235 899.848C306.777 900.473 307.047 901.243 307.047 902.158V902.606C307.047 903.371 306.861 903.964 306.487 904.384C306.114 904.795 305.582 905 304.891 905H295.889V903.866H298.493L298.535 903.712V896.614L299.739 895.97V901.094ZM305.829 902.55V902.158C305.829 901.43 305.605 900.851 305.157 900.422C304.775 900.049 304.294 899.862 303.715 899.862C302.754 899.862 301.886 900.296 301.111 901.164C300.533 901.817 300.075 902.634 299.739 903.614V903.866H304.793C305.195 903.866 305.465 903.773 305.605 903.586C305.755 903.399 305.829 903.054 305.829 902.55Z" fill="#646464"/>
<g clip-path="url(#clip7_461_20348)">
<path fill-rule="evenodd" clip-rule="evenodd" d="M369.493 865.612C369.948 865.217 370.53 865 371.132 865C371.734 865 372.317 865.217 372.771 865.612L378.605 870.676C378.875 870.91 379.092 871.201 379.24 871.526C379.389 871.852 379.466 872.206 379.465 872.564V879.043C379.465 879.706 379.202 880.342 378.733 880.811C378.264 881.28 377.629 881.543 376.965 881.543H374.049C373.717 881.543 373.399 881.412 373.165 881.177C372.931 880.943 372.799 880.625 372.799 880.293V874.616H369.465V880.293C369.465 880.625 369.334 880.943 369.099 881.177C368.865 881.412 368.547 881.543 368.215 881.543H365.299C364.636 881.543 364 881.28 363.531 880.811C363.062 880.342 362.799 879.706 362.799 879.043V872.564C362.799 872.206 362.876 871.852 363.024 871.526C363.173 871.201 363.389 870.91 363.66 870.676L369.493 865.612ZM371.679 866.871C371.527 866.739 371.333 866.666 371.132 866.666C370.931 866.666 370.737 866.739 370.585 866.871L364.752 871.935C364.662 872.013 364.59 872.11 364.54 872.218C364.491 872.327 364.465 872.445 364.465 872.564V879.043C364.465 879.264 364.553 879.476 364.71 879.632C364.866 879.789 365.078 879.877 365.299 879.877H367.799V874.616C367.799 874.174 367.974 873.75 368.287 873.437C368.6 873.125 369.023 872.949 369.465 872.949H372.799C373.241 872.949 373.665 873.125 373.977 873.437C374.29 873.75 374.465 874.174 374.465 874.616V879.877H376.965C377.187 879.877 377.398 879.789 377.555 879.632C377.711 879.476 377.799 879.264 377.799 879.043V872.564C377.799 872.445 377.773 872.327 377.723 872.218C377.674 872.11 377.602 872.013 377.511 871.935L371.679 866.871Z" fill="#646464"/>
</g>
<path d="M348.593 897.09C348.136 897.09 347.907 896.857 347.907 896.39C347.907 895.933 348.136 895.704 348.593 895.704C349.041 895.704 349.265 895.933 349.265 896.39C349.265 896.857 349.041 897.09 348.593 897.09ZM350.371 897.09C349.914 897.09 349.685 896.857 349.685 896.39C349.685 895.933 349.914 895.704 350.371 895.704C350.819 895.704 351.043 895.933 351.043 896.39C351.043 896.857 350.819 897.09 350.371 897.09ZM352.975 903.866H353.899V905H352.835C351.874 905 351.183 904.645 350.763 903.936C350.315 904.365 349.76 904.58 349.097 904.58C348.276 904.58 347.622 904.272 347.137 903.656C346.736 903.133 346.535 902.494 346.535 901.738C346.535 900.833 346.81 900.105 347.361 899.554C347.828 899.078 348.397 898.84 349.069 898.84C349.582 898.84 350.026 898.971 350.399 899.232V898.63L351.617 897.986V902.466C351.617 903.399 352.07 903.866 352.975 903.866ZM350.399 900.534C350.054 900.151 349.629 899.96 349.125 899.96C348.714 899.96 348.378 900.128 348.117 900.464C347.856 900.791 347.725 901.22 347.725 901.752C347.725 902.293 347.856 902.727 348.117 903.054C348.378 903.381 348.719 903.544 349.139 903.544C349.662 903.544 350.091 903.329 350.427 902.9C350.408 902.732 350.399 902.601 350.399 902.508V900.534ZM357.936 903.866H358.86V905H357.796C357.022 905 356.41 904.753 355.962 904.258C355.514 904.753 354.903 905 354.128 905H353.064V903.866H353.988C354.903 903.866 355.36 903.399 355.36 902.466V899.568L356.564 898.924V902.466C356.564 903.399 357.022 903.866 357.936 903.866ZM354.59 906.4C355.038 906.4 355.262 906.633 355.262 907.1C355.262 907.557 355.038 907.786 354.59 907.786C354.133 907.786 353.904 907.557 353.904 907.1C353.904 906.633 354.133 906.4 354.59 906.4ZM356.368 906.4C356.816 906.4 357.04 906.633 357.04 907.1C357.04 907.557 356.816 907.786 356.368 907.786C355.911 907.786 355.682 907.557 355.682 907.1C355.682 906.633 355.911 906.4 356.368 906.4ZM358.013 905V903.866H359.273C360.179 903.866 360.631 903.399 360.631 902.466V900.506L361.835 899.862V902.466C361.835 903.399 362.293 903.866 363.207 903.866H363.851C364.766 903.866 365.223 903.399 365.223 902.466V900.03L366.427 899.4V902.466C366.427 903.399 366.88 903.866 367.785 903.866H368.443C369.358 903.866 369.815 903.399 369.815 902.466V899.568L371.019 898.924V902.34C371.019 903.357 371.505 903.866 372.475 903.866H373.637V905H372.377C371.537 905 370.898 904.715 370.459 904.146C370.067 904.706 369.456 904.991 368.625 905H367.659C366.838 905 366.227 904.725 365.825 904.174C365.424 904.715 364.827 904.991 364.033 905H363.067C362.265 905 361.653 904.725 361.233 904.174C360.832 904.725 360.221 905 359.399 905H358.013ZM377.665 903.866H378.589V905H377.525C376.75 905 376.139 904.753 375.691 904.258C375.243 904.753 374.631 905 373.857 905H372.793V903.866H373.717C374.631 903.866 375.089 903.399 375.089 902.466V899.568L376.293 898.924V902.466C376.293 903.399 376.75 903.866 377.665 903.866ZM374.319 906.4C374.767 906.4 374.991 906.633 374.991 907.1C374.991 907.557 374.767 907.786 374.319 907.786C373.861 907.786 373.633 907.557 373.633 907.1C373.633 906.633 373.861 906.4 374.319 906.4ZM376.097 906.4C376.545 906.4 376.769 906.633 376.769 907.1C376.769 907.557 376.545 907.786 376.097 907.786C375.639 907.786 375.411 907.557 375.411 907.1C375.411 906.633 375.639 906.4 376.097 906.4ZM378.918 897.132L379.24 896.53H379.618C379.525 896.362 379.478 896.185 379.478 895.998C379.478 895.727 379.581 895.494 379.786 895.298C379.991 895.093 380.234 894.99 380.514 894.99C380.747 894.99 380.971 895.065 381.186 895.214V895.83C380.981 895.671 380.785 895.592 380.598 895.592C380.253 895.592 380.08 895.746 380.08 896.054C380.08 896.213 380.145 896.371 380.276 896.53H381.55L381.228 897.132H378.918ZM377.742 905V903.866H378.666C379.581 903.866 380.038 903.399 380.038 902.466V899.568L381.242 898.924V902.508C381.242 903.301 381.004 903.927 380.528 904.384C380.089 904.795 379.515 905 378.806 905H377.742ZM387.008 903.866H387.932V905H386.868C386.392 905 385.981 904.907 385.636 904.72C385.552 905.644 385.23 906.381 384.67 906.932C384.157 907.436 383.513 907.688 382.738 907.688C382.178 907.688 381.632 907.548 381.1 907.268V906.218C381.576 906.479 382.052 906.61 382.528 906.61C383.125 906.61 383.592 906.409 383.928 906.008C384.264 905.607 384.432 905.051 384.432 904.342V899.568L385.636 898.924V898.938L385.65 898.924V902.746C385.734 903.493 386.187 903.866 387.008 903.866ZM387.093 905V903.866H387.835C388.806 903.866 389.291 903.357 389.291 902.34V896.614L390.509 895.97V902.354C390.509 903.185 390.262 903.843 389.767 904.328C389.301 904.776 388.689 905 387.933 905H387.093ZM393.025 905V896.614L394.229 895.97V905H393.025Z" fill="#646464"/>
</g>
<rect width="412" height="146" fill="url(#paint1_linear_461_20348)"/>
<g clip-path="url(#clip8_461_20348)">
<rect width="412" height="146" fill="url(#paint2_linear_461_20348)"/>
<g clip-path="url(#clip9_461_20348)">
<mask id="mask0_461_20348" style="mask-type:alpha" maskUnits="userSpaceOnUse" x="0" y="0" width="412" height="343">
<rect width="412" height="342.784" fill="#133BB7"/>
</mask>
<g mask="url(#mask0_461_20348)">
<rect x="-63.6836" y="-10.2634" width="577.217" height="204.645" transform="rotate(-13.6691 -63.6836 -10.2634)" fill="url(#paint3_linear_461_20348)"/>
<rect x="70.748" y="-222.374" width="693.914" height="279.56" transform="rotate(28.2388 70.748 -222.374)" fill="url(#paint4_linear_461_20348)" fill-opacity="0.39"/>
</g>
</g>
</g>
<path d="M26.0781 25.7012H26.2148C26.8438 25.7012 27.3678 25.6191 27.7871 25.4551C28.2109 25.2865 28.5482 25.054 28.7988 24.7578C29.0495 24.4616 29.2295 24.113 29.3389 23.7119C29.4482 23.3109 29.5029 22.8757 29.5029 22.4062V20.6904C29.5029 20.2848 29.4596 19.9294 29.373 19.624C29.291 19.3141 29.1725 19.0566 29.0176 18.8516C28.8672 18.6419 28.6917 18.4847 28.4912 18.3799C28.2952 18.2751 28.0833 18.2227 27.8555 18.2227C27.6048 18.2227 27.3792 18.2796 27.1787 18.3936C26.9827 18.5029 26.8164 18.6556 26.6797 18.8516C26.5475 19.043 26.445 19.2686 26.3721 19.5283C26.3037 19.7835 26.2695 20.057 26.2695 20.3486C26.2695 20.6221 26.3014 20.8864 26.3652 21.1416C26.4336 21.3923 26.5339 21.6156 26.666 21.8115C26.7982 22.0075 26.9645 22.1624 27.165 22.2764C27.3656 22.3903 27.6003 22.4473 27.8691 22.4473C28.1243 22.4473 28.359 22.3994 28.5732 22.3037C28.7874 22.2035 28.9743 22.069 29.1338 21.9004C29.2933 21.7318 29.4186 21.5426 29.5098 21.333C29.6009 21.1234 29.651 20.9092 29.6602 20.6904L30.2891 20.8818C30.2891 21.2282 30.2161 21.57 30.0703 21.9072C29.929 22.2399 29.7308 22.5452 29.4756 22.8232C29.2249 23.0967 28.931 23.3154 28.5938 23.4795C28.2611 23.6436 27.8988 23.7256 27.5068 23.7256C27.0329 23.7256 26.6136 23.6367 26.249 23.459C25.889 23.2767 25.5882 23.0306 25.3467 22.7207C25.1097 22.4108 24.932 22.0553 24.8135 21.6543C24.695 21.2533 24.6357 20.8317 24.6357 20.3896C24.6357 19.9111 24.7087 19.4622 24.8545 19.043C25.0003 18.6237 25.2122 18.2546 25.4902 17.9355C25.7682 17.612 26.1055 17.3613 26.502 17.1836C26.903 17.0013 27.3564 16.9102 27.8623 16.9102C28.4001 16.9102 28.8717 17.015 29.2773 17.2246C29.6829 17.4342 30.0247 17.7236 30.3027 18.0928C30.5807 18.4619 30.7904 18.8903 30.9316 19.3779C31.0729 19.8656 31.1436 20.3896 31.1436 20.9502V21.5312C31.1436 22.1191 31.0911 22.6865 30.9863 23.2334C30.8815 23.7757 30.7106 24.2793 30.4736 24.7441C30.2412 25.2044 29.9336 25.61 29.5508 25.9609C29.1725 26.3073 28.7077 26.5785 28.1562 26.7744C27.6094 26.9658 26.9668 27.0615 26.2285 27.0615H26.0781V25.7012ZM33.1019 26.1797C33.1019 25.9245 33.1885 25.7103 33.3617 25.5371C33.5349 25.3594 33.7696 25.2705 34.0658 25.2705C34.3666 25.2705 34.6013 25.3594 34.7699 25.5371C34.9431 25.7103 35.0296 25.9245 35.0296 26.1797C35.0296 26.4349 34.9431 26.6491 34.7699 26.8223C34.6013 26.9954 34.3666 27.082 34.0658 27.082C33.7696 27.082 33.5349 26.9954 33.3617 26.8223C33.1885 26.6491 33.1019 26.4349 33.1019 26.1797ZM33.1088 20.3555C33.1088 20.1003 33.1953 19.8861 33.3685 19.7129C33.5417 19.5352 33.7764 19.4463 34.0726 19.4463C34.3734 19.4463 34.6081 19.5352 34.7767 19.7129C34.9499 19.8861 35.0365 20.1003 35.0365 20.3555C35.0365 20.6107 34.9499 20.8249 34.7767 20.998C34.6081 21.1712 34.3734 21.2578 34.0726 21.2578C33.7764 21.2578 33.5417 21.1712 33.3685 20.998C33.1953 20.8249 33.1088 20.6107 33.1088 20.3555ZM38.7517 21.2783H39.7361C40.1189 21.2783 40.4356 21.2122 40.6862 21.0801C40.9415 20.9479 41.1306 20.7656 41.2536 20.5332C41.3767 20.3008 41.4382 20.0342 41.4382 19.7334C41.4382 19.4189 41.3812 19.1501 41.2673 18.9268C41.1579 18.6989 40.9893 18.5234 40.7614 18.4004C40.5381 18.2773 40.2533 18.2158 39.907 18.2158C39.6153 18.2158 39.351 18.2751 39.114 18.3936C38.8816 18.5075 38.697 18.6715 38.5603 18.8857C38.4236 19.0954 38.3552 19.346 38.3552 19.6377H36.7009C36.7009 19.109 36.8399 18.6396 37.1179 18.2295C37.3959 17.8193 37.7741 17.498 38.2527 17.2656C38.7357 17.0286 39.278 16.9102 39.8796 16.9102C40.5222 16.9102 41.0827 17.0173 41.5612 17.2314C42.0443 17.4411 42.4203 17.7555 42.6892 18.1748C42.9581 18.5941 43.0925 19.1136 43.0925 19.7334C43.0925 20.016 43.0264 20.3031 42.8943 20.5947C42.7621 20.8864 42.5661 21.153 42.3064 21.3945C42.0466 21.6315 41.723 21.8252 41.3357 21.9756C40.9483 22.1214 40.4994 22.1943 39.989 22.1943H38.7517V21.2783ZM38.7517 22.5635V21.6611H39.989C40.5723 21.6611 41.0691 21.7295 41.4792 21.8662C41.8939 22.0029 42.2312 22.1921 42.4909 22.4336C42.7507 22.6706 42.9398 22.9417 43.0583 23.2471C43.1814 23.5524 43.2429 23.876 43.2429 24.2178C43.2429 24.6826 43.1586 25.0973 42.99 25.4619C42.8259 25.8219 42.5912 26.1273 42.2859 26.3779C41.9805 26.6286 41.6228 26.8177 41.2126 26.9453C40.807 27.0729 40.365 27.1367 39.8864 27.1367C39.4581 27.1367 39.0479 27.0775 38.656 26.959C38.264 26.8405 37.9131 26.665 37.6032 26.4326C37.2933 26.1956 37.0473 25.9017 36.865 25.5508C36.6872 25.1953 36.5984 24.7852 36.5984 24.3203H38.2458C38.2458 24.6165 38.3142 24.8786 38.4509 25.1064C38.5922 25.3298 38.7881 25.5052 39.0388 25.6328C39.294 25.7604 39.5857 25.8242 39.9138 25.8242C40.2601 25.8242 40.5586 25.7627 40.8093 25.6396C41.0599 25.5166 41.2514 25.3343 41.3835 25.0928C41.5202 24.8512 41.5886 24.5596 41.5886 24.2178C41.5886 23.8304 41.5134 23.516 41.363 23.2744C41.2126 23.0329 40.9984 22.8551 40.7204 22.7412C40.4424 22.6227 40.1143 22.5635 39.7361 22.5635H38.7517ZM51.5382 21.1895V22.8164C51.5382 23.5957 51.4607 24.2611 51.3057 24.8125C51.1554 25.3594 50.9366 25.8037 50.6495 26.1455C50.3624 26.4873 50.0183 26.738 49.6173 26.8975C49.2208 27.057 48.7764 27.1367 48.2843 27.1367C47.8923 27.1367 47.5277 27.0866 47.1905 26.9863C46.8578 26.8861 46.557 26.7288 46.2882 26.5146C46.0193 26.3005 45.7891 26.0247 45.5977 25.6875C45.4109 25.3457 45.2651 24.9378 45.1602 24.4639C45.06 23.9899 45.0098 23.4408 45.0098 22.8164V21.1895C45.0098 20.4056 45.0873 19.7448 45.2423 19.207C45.3972 18.6647 45.6182 18.2249 45.9054 17.8877C46.1925 17.5459 46.5343 17.2975 46.9307 17.1426C47.3318 16.9876 47.7784 16.9102 48.2706 16.9102C48.6671 16.9102 49.0317 16.9603 49.3643 17.0605C49.7016 17.1562 50.0024 17.3089 50.2667 17.5186C50.5356 17.7282 50.7634 18.0016 50.9503 18.3389C51.1417 18.6715 51.2875 19.0749 51.3878 19.5488C51.488 20.0182 51.5382 20.5651 51.5382 21.1895ZM49.8907 23.0488V20.9434C49.8907 20.5469 49.8679 20.1982 49.8223 19.8975C49.7768 19.5921 49.7084 19.3346 49.6173 19.125C49.5307 18.9108 49.4213 18.7376 49.2891 18.6055C49.157 18.4688 49.0066 18.3708 48.838 18.3115C48.6693 18.2477 48.4802 18.2158 48.2706 18.2158C48.0154 18.2158 47.7875 18.266 47.587 18.3662C47.3865 18.4619 47.2179 18.6169 47.0811 18.8311C46.9444 19.0452 46.8396 19.3278 46.7667 19.6787C46.6983 20.0251 46.6641 20.4466 46.6641 20.9434V23.0488C46.6641 23.4499 46.6869 23.8031 46.7325 24.1084C46.7781 24.4137 46.8464 24.6758 46.9376 24.8945C47.0287 25.1087 47.1381 25.2865 47.2657 25.4277C47.3979 25.5645 47.5483 25.6647 47.7169 25.7285C47.8901 25.7923 48.0792 25.8242 48.2843 25.8242C48.544 25.8242 48.7742 25.7741 48.9747 25.6738C49.1752 25.5736 49.3438 25.4141 49.4805 25.1953C49.6173 24.972 49.7198 24.6826 49.7882 24.3271C49.8565 23.9717 49.8907 23.5456 49.8907 23.0488Z" fill="white"/>
<path opacity="0.1" d="M350.5 16.4166C347.1 16.4166 344.125 17.9041 342 20.2416L350.5 30.5833L359 20.2416C356.875 17.9041 353.9 16.4166 350.5 16.4166Z" fill="white"/>
<path d="M373.584 16.4166L359.417 30.5833H373.584V16.4166Z" fill="white"/>
<path opacity="0.3" d="M385.5 16H382.5V17.5H381C380.448 17.5 380 18.0037 380 18.625V29.875C380 30.4963 380.448 31 381 31H387C387.552 31 388 30.4963 388 29.875V18.625C388 18.0037 387.552 17.5 387 17.5H385.5V16Z" fill="white"/>
<path d="M380 24C380 24.5833 380 29.3667 380 29.95C380 30.5299 380.448 31 381 31H387C387.552 31 388 30.5299 388 29.95C388 29.3667 388 24.5833 388 24H380Z" fill="white"/>
<g filter="url(#filter1_ddd_461_20348)">
<path d="M59.3361 91.7215C59.7161 91.7215 60.0448 91.5811 60.3267 91.3014C60.6076 91.0206 60.7468 90.6829 60.7468 90.2862C60.7468 89.8895 60.6076 89.5764 60.3267 89.2956C60.0459 89.0148 59.7161 88.8755 59.3361 88.8755C58.9561 88.8755 58.6018 89.0159 58.321 89.2956C58.0402 89.5764 57.9009 89.9062 57.9009 90.2862C57.9009 90.6662 58.0402 91.0206 58.321 91.3014C58.6007 91.5811 58.9394 91.7215 59.3361 91.7215Z" fill="#242424"/>
<path d="M59.3361 95.6327C59.7161 95.6327 60.0448 95.4923 60.3267 95.2115C60.6076 94.9307 60.7468 94.5931 60.7468 94.1964C60.7468 93.7997 60.6076 93.4865 60.3267 93.2057C60.0459 92.9249 59.7161 92.7845 59.3361 92.7845C58.9561 92.7845 58.6018 92.9249 58.321 93.2057C58.0402 93.4865 57.9009 93.8164 57.9009 94.1964C57.9009 94.5763 58.0402 94.9307 58.321 95.2115C58.6007 95.4923 58.9394 95.6327 59.3361 95.6327Z" fill="#242424"/>
<path d="M47.131 97.4613C47.1076 97.3911 47.0686 97.312 47.0207 97.2496L42.6983 91.1509C42.5178 90.8757 42.4309 90.5693 42.4309 90.2394C42.4309 89.9408 42.5178 89.65 42.6983 89.3747L48.827 81.4698C49.2672 80.8569 48.827 80 48.0726 80C47.7662 80 47.4832 80.1493 47.3104 80.3934L41.1661 88.2816C40.7572 88.8399 40.5454 89.4917 40.5454 90.2383C40.5454 90.9849 40.7572 91.6535 41.1661 92.2184L44.8757 97.4602H30.8866C30.462 97.4602 30.1166 97.1147 30.1166 96.6902V93.2949C30.1166 91.4641 29.4803 89.923 28.1989 88.6582C26.9096 87.369 25.3618 86.7171 23.5466 86.7171C21.7314 86.7171 20.1903 87.369 18.9177 88.6582C17.6363 89.9319 17 91.4797 17 93.2949C17 95.1101 17.6363 96.6512 18.9177 97.9237C20.1914 99.2208 21.7392 99.8649 23.5466 99.8649C25.2125 99.8649 26.6511 99.3144 27.8768 98.2224C28.1052 98.0185 28.3248 97.7978 28.5365 97.5549C28.5599 97.5159 28.5989 97.5081 28.6468 97.5159C28.7014 97.5705 28.7259 97.595 28.7259 97.6106V98.2625C28.7259 98.5611 28.8362 98.8208 29.048 99.0325C29.2597 99.2442 29.5115 99.3467 29.818 99.3467H62.4573C62.9755 99.3467 63.4 98.9222 63.4 98.404C63.4 97.8858 62.9755 97.4613 62.4573 97.4613H47.131ZM27.2004 96.942C26.2254 97.9483 25.0153 98.4508 23.5455 98.4508C22.0757 98.4508 20.889 97.9483 19.8827 96.942C18.8765 95.9124 18.3739 94.6945 18.3739 93.2949C18.3739 91.8953 18.8765 90.6384 19.8827 89.6243C20.8488 88.6582 22.02 88.1545 23.3884 88.1155C24.8581 88.0843 26.3045 88.6816 27.3174 89.7502C28.2523 90.7409 28.7248 91.9198 28.7248 93.2949C28.7248 94.6699 28.2145 95.9202 27.2004 96.942Z" fill="#242424"/>
<g filter="url(#filter2_d_461_20348)">
<g clip-path="url(#clip10_461_20348)">
<rect x="352" y="70" width="40" height="40" rx="20" fill="white"/>
<path fill-rule="evenodd" clip-rule="evenodd" d="M363 86V84H381V86H363ZM363 91H381V89H363V91ZM363 96H381V94H363V96Z" fill="#242424"/>
</g>
</g>
</g>
</g>
<defs>
<filter id="filter0_f_461_20348" x="-152.181" y="427.819" width="716.362" height="716.362" filterUnits="userSpaceOnUse" color-interpolation-filters="sRGB">
<feFlood flood-opacity="0" result="BackgroundImageFix"/>
<feBlend mode="normal" in="SourceGraphic" in2="BackgroundImageFix" result="shape"/>
<feGaussianBlur stdDeviation="107.091" result="effect1_foregroundBlur_461_20348"/>
</filter>
<filter id="filter1_ddd_461_20348" x="-12" y="55" width="436" height="99" filterUnits="userSpaceOnUse" color-interpolation-filters="sRGB">
<feFlood flood-opacity="0" result="BackgroundImageFix"/>
<feColorMatrix in="SourceAlpha" type="matrix" values="0 0 0 0 0 0 0 0 0 0 0 0 0 0 0 0 0 0 127 0" result="hardAlpha"/>
<feOffset dy="2"/>
<feGaussianBlur stdDeviation="2.5"/>
<feComposite in2="hardAlpha" operator="out"/>
<feColorMatrix type="matrix" values="0 0 0 0 0 0 0 0 0 0 0 0 0 0 0 0 0 0 0.02 0"/>
<feBlend mode="normal" in2="BackgroundImageFix" result="effect1_dropShadow_461_20348"/>
<feColorMatrix in="SourceAlpha" type="matrix" values="0 0 0 0 0 0 0 0 0 0 0 0 0 0 0 0 0 0 127 0" result="hardAlpha"/>
<feOffset dy="9"/>
<feGaussianBlur stdDeviation="4.5"/>
<feComposite in2="hardAlpha" operator="out"/>
<feColorMatrix type="matrix" values="0 0 0 0 0 0 0 0 0 0 0 0 0 0 0 0 0 0 0.02 0"/>
<feBlend mode="normal" in2="effect1_dropShadow_461_20348" result="effect2_dropShadow_461_20348"/>
<feColorMatrix in="SourceAlpha" type="matrix" values="0 0 0 0 0 0 0 0 0 0 0 0 0 0 0 0 0 0 127 0" result="hardAlpha"/>
<feOffset dy="20"/>
<feGaussianBlur stdDeviation="6"/>
<feComposite in2="hardAlpha" operator="out"/>
<feColorMatrix type="matrix" values="0 0 0 0 0 0 0 0 0 0 0 0 0 0 0 0 0 0 0.01 0"/>
<feBlend mode="normal" in2="effect2_dropShadow_461_20348" result="effect3_dropShadow_461_20348"/>
<feBlend mode="normal" in="SourceGraphic" in2="effect3_dropShadow_461_20348" result="shape"/>
</filter>
<filter id="filter2_d_461_20348" x="348" y="70" width="48" height="48" filterUnits="userSpaceOnUse" color-interpolation-filters="sRGB">
<feFlood flood-opacity="0" result="BackgroundImageFix"/>
<feColorMatrix in="SourceAlpha" type="matrix" values="0 0 0 0 0 0 0 0 0 0 0 0 0 0 0 0 0 0 127 0" result="hardAlpha"/>
<feOffset dy="4"/>
<feGaussianBlur stdDeviation="2"/>
<feComposite in2="hardAlpha" operator="out"/>
<feColorMatrix type="matrix" values="0 0 0 0 0.141176 0 0 0 0 0.141176 0 0 0 0 0.141176 0 0 0 0.25 0"/>
<feBlend mode="normal" in2="BackgroundImageFix" result="effect1_dropShadow_461_20348"/>
<feBlend mode="normal" in="SourceGraphic" in2="effect1_dropShadow_461_20348" result="shape"/>
</filter>
<linearGradient id="paint0_linear_461_20348" x1="206" y1="642" x2="206" y2="930" gradientUnits="userSpaceOnUse">
<stop stop-color="#F1E00C"/>
<stop offset="1" stop-color="#FAF194"/>
</linearGradient>
<linearGradient id="paint1_linear_461_20348" x1="206" y1="0" x2="206" y2="146" gradientUnits="userSpaceOnUse">
<stop stop-color="#14294E"/>
<stop offset="1" stop-color="#2FBCAF"/>
</linearGradient>
<linearGradient id="paint2_linear_461_20348" x1="206" y1="0" x2="206" y2="146" gradientUnits="userSpaceOnUse">
<stop stop-color="#F1E00C"/>
<stop offset="1" stop-color="#FAF194"/>
</linearGradient>
<linearGradient id="paint3_linear_461_20348" x1="303.125" y1="348.878" x2="96.5947" y2="-264.104" gradientUnits="userSpaceOnUse">
<stop stop-color="white"/>
<stop offset="0.40911" stop-color="white" stop-opacity="0"/>
</linearGradient>
<linearGradient id="paint4_linear_461_20348" x1="511.716" y1="268.238" x2="504.116" y2="-536.827" gradientUnits="userSpaceOnUse">
<stop offset="0.262075" stop-color="white"/>
<stop offset="0.426686" stop-color="white" stop-opacity="0"/>
</linearGradient>
<clipPath id="clip0_461_20348">
<rect width="412" height="917" fill="white"/>
</clipPath>
<clipPath id="clip1_461_20348">
<rect x="138" y="549" width="136" height="56" rx="28" fill="white"/>
</clipPath>
<clipPath id="clip2_461_20348">
<rect width="412" height="64" fill="white" transform="translate(0 853)"/>
</clipPath>
<clipPath id="clip3_461_20348">
<rect x="13.2002" y="857" width="56" height="32" rx="16" fill="white"/>
</clipPath>
<clipPath id="clip4_461_20348">
<rect x="95.6006" y="857" width="56" height="32" rx="16" fill="white"/>
</clipPath>
<clipPath id="clip5_461_20348">
<rect x="178" y="857" width="56" height="32" rx="16" fill="white"/>
</clipPath>
<clipPath id="clip6_461_20348">
<rect x="260.4" y="857" width="56" height="32" rx="16" fill="white"/>
</clipPath>
<clipPath id="clip7_461_20348">
<rect x="342.8" y="857" width="56" height="32" rx="16" fill="white"/>
</clipPath>
<clipPath id="clip8_461_20348">
<rect width="412" height="146" fill="white"/>
</clipPath>
<clipPath id="clip9_461_20348">
<rect width="412" height="266" fill="white"/>
</clipPath>
<clipPath id="clip10_461_20348">
<rect x="352" y="70" width="40" height="40" rx="20" fill="white"/>
</clipPath>
</defs>
</svg>
