<svg width="412" height="917" viewBox="0 0 412 917" fill="none" xmlns="http://www.w3.org/2000/svg">
<g clip-path="url(#clip0_461_20312)">
<rect width="412" height="917" fill="white"/>
<path fill-rule="evenodd" clip-rule="evenodd" d="M205.773 329C203.084 329 200.608 329.667 197.902 330.787C195.284 331.871 192.244 333.467 188.462 335.453L179.271 340.276C174.626 342.711 170.915 344.662 168.04 346.578C165.071 348.564 162.777 350.653 161.111 353.484C159.448 356.307 158.702 359.364 158.342 363.004C157.995 366.538 157.995 370.88 157.995 376.347V377.209C157.995 382.676 157.995 387.018 158.342 390.551C158.702 394.196 159.453 397.249 161.111 400.071C162.777 402.902 165.066 404.991 168.044 406.978C170.911 408.893 174.626 410.844 179.271 413.28L188.462 418.102C192.244 420.089 195.284 421.684 197.902 422.769C200.613 423.889 203.084 424.556 205.773 424.556C208.462 424.556 210.937 423.889 213.644 422.769C216.262 421.684 219.302 420.089 223.084 418.102L232.275 413.284C236.92 410.844 240.631 408.893 243.502 406.978C246.48 404.991 248.768 402.902 250.435 400.071C252.097 397.249 252.844 394.191 253.204 390.551C253.551 387.018 253.551 382.676 253.551 377.213V376.342C253.551 370.88 253.551 366.538 253.204 363.004C252.844 359.36 252.093 356.307 250.435 353.484C248.768 350.653 246.48 348.564 243.502 346.578C240.635 344.662 236.92 342.711 232.275 340.276L223.084 335.453C219.302 333.467 216.262 331.871 213.644 330.787C210.933 329.667 208.462 329 205.773 329ZM191.417 341.427C195.373 339.351 198.146 337.902 200.448 336.951C202.688 336.022 204.266 335.667 205.773 335.667C207.284 335.667 208.857 336.022 211.097 336.951C213.4 337.902 216.168 339.351 220.124 341.427L229.013 346.093C233.857 348.631 237.257 350.422 239.804 352.12C241.057 352.96 242.04 353.738 242.84 354.52L228.035 361.92L190.257 342.036L191.417 341.427ZM183.306 345.684L182.533 346.093C177.688 348.631 174.288 350.422 171.746 352.12C170.662 352.824 169.646 353.628 168.711 354.52L205.773 373.053L220.693 365.587L184.222 346.396C183.88 346.21 183.57 345.97 183.306 345.684ZM165.497 360.364C165.275 361.316 165.102 362.396 164.977 363.653C164.666 366.827 164.662 370.84 164.662 376.516V377.036C164.662 382.716 164.662 386.729 164.977 389.898C165.284 392.996 165.866 395 166.857 396.689C167.844 398.364 169.271 399.782 171.746 401.436C174.288 403.133 177.688 404.924 182.533 407.462L191.422 412.129C195.377 414.204 198.146 415.653 200.448 416.604C201.171 416.904 201.835 417.148 202.44 417.338V378.836L165.497 360.364ZM209.106 417.333C209.711 417.147 210.374 416.904 211.097 416.604C213.4 415.653 216.168 414.204 220.124 412.129L229.013 407.462C233.857 404.92 237.257 403.133 239.804 401.436C242.275 399.782 243.702 398.364 244.693 396.689C245.684 395 246.262 393 246.568 389.898C246.88 386.729 246.884 382.716 246.884 377.04V376.52C246.884 370.84 246.884 366.827 246.568 363.658C246.464 362.552 246.29 361.453 246.048 360.369L231.328 367.724V381.222C231.328 382.106 230.977 382.954 230.352 383.579C229.727 384.204 228.879 384.556 227.995 384.556C227.111 384.556 226.263 384.204 225.638 383.579C225.013 382.954 224.662 382.106 224.662 381.222V371.062L209.106 378.84V417.333Z" fill="#EAEAEA"/>
<path d="M103.434 468.44C102.954 468.44 102.57 468.296 102.282 468.008C101.994 467.72 101.85 467.328 101.85 466.832C101.85 465.792 102.378 465.272 103.434 465.272C103.914 465.272 104.29 465.416 104.562 465.704C104.85 465.976 104.994 466.352 104.994 466.832C104.994 467.904 104.474 468.44 103.434 468.44ZM107.13 468.44C106.65 468.44 106.266 468.296 105.978 468.008C105.69 467.72 105.546 467.328 105.546 466.832C105.546 465.792 106.074 465.272 107.13 465.272C107.61 465.272 107.986 465.416 108.258 465.704C108.546 465.976 108.69 466.352 108.69 466.832C108.69 467.904 108.17 468.44 107.13 468.44ZM111.186 479.096H113.346V482H110.898C109.41 482 108.258 481.504 107.442 480.512C106.754 481.04 105.914 481.304 104.922 481.304C103.45 481.304 102.274 480.752 101.394 479.648C100.674 478.736 100.314 477.64 100.314 476.36C100.314 474.776 100.826 473.488 101.85 472.496C102.714 471.664 103.714 471.248 104.85 471.248C105.442 471.248 105.986 471.36 106.482 471.584V470.96L109.482 469.376V477.368C109.482 477.992 109.61 478.44 109.866 478.712C110.138 478.968 110.578 479.096 111.186 479.096ZM106.482 474.608C106.066 474.256 105.594 474.08 105.066 474.08C104.538 474.08 104.106 474.296 103.77 474.728C103.45 475.16 103.29 475.728 103.29 476.432C103.29 477.136 103.45 477.696 103.77 478.112C104.09 478.528 104.53 478.736 105.09 478.736C105.698 478.736 106.17 478.528 106.506 478.112C106.49 477.984 106.482 477.784 106.482 477.512V474.608ZM119.873 468.92C119.393 468.92 119.009 468.776 118.721 468.488C118.433 468.2 118.289 467.808 118.289 467.312C118.289 466.848 118.433 466.472 118.721 466.184C119.009 465.896 119.393 465.752 119.873 465.752C120.353 465.752 120.729 465.896 121.001 466.184C121.289 466.456 121.433 466.832 121.433 467.312C121.433 468.384 120.913 468.92 119.873 468.92ZM125.201 479.096V482H111.905V479.096H115.457C115.009 478.216 114.785 477.24 114.785 476.168C114.785 474.472 115.377 473.128 116.561 472.136C117.521 471.336 118.633 470.936 119.897 470.936C121.609 470.936 122.993 471.672 124.049 473.144V475.808C122.881 474.432 121.609 473.744 120.233 473.744C119.497 473.744 118.905 473.976 118.457 474.44C118.025 474.888 117.809 475.496 117.809 476.264C117.809 477.144 118.081 477.84 118.625 478.352C119.185 478.848 119.945 479.096 120.905 479.096H125.201ZM132.886 480.512C132.886 482.368 132.374 483.872 131.35 485.024C130.406 486.096 129.158 486.632 127.606 486.632C126.598 486.632 125.614 486.376 124.654 485.864V483.224C125.486 483.688 126.302 483.92 127.102 483.92C127.982 483.92 128.662 483.632 129.142 483.056C129.638 482.496 129.886 481.712 129.886 480.704V472.952L132.886 471.344V480.512ZM141.631 482C140.175 482 139.047 481.536 138.247 480.608C137.559 479.808 137.215 478.776 137.215 477.512V468.104L140.239 466.52V477.368C140.239 477.992 140.367 478.44 140.623 478.712C140.879 478.968 141.311 479.096 141.919 479.096H144.079V482H141.631ZM150.552 469.208C150.072 469.208 149.688 469.064 149.4 468.776C149.112 468.488 148.968 468.096 148.968 467.6C148.968 467.136 149.112 466.76 149.4 466.472C149.688 466.184 150.072 466.04 150.552 466.04C151.032 466.04 151.408 466.184 151.68 466.472C151.968 466.744 152.112 467.12 152.112 467.6C152.112 468.672 151.592 469.208 150.552 469.208ZM142.632 482V479.096H146.496C146 478.408 145.752 477.528 145.752 476.456C145.752 474.696 146.232 473.304 147.192 472.28C148.056 471.384 149.184 470.936 150.576 470.936C152 470.936 153.104 471.392 153.888 472.304C154.592 473.088 154.944 474.112 154.944 475.376V477.536C154.928 478.912 154.52 480 153.72 480.8C152.936 481.6 151.872 482 150.528 482H142.632ZM151.92 475.328C151.92 474.272 151.472 473.744 150.576 473.744C149.344 473.744 148.728 474.616 148.728 476.36C148.728 478.184 149.32 479.096 150.504 479.096C151.448 479.096 151.92 478.584 151.92 477.56V475.328ZM171.329 470.84C170.849 470.84 170.465 470.696 170.177 470.408C169.889 470.104 169.745 469.712 169.745 469.232C169.745 468.768 169.889 468.392 170.177 468.104C170.465 467.816 170.849 467.672 171.329 467.672C171.809 467.672 172.185 467.816 172.457 468.104C172.745 468.376 172.889 468.752 172.889 469.232C172.889 470.304 172.369 470.84 171.329 470.84ZM175.025 470.84C174.545 470.84 174.161 470.696 173.873 470.408C173.585 470.12 173.441 469.728 173.441 469.232C173.441 468.192 173.969 467.672 175.025 467.672C175.505 467.672 175.881 467.816 176.153 468.104C176.441 468.376 176.585 468.752 176.585 469.232C176.585 470.304 176.065 470.84 175.025 470.84ZM169.025 482C167.665 482 166.601 481.544 165.833 480.632C165.145 479.832 164.801 478.8 164.801 477.536V475.088L167.801 473.504V477.344C167.801 477.984 167.929 478.44 168.185 478.712C168.457 478.968 168.897 479.096 169.505 479.096H177.329C177.937 479.096 178.369 478.96 178.625 478.688C178.881 478.416 179.009 477.968 179.009 477.344V472.928L182.033 471.344V477.536C182.033 478.992 181.577 480.128 180.665 480.944C179.865 481.648 178.841 482 177.593 482H169.025ZM190.779 482C189.323 482 188.195 481.536 187.395 480.608C186.707 479.808 186.363 478.776 186.363 477.512V468.104L189.387 466.52V477.368C189.387 477.992 189.515 478.44 189.771 478.712C190.027 478.968 190.459 479.096 191.067 479.096H193.227V482H190.779ZM200.324 479.096H202.484V482H200.036C198.868 482 197.9 481.688 197.132 481.064C196.364 481.688 195.396 482 194.228 482H191.78V479.096H193.94C194.548 479.096 194.98 478.968 195.236 478.712C195.492 478.44 195.62 477.992 195.62 477.368V472.928L198.644 471.344V477.368C198.644 477.992 198.772 478.44 199.028 478.712C199.284 478.968 199.716 479.096 200.324 479.096ZM197.276 484.184C197.756 484.184 198.132 484.32 198.404 484.592C198.692 484.88 198.836 485.264 198.836 485.744C198.836 486.816 198.316 487.352 197.276 487.352C196.796 487.352 196.412 487.208 196.124 486.92C195.836 486.632 195.692 486.24 195.692 485.744C195.692 485.28 195.836 484.904 196.124 484.616C196.412 484.328 196.796 484.184 197.276 484.184ZM209.294 479.096H211.454V482H209.006C207.758 482 206.742 481.648 205.958 480.944C205.078 481.648 203.998 482 202.718 482H201.038V479.096H202.55C203.286 479.096 203.806 478.936 204.11 478.616C204.43 478.296 204.59 477.752 204.59 476.984V468.128L207.59 466.52V471.368L207.614 471.344V477.368C207.614 477.992 207.742 478.44 207.998 478.712C208.254 478.968 208.686 479.096 209.294 479.096ZM230.918 479.096H233.078V482H230.63C229.478 482 228.534 481.704 227.798 481.112C227.062 481.704 226.142 482 225.038 482H210.014V479.096H214.31L214.598 478.28V468.128L217.622 466.52V473.432C219.254 471.768 221.126 470.936 223.238 470.936C225.142 470.936 226.654 471.592 227.774 472.904C228.734 474.008 229.214 475.376 229.214 477.008V477.512C229.214 478.568 229.782 479.096 230.918 479.096ZM224.918 479.096C225.446 479.096 225.79 478.992 225.95 478.784C226.126 478.576 226.214 478.136 226.214 477.464V477.008C226.214 476.048 225.934 475.264 225.374 474.656C224.83 474.048 224.126 473.744 223.262 473.744C222.158 473.744 221.102 474.152 220.094 474.968C219.102 475.784 218.278 476.912 217.622 478.352V479.096H224.918ZM231.647 482V479.096H233.159C233.895 479.096 234.415 478.936 234.719 478.616C235.039 478.296 235.199 477.752 235.199 476.984V468.128L238.199 466.52V477.008C238.199 478.56 237.727 479.8 236.783 480.728C235.919 481.576 234.767 482 233.327 482H231.647ZM242.519 482V468.128L245.543 466.52V482H242.519ZM257.301 468.44C256.821 468.44 256.437 468.296 256.149 468.008C255.861 467.72 255.717 467.328 255.717 466.832C255.717 465.792 256.245 465.272 257.301 465.272C257.781 465.272 258.157 465.416 258.429 465.704C258.717 465.976 258.861 466.352 258.861 466.832C258.861 467.904 258.341 468.44 257.301 468.44ZM260.997 468.44C260.517 468.44 260.133 468.296 259.845 468.008C259.557 467.72 259.413 467.328 259.413 466.832C259.413 465.792 259.941 465.272 260.997 465.272C261.477 465.272 261.853 465.416 262.125 465.704C262.413 465.976 262.557 466.352 262.557 466.832C262.557 467.904 262.037 468.44 260.997 468.44ZM265.053 479.096H267.213V482H264.765C263.277 482 262.125 481.504 261.309 480.512C260.621 481.04 259.781 481.304 258.789 481.304C257.317 481.304 256.141 480.752 255.261 479.648C254.541 478.736 254.181 477.64 254.181 476.36C254.181 474.776 254.693 473.488 255.717 472.496C256.581 471.664 257.581 471.248 258.717 471.248C259.309 471.248 259.853 471.36 260.349 471.584V470.96L263.349 469.376V477.368C263.349 477.992 263.477 478.44 263.733 478.712C264.005 478.968 264.445 479.096 265.053 479.096ZM260.349 474.608C259.933 474.256 259.461 474.08 258.933 474.08C258.405 474.08 257.973 474.296 257.637 474.728C257.317 475.16 257.157 475.728 257.157 476.432C257.157 477.136 257.317 477.696 257.637 478.112C257.957 478.528 258.397 478.736 258.957 478.736C259.565 478.736 260.037 478.528 260.373 478.112C260.357 477.984 260.349 477.784 260.349 477.512V474.608ZM281.036 479.096H283.172V482H280.724C279.572 482 278.628 481.704 277.892 481.112C277.028 482.024 275.892 482.48 274.484 482.48C273.044 482.48 271.908 482.024 271.076 481.112C270.308 481.704 269.356 482 268.22 482H265.772V479.096H267.932C268.54 479.096 268.972 478.968 269.228 478.712C269.484 478.44 269.612 477.992 269.612 477.368V476.672C269.612 474.8 270.1 473.344 271.076 472.304C271.924 471.392 273.06 470.936 274.484 470.936C276.1 470.936 277.348 471.528 278.228 472.712C278.964 473.72 279.332 475.04 279.332 476.672V477.368C279.332 477.992 279.46 478.44 279.716 478.712C279.988 478.968 280.428 479.096 281.036 479.096ZM274.484 479.576C275.7 479.576 276.308 478.584 276.308 476.6C276.308 474.696 275.7 473.744 274.484 473.744C273.252 473.744 272.636 474.696 272.636 476.6C272.636 478.584 273.252 479.576 274.484 479.576ZM283.821 468.464L284.565 467.072H285.285C285.109 466.752 285.021 466.424 285.021 466.088C285.021 465.576 285.205 465.136 285.573 464.768C285.957 464.4 286.413 464.216 286.941 464.216C287.421 464.216 287.869 464.384 288.285 464.72V466.112C287.901 465.776 287.517 465.608 287.133 465.608C286.605 465.608 286.341 465.848 286.341 466.328C286.341 466.568 286.445 466.816 286.653 467.072H289.029L288.285 468.464H283.821ZM281.733 482V479.096H283.893C284.501 479.096 284.933 478.968 285.189 478.712C285.445 478.44 285.573 477.992 285.573 477.368V472.928L288.597 471.344V477.512C288.597 478.968 288.149 480.104 287.253 480.92C286.469 481.64 285.445 482 284.181 482H281.733ZM297.162 482C295.706 482 294.578 481.536 293.778 480.608C293.09 479.808 292.746 478.776 292.746 477.512V468.104L295.77 466.52V477.368C295.77 477.992 295.898 478.44 296.154 478.712C296.41 478.968 296.842 479.096 297.45 479.096H299.61V482H297.162ZM304.283 469.232C303.803 469.232 303.419 469.088 303.131 468.8C302.843 468.512 302.699 468.12 302.699 467.624C302.699 466.584 303.227 466.064 304.283 466.064C304.763 466.064 305.139 466.208 305.411 466.496C305.699 466.768 305.843 467.144 305.843 467.624C305.843 468.696 305.323 469.232 304.283 469.232ZM307.979 469.232C307.499 469.232 307.115 469.088 306.827 468.8C306.539 468.512 306.395 468.12 306.395 467.624C306.395 466.584 306.923 466.064 307.979 466.064C308.459 466.064 308.835 466.208 309.107 466.496C309.395 466.768 309.539 467.144 309.539 467.624C309.539 468.696 309.019 469.232 307.979 469.232ZM298.163 482V479.096H302.003C301.523 478.392 301.283 477.512 301.283 476.456C301.283 474.696 301.763 473.304 302.723 472.28C303.587 471.384 304.715 470.936 306.107 470.936C307.531 470.936 308.635 471.392 309.419 472.304C310.123 473.088 310.475 474.112 310.475 475.376V477.536C310.459 478.912 310.051 480 309.251 480.8C308.467 481.6 307.403 482 306.059 482H298.163ZM307.451 475.328C307.451 474.272 307.003 473.744 306.107 473.744C304.875 473.744 304.259 474.616 304.259 476.36C304.259 478.184 304.851 479.096 306.035 479.096C306.979 479.096 307.451 478.584 307.451 477.56V475.328Z" fill="#A4A4A4"/>
<path d="M64.0038 513.704H65.0598V515H63.8438C62.9478 515 62.2544 514.723 61.7638 514.168C61.2411 514.723 60.5424 515 59.6678 515H53.9557C53.0918 515 52.4144 514.712 51.9238 514.136C51.4971 513.635 51.2838 512.979 51.2838 512.168V510.232L52.6598 509.496V512.04C52.6598 513.149 53.1771 513.704 54.2118 513.704H59.5238C60.5478 513.704 61.0598 513.149 61.0598 512.04V505.416L62.4518 504.68V512.104C62.4518 513.171 62.9691 513.704 64.0038 513.704ZM56.9478 507.208C57.8651 507.251 58.3238 507.704 58.3238 508.568C58.3238 508.941 58.2118 509.24 57.9878 509.464C57.7744 509.688 57.4864 509.8 57.1238 509.8H55.0118L55.3798 509.112H57.0598C57.4438 509.112 57.6358 508.92 57.6358 508.536C57.6358 508.067 57.3371 507.832 56.7398 507.832C56.4304 507.832 56.1478 507.907 55.8918 508.056V507.416L57.2358 505.928H58.0838L56.9478 507.208ZM64.0981 515V513.704H64.9461C66.0555 513.704 66.6101 513.123 66.6101 511.96V505.416L68.0021 504.68V511.976C68.0021 512.925 67.7195 513.677 67.1541 514.232C66.6208 514.744 65.9221 515 65.0581 515H64.0981ZM87.3479 513.704H88.0839V515H87.1879C86.2919 515 85.5932 514.723 85.0919 514.168C84.5905 514.723 83.8919 515 82.9959 515H77.2839C76.4199 515 75.7425 514.712 75.2519 514.136C74.8252 513.635 74.6119 512.979 74.6119 512.168V510.232L75.9879 509.496V512.04C75.9879 513.149 76.5052 513.704 77.5399 513.704H82.8519C83.8865 513.704 84.4039 513.149 84.4039 512.04V508.792L85.7799 508.056V512.104C85.7799 513.171 86.3025 513.704 87.3479 513.704ZM79.6199 516.6C80.1319 516.6 80.3879 516.861 80.3879 517.384C80.3879 517.917 80.1319 518.184 79.6199 518.184C79.0972 518.184 78.8359 517.917 78.8359 517.384C78.8359 516.861 79.0972 516.6 79.6199 516.6ZM92.5854 513.704H93.6414V515H92.4254C91.508 515 90.7987 514.707 90.2974 514.12C89.764 514.707 89.028 515 88.0894 515H87.1294V513.704H87.9774C89.0867 513.704 89.6414 513.123 89.6414 511.96V505.416L91.0334 504.68V511.976C91.0334 512.595 91.1507 513.037 91.3854 513.304C91.6307 513.571 92.0307 513.704 92.5854 513.704ZM97.0763 510.536C98.2923 508.744 99.8016 507.848 101.604 507.848C102.81 507.848 103.775 508.269 104.5 509.112C105.119 509.827 105.428 510.707 105.428 511.752V512.264C105.428 513.139 105.215 513.816 104.788 514.296C104.362 514.765 103.754 515 102.964 515H92.6762V513.704H95.6523L95.7003 513.528V505.416L97.0763 504.68V510.536ZM104.036 512.2V511.752C104.036 510.92 103.78 510.259 103.268 509.768C102.831 509.341 102.282 509.128 101.62 509.128C100.522 509.128 99.5296 509.624 98.6443 510.616C97.9829 511.363 97.4603 512.296 97.0763 513.416V513.704H102.852C103.311 513.704 103.62 513.597 103.78 513.384C103.951 513.171 104.036 512.776 104.036 512.2ZM119.913 513.992C119.913 515.261 119.471 516.275 118.585 517.032C117.807 517.704 116.815 518.04 115.609 518.04C114.18 518.04 113.076 517.56 112.297 516.6C111.7 515.853 111.401 514.963 111.401 513.928C111.401 513.021 111.62 512.248 112.057 511.608L113.433 511.304C112.943 512.061 112.697 512.888 112.697 513.784C112.697 514.669 112.98 515.395 113.545 515.96C114.068 516.483 114.756 516.744 115.609 516.744C116.58 516.744 117.327 516.456 117.849 515.88C118.297 515.389 118.521 514.76 118.521 513.992V505.416L119.913 504.68V513.992ZM126.735 514.488C126.33 514.648 125.834 514.728 125.247 514.728C124.298 514.728 123.551 514.371 123.007 513.656C122.549 513.048 122.319 512.285 122.319 511.368C122.319 510.237 122.623 509.352 123.231 508.712C123.775 508.136 124.49 507.848 125.375 507.848C126.282 507.848 126.981 508.131 127.471 508.696C127.909 509.197 128.127 509.853 128.127 510.664V514.152C128.127 515.357 127.813 516.312 127.183 517.016C126.586 517.677 125.791 518.008 124.799 518.008C124.138 518.008 123.514 517.853 122.927 517.544V516.328C123.493 516.627 124.053 516.776 124.607 516.776C125.237 516.776 125.738 516.573 126.111 516.168C126.485 515.773 126.693 515.213 126.735 514.488ZM126.735 510.728C126.735 509.661 126.282 509.128 125.375 509.128C124.842 509.128 124.421 509.325 124.111 509.72C123.813 510.115 123.663 510.653 123.663 511.336C123.663 512.008 123.807 512.547 124.095 512.952C124.394 513.347 124.794 513.544 125.295 513.544C125.999 513.544 126.479 513.347 126.735 512.952V510.728ZM129.998 504.456L130.366 503.768H130.798C130.692 503.576 130.638 503.373 130.638 503.16C130.638 502.851 130.756 502.584 130.99 502.36C131.225 502.125 131.497 502.008 131.806 502.008C132.073 502.008 132.329 502.093 132.574 502.264V502.968C132.35 502.787 132.126 502.696 131.902 502.696C131.508 502.696 131.31 502.877 131.31 503.24C131.31 503.411 131.39 503.587 131.55 503.768H133.006L132.638 504.456H129.998ZM133.63 515C132.702 515 131.988 514.701 131.486 514.104C131.06 513.592 130.846 512.941 130.846 512.152V506.056L132.222 505.32V512.104C132.222 513.171 132.745 513.704 133.79 513.704H134.846V515H133.63ZM133.879 515V513.704H134.935C135.981 513.704 136.503 513.171 136.503 512.104V508.792L137.879 508.056V512.152C137.879 513.059 137.607 513.773 137.063 514.296C136.562 514.765 135.906 515 135.095 515H133.879ZM136.455 518.184C135.933 518.184 135.671 517.917 135.671 517.384C135.671 516.861 135.933 516.6 136.455 516.6C136.967 516.6 137.223 516.861 137.223 517.384C137.223 517.917 136.967 518.184 136.455 518.184ZM143.639 504.456L144.007 503.768H144.439C144.332 503.576 144.279 503.379 144.279 503.176C144.279 502.856 144.396 502.584 144.631 502.36C144.866 502.125 145.143 502.008 145.463 502.008C145.73 502.008 145.986 502.093 146.231 502.264V502.968C145.996 502.787 145.772 502.696 145.559 502.696C145.164 502.696 144.967 502.872 144.967 503.224C144.967 503.405 145.042 503.587 145.191 503.768H146.647L146.279 504.456H143.639ZM144.487 515V506.056L145.863 505.32V515H144.487ZM147.457 515L148.129 513.704H150.977C151.404 513.704 151.702 513.597 151.873 513.384C152.054 513.171 152.145 512.803 152.145 512.28C152.145 510.861 151.489 509.795 150.177 509.08L150.881 507.896C152.556 508.877 153.43 510.232 153.505 511.96C153.526 512.579 153.665 513.027 153.921 513.304C154.188 513.571 154.609 513.704 155.185 513.704H156.129V515H155.073C154.188 515 153.494 514.717 152.993 514.152C152.641 514.717 152.049 515 151.217 515H147.457ZM155.176 515V513.704H156.232C157.278 513.704 157.8 513.171 157.8 512.104V508.792L159.176 508.056V512.152C159.176 513.059 158.904 513.773 158.36 514.296C157.859 514.765 157.203 515 156.392 515H155.176ZM157.752 518.184C157.23 518.184 156.968 517.917 156.968 517.384C156.968 516.861 157.23 516.6 157.752 516.6C158.264 516.6 158.52 516.861 158.52 517.384C158.52 517.917 158.264 518.184 157.752 518.184ZM162.049 515V505.416L163.425 504.68V515H162.049ZM170.235 514.488C169.83 514.648 169.334 514.728 168.747 514.728C167.798 514.728 167.051 514.371 166.507 513.656C166.049 513.048 165.819 512.285 165.819 511.368C165.819 510.237 166.123 509.352 166.731 508.712C167.275 508.136 167.99 507.848 168.875 507.848C169.782 507.848 170.481 508.131 170.971 508.696C171.409 509.197 171.627 509.853 171.627 510.664V514.152C171.627 515.357 171.313 516.312 170.683 517.016C170.086 517.677 169.291 518.008 168.299 518.008C167.638 518.008 167.014 517.853 166.427 517.544V516.328C166.993 516.627 167.553 516.776 168.107 516.776C168.737 516.776 169.238 516.573 169.611 516.168C169.985 515.773 170.193 515.213 170.235 514.488ZM170.235 510.728C170.235 509.661 169.782 509.128 168.875 509.128C168.342 509.128 167.921 509.325 167.611 509.72C167.313 510.115 167.163 510.653 167.163 511.336C167.163 512.008 167.307 512.547 167.595 512.952C167.894 513.347 168.294 513.544 168.795 513.544C169.499 513.544 169.979 513.347 170.235 512.952V510.728ZM179.473 505.96C178.95 505.96 178.689 505.693 178.689 505.16C178.689 504.637 178.95 504.376 179.473 504.376C179.985 504.376 180.241 504.637 180.241 505.16C180.241 505.693 179.985 505.96 179.473 505.96ZM181.505 505.96C180.982 505.96 180.721 505.693 180.721 505.16C180.721 504.637 180.982 504.376 181.505 504.376C182.017 504.376 182.273 504.637 182.273 505.16C182.273 505.693 182.017 505.96 181.505 505.96ZM184.481 513.704H185.537V515H184.321C183.222 515 182.433 514.595 181.953 513.784C181.441 514.275 180.806 514.52 180.049 514.52C179.11 514.52 178.363 514.168 177.809 513.464C177.35 512.867 177.121 512.136 177.121 511.272C177.121 510.237 177.435 509.405 178.065 508.776C178.598 508.232 179.249 507.96 180.017 507.96C180.603 507.96 181.11 508.109 181.537 508.408V507.72L182.929 506.984V512.104C182.929 513.171 183.446 513.704 184.481 513.704ZM181.537 509.896C181.142 509.459 180.657 509.24 180.081 509.24C179.611 509.24 179.227 509.432 178.929 509.816C178.63 510.189 178.481 510.68 178.481 511.288C178.481 511.907 178.63 512.403 178.929 512.776C179.227 513.149 179.617 513.336 180.097 513.336C180.694 513.336 181.185 513.091 181.569 512.6C181.547 512.408 181.537 512.259 181.537 512.152V509.896ZM193.207 513.704V515H184.582V513.704H187.351C186.828 513.032 186.567 512.205 186.567 511.224C186.567 510.136 186.94 509.272 187.687 508.632C188.295 508.12 188.999 507.859 189.799 507.848C190.929 507.848 191.809 508.301 192.439 509.208V510.504C191.756 509.587 190.929 509.128 189.959 509.128C189.351 509.128 188.86 509.325 188.487 509.72C188.124 510.104 187.943 510.621 187.943 511.272C187.943 512.008 188.161 512.6 188.599 513.048C189.047 513.485 189.639 513.704 190.375 513.704H193.207ZM202.912 513.704V515H200.928C200.885 515.917 200.491 516.675 199.744 517.272C199.115 517.763 198.4 518.008 197.6 518.008C196.939 518.008 196.315 517.853 195.728 517.544V516.328C196.293 516.627 196.853 516.776 197.408 516.776C197.973 516.776 198.464 516.6 198.88 516.248C199.307 515.896 199.525 515.475 199.536 514.984C198.981 514.963 198.571 514.941 198.304 514.92C197.152 514.856 196.283 514.467 195.696 513.752C195.205 513.155 194.96 512.381 194.96 511.432C194.96 510.269 195.269 509.363 195.888 508.712C196.443 508.136 197.173 507.848 198.08 507.848C199.029 507.848 199.76 508.131 200.272 508.696C200.709 509.197 200.928 509.853 200.928 510.664V513.704H202.912ZM199.536 510.76C199.536 509.672 199.051 509.128 198.08 509.128C197.525 509.128 197.093 509.331 196.784 509.736C196.475 510.131 196.32 510.685 196.32 511.4C196.32 512.797 197.003 513.539 198.368 513.624C198.624 513.656 199.013 513.683 199.536 513.704V510.76ZM204.998 506.12C204.475 506.12 204.214 505.853 204.214 505.32C204.214 504.797 204.475 504.536 204.998 504.536C205.51 504.536 205.766 504.797 205.766 505.32C205.766 505.853 205.51 506.12 204.998 506.12ZM207.526 513.704H208.582V515H207.366C206.48 515 205.782 514.717 205.27 514.152C204.758 514.717 204.059 515 203.174 515H201.957V513.704H203.014C204.059 513.704 204.582 513.171 204.582 512.104V508.792L205.958 508.056V512.104C205.958 513.171 206.48 513.704 207.526 513.704ZM209.406 506.232C208.883 506.232 208.622 505.965 208.622 505.432C208.622 504.909 208.883 504.648 209.406 504.648C209.918 504.648 210.174 504.909 210.174 505.432C210.174 505.965 209.918 506.232 209.406 506.232ZM211.454 506.232C210.931 506.232 210.67 505.965 210.67 505.432C210.67 504.909 210.931 504.648 211.454 504.648C211.966 504.648 212.222 504.909 212.222 505.432C212.222 505.965 211.966 506.232 211.454 506.232ZM213.182 513.704H214.238V515H213.022C212.136 515 211.438 514.717 210.926 514.152C210.414 514.717 209.715 515 208.83 515H207.614V513.704H208.67C209.715 513.704 210.238 513.171 210.238 512.104V508.792L211.614 508.056V512.104C211.614 513.171 212.136 513.704 213.182 513.704ZM223.574 513.704H224.646V515H223.43C222.545 515 221.846 514.717 221.334 514.152C220.79 514.931 219.995 515.32 218.95 515.32C217.905 515.32 217.115 514.936 216.582 514.168C216.081 514.723 215.382 515 214.486 515H213.27V513.704H214.326C215.371 513.704 215.894 513.171 215.894 512.104V511.576C215.894 510.339 216.198 509.389 216.806 508.728C217.339 508.141 218.054 507.848 218.95 507.848C219.974 507.848 220.763 508.227 221.318 508.984C221.787 509.635 222.022 510.499 222.022 511.576V512.104C222.022 513.171 222.539 513.704 223.574 513.704ZM218.95 514.024C219.473 514.024 219.883 513.805 220.182 513.368C220.491 512.931 220.646 512.328 220.646 511.56C220.646 509.939 220.081 509.128 218.95 509.128C217.83 509.128 217.27 509.939 217.27 511.56C217.27 513.203 217.83 514.024 218.95 514.024ZM223.692 515V513.704H224.54C225.649 513.704 226.204 513.123 226.204 511.96V505.416L227.596 504.68V511.976C227.596 512.925 227.313 513.677 226.748 514.232C226.215 514.744 225.516 515 224.652 515H223.692ZM230.471 515V505.416L231.847 504.68V515H230.471ZM241.24 515C240.312 515 239.597 514.701 239.096 514.104C238.669 513.592 238.456 512.941 238.456 512.152V505.416L239.832 504.68V512.104C239.832 513.171 240.354 513.704 241.4 513.704H242.456V515H241.24ZM244.529 506.12C244.006 506.12 243.745 505.853 243.745 505.32C243.745 504.797 244.006 504.536 244.529 504.536C245.041 504.536 245.297 504.797 245.297 505.32C245.297 505.853 245.041 506.12 244.529 506.12ZM247.057 513.704H248.113V515H246.897C246.011 515 245.313 514.717 244.801 514.152C244.289 514.717 243.59 515 242.705 515H241.489V513.704H242.545C243.59 513.704 244.113 513.171 244.113 512.104V508.792L245.489 508.056V512.104C245.489 513.171 246.011 513.704 247.057 513.704ZM249.769 510.664C249.769 509.736 250.046 509.016 250.601 508.504C251.092 508.067 251.732 507.848 252.521 507.848C253.534 507.848 254.313 508.221 254.857 508.968C255.326 509.597 255.561 510.419 255.561 511.432C255.561 512.584 255.262 513.485 254.665 514.136C254.142 514.712 253.46 515 252.617 515C251.657 515 250.926 514.733 250.425 514.2C249.913 514.733 249.225 515 248.361 515H247.145V513.704H248.201C249.246 513.704 249.769 513.171 249.769 512.104V510.664ZM251.145 512.216C251.145 513.208 251.63 513.704 252.601 513.704C253.102 513.704 253.492 513.501 253.769 513.096C254.057 512.691 254.201 512.125 254.201 511.4C254.201 510.685 254.052 510.131 253.753 509.736C253.454 509.331 253.044 509.128 252.521 509.128C251.604 509.128 251.145 509.661 251.145 510.728V512.216ZM260.99 515C260.062 515 259.347 514.701 258.846 514.104C258.419 513.592 258.206 512.941 258.206 512.152V505.416L259.582 504.68V512.104C259.582 513.171 260.104 513.704 261.15 513.704H262.206V515H260.99ZM261.239 515V513.704H262.679C263.713 513.704 264.231 513.171 264.231 512.104V509.864L265.607 509.128V512.104C265.607 513.171 266.129 513.704 267.175 513.704H267.911C268.956 513.704 269.479 513.171 269.479 512.104V509.32L270.855 508.6V512.104C270.855 513.171 271.372 513.704 272.407 513.704H273.159C274.204 513.704 274.727 513.171 274.727 512.104V508.792L276.103 508.056V511.96C276.103 513.123 276.657 513.704 277.767 513.704H279.095V515H277.655C276.695 515 275.964 514.675 275.463 514.024C275.015 514.664 274.316 514.989 273.367 515H272.263C271.324 515 270.625 514.685 270.167 514.056C269.708 514.675 269.025 514.989 268.119 515H267.015C266.097 515 265.399 514.685 264.919 514.056C264.46 514.685 263.761 515 262.823 515H261.239ZM282.305 506.232C281.783 506.232 281.521 505.965 281.521 505.432C281.521 504.909 281.783 504.648 282.305 504.648C282.817 504.648 283.073 504.909 283.073 505.432C283.073 505.965 282.817 506.232 282.305 506.232ZM284.337 506.232C283.815 506.232 283.553 505.965 283.553 505.432C283.553 504.909 283.815 504.648 284.337 504.648C284.849 504.648 285.105 504.909 285.105 505.432C285.105 505.965 284.849 506.232 284.337 506.232ZM278.129 515V513.704H281.009C280.519 513.16 280.273 512.403 280.273 511.432C280.273 510.269 280.577 509.363 281.185 508.712C281.719 508.136 282.428 507.848 283.313 507.848C284.22 507.848 284.924 508.131 285.425 508.696C285.852 509.197 286.065 509.853 286.065 510.664V512.184C286.055 513.069 285.793 513.768 285.281 514.28C284.78 514.76 284.113 515 283.281 515H278.129ZM284.689 510.728C284.689 509.661 284.231 509.128 283.313 509.128C282.791 509.128 282.38 509.331 282.081 509.736C281.783 510.131 281.633 510.685 281.633 511.4C281.633 512.104 281.777 512.664 282.065 513.08C282.353 513.496 282.737 513.704 283.217 513.704C284.199 513.704 284.689 513.192 284.689 512.168V510.728ZM287.936 504.456L288.304 503.768H288.736C288.629 503.576 288.576 503.379 288.576 503.176C288.576 502.856 288.693 502.584 288.928 502.36C289.162 502.125 289.44 502.008 289.76 502.008C290.026 502.008 290.282 502.093 290.528 502.264V502.968C290.293 502.787 290.069 502.696 289.856 502.696C289.461 502.696 289.264 502.872 289.264 503.224C289.264 503.405 289.338 503.587 289.488 503.768H290.944L290.576 504.456H287.936ZM288.784 515V506.056L290.16 505.32V515H288.784ZM306.528 506.232C306.005 506.232 305.744 505.965 305.744 505.432C305.744 504.909 306.005 504.648 306.528 504.648C307.04 504.648 307.296 504.909 307.296 505.432C307.296 505.965 307.04 506.232 306.528 506.232ZM308.448 513.704H311.312V515H307.536C307.109 515 306.747 514.963 306.448 514.888C306.139 514.963 305.776 515 305.36 515H299.44C298.576 515 297.899 514.712 297.408 514.136C296.981 513.635 296.768 512.979 296.768 512.168V510.232L298.144 509.496V512.04C298.144 513.149 298.661 513.704 299.696 513.704H304.432C303.771 512.947 303.44 512.109 303.44 511.192C303.44 510.147 303.739 509.315 304.336 508.696C304.869 508.131 305.573 507.848 306.448 507.848C307.44 507.848 308.213 508.211 308.768 508.936C309.216 509.533 309.44 510.285 309.44 511.192C309.44 512.109 309.109 512.947 308.448 513.704ZM306.448 513.56C306.939 513.389 307.339 513.075 307.648 512.616C307.968 512.157 308.128 511.661 308.128 511.128C308.128 510.52 307.973 510.035 307.664 509.672C307.365 509.309 306.96 509.128 306.448 509.128C305.936 509.128 305.525 509.309 305.216 509.672C304.917 510.024 304.768 510.509 304.768 511.128C304.768 511.661 304.923 512.157 305.232 512.616C305.552 513.075 305.957 513.389 306.448 513.56ZM319.148 504.648C318.679 504.648 318.444 504.408 318.444 503.928C318.444 503.459 318.679 503.224 319.148 503.224C319.617 503.224 319.852 503.459 319.852 503.928C319.852 504.408 319.617 504.648 319.148 504.648ZM318.14 506.552C317.617 506.552 317.356 506.285 317.356 505.752C317.356 505.229 317.617 504.968 318.14 504.968C318.652 504.968 318.908 505.229 318.908 505.752C318.908 506.285 318.652 506.552 318.14 506.552ZM320.172 506.552C319.649 506.552 319.388 506.285 319.388 505.752C319.388 505.229 319.649 504.968 320.172 504.968C320.684 504.968 320.94 505.229 320.94 505.752C320.94 506.285 320.684 506.552 320.172 506.552ZM310.348 515V513.704H311.788C312.823 513.704 313.34 513.171 313.34 512.104V509.864L314.716 509.128V512.104C314.716 513.171 315.239 513.704 316.284 513.704H317.02C318.065 513.704 318.588 513.171 318.588 512.104V509.32L319.964 508.6V512.104C319.964 513.171 320.481 513.704 321.516 513.704H322.268C323.313 513.704 323.836 513.171 323.836 512.104V508.792L325.212 508.056V511.96C325.212 513.123 325.767 513.704 326.876 513.704H328.204V515H326.764C325.804 515 325.073 514.675 324.572 514.024C324.124 514.664 323.425 514.989 322.476 515H321.372C320.433 515 319.735 514.685 319.276 514.056C318.817 514.675 318.135 514.989 317.228 515H316.124C315.207 515 314.508 514.685 314.028 514.056C313.569 514.685 312.871 515 311.932 515H310.348ZM335.991 513.704H336.903V515H335.847C334.951 515 334.252 514.723 333.751 514.168C333.249 514.723 332.551 515 331.655 515H327.239V513.704H331.527C332.551 513.704 333.063 513.165 333.063 512.088V511.944C333.063 511.144 332.753 510.536 332.135 510.12C331.644 509.779 331.041 509.608 330.327 509.608C329.761 509.608 329.196 509.715 328.631 509.928V508.568L332.135 504.68H333.543L330.391 508.232C330.401 508.232 330.417 508.232 330.439 508.232C330.46 508.232 330.476 508.232 330.487 508.232C331.703 508.232 332.684 508.6 333.431 509.336C334.103 510.019 334.439 510.883 334.439 511.928V512.104C334.439 513.171 334.956 513.704 335.991 513.704ZM337.734 506.232C337.211 506.232 336.95 505.965 336.95 505.432C336.95 504.909 337.211 504.648 337.734 504.648C338.246 504.648 338.502 504.909 338.502 505.432C338.502 505.965 338.246 506.232 337.734 506.232ZM339.782 506.232C339.259 506.232 338.998 505.965 338.998 505.432C338.998 504.909 339.259 504.648 339.782 504.648C340.294 504.648 340.55 504.909 340.55 505.432C340.55 505.965 340.294 506.232 339.782 506.232ZM341.51 513.704H342.566V515H341.35C340.465 515 339.766 514.717 339.254 514.152C338.742 514.717 338.043 515 337.158 515H335.942V513.704H336.998C338.043 513.704 338.566 513.171 338.566 512.104V508.792L339.942 508.056V512.104C339.942 513.171 340.465 513.704 341.51 513.704ZM341.598 515V513.704H343.038C344.073 513.704 344.59 513.171 344.59 512.104V509.864L345.966 509.128V512.104C345.966 513.171 346.489 513.704 347.534 513.704H348.27C349.315 513.704 349.838 513.171 349.838 512.104V509.32L351.214 508.6V512.104C351.214 513.171 351.731 513.704 352.766 513.704H353.518C354.563 513.704 355.086 513.171 355.086 512.104V508.792L356.462 508.056V512.152C356.462 513.059 356.19 513.768 355.646 514.28C355.166 514.749 354.526 514.989 353.726 515H352.622C351.683 515 350.985 514.685 350.526 514.056C350.067 514.675 349.385 514.989 348.478 515H347.374C346.457 515 345.758 514.685 345.278 514.056C344.819 514.685 344.121 515 343.182 515H341.598ZM359.346 515V505.416L360.722 504.68V515H359.346Z" fill="#A4A4A4"/>
<g clip-path="url(#clip1_461_20312)">
<rect x="143" y="549" width="126" height="56" rx="28" fill="#FFFFF5"/>
<rect width="126" height="56" transform="translate(143 549)" fill="#2ECC71"/>
<path d="M173.96 570.232C173.437 570.232 173.176 569.965 173.176 569.432C173.176 568.909 173.437 568.648 173.96 568.648C174.472 568.648 174.728 568.909 174.728 569.432C174.728 569.965 174.472 570.232 173.96 570.232ZM175.992 570.232C175.469 570.232 175.208 569.965 175.208 569.432C175.208 568.909 175.469 568.648 175.992 568.648C176.504 568.648 176.76 568.909 176.76 569.432C176.76 569.965 176.504 570.232 175.992 570.232ZM177.704 578.136C177.704 579.395 177.245 580.371 176.328 581.064C175.485 581.715 174.333 582.04 172.872 582.04C171.187 582.04 169.917 581.549 169.064 580.568C168.435 579.843 168.12 578.947 168.12 577.88C168.12 576.984 168.344 576.216 168.792 575.576L170.12 575.288C169.64 576.045 169.4 576.861 169.4 577.736C169.4 578.653 169.709 579.389 170.328 579.944C170.936 580.477 171.784 580.744 172.872 580.744C175.069 580.744 176.205 579.928 176.28 578.296C175.96 578.584 175.475 578.728 174.824 578.728C173.885 578.728 173.139 578.365 172.584 577.64C172.125 577.021 171.896 576.264 171.896 575.368C171.896 574.237 172.2 573.352 172.808 572.712C173.352 572.136 174.067 571.848 174.952 571.848C175.859 571.848 176.557 572.131 177.048 572.696C177.485 573.197 177.704 573.853 177.704 574.664V578.136ZM176.328 574.728C176.328 573.661 175.869 573.128 174.952 573.128C174.429 573.128 174.019 573.325 173.72 573.72C173.421 574.104 173.272 574.643 173.272 575.336C173.272 576.019 173.416 576.557 173.704 576.952C173.992 577.347 174.381 577.544 174.872 577.544C175.608 577.544 176.093 577.341 176.328 576.936V574.728ZM187.896 577.704V579H185.912C185.87 579.917 185.475 580.675 184.728 581.272C184.099 581.763 183.384 582.008 182.584 582.008C181.923 582.008 181.299 581.853 180.712 581.544V580.328C181.278 580.627 181.838 580.776 182.392 580.776C182.958 580.776 183.448 580.6 183.864 580.248C184.291 579.896 184.51 579.475 184.52 578.984C183.966 578.963 183.555 578.941 183.288 578.92C182.136 578.856 181.267 578.467 180.68 577.752C180.19 577.155 179.944 576.381 179.944 575.432C179.944 574.269 180.254 573.363 180.872 572.712C181.427 572.136 182.158 571.848 183.064 571.848C184.014 571.848 184.744 572.131 185.256 572.696C185.694 573.197 185.912 573.853 185.912 574.664V577.704H187.896ZM184.52 574.76C184.52 573.672 184.035 573.128 183.064 573.128C182.51 573.128 182.078 573.331 181.768 573.736C181.459 574.131 181.304 574.685 181.304 575.4C181.304 576.797 181.987 577.539 183.352 577.624C183.608 577.656 183.998 577.683 184.52 577.704V574.76ZM186.942 579V577.704H188.382C189.417 577.704 189.934 577.171 189.934 576.104V573.864L191.31 573.128V576.104C191.31 577.171 191.833 577.704 192.878 577.704H193.614C194.659 577.704 195.182 577.171 195.182 576.104V573.32L196.558 572.6V576.104C196.558 577.171 197.075 577.704 198.11 577.704H198.862C199.907 577.704 200.43 577.171 200.43 576.104V572.792L201.806 572.056V575.96C201.806 577.123 202.361 577.704 203.47 577.704H204.798V579H203.358C202.398 579 201.667 578.675 201.166 578.024C200.718 578.664 200.019 578.989 199.07 579H197.966C197.027 579 196.329 578.685 195.87 578.056C195.411 578.675 194.729 578.989 193.822 579H192.718C191.801 579 191.102 578.685 190.622 578.056C190.163 578.685 189.465 579 188.526 579H186.942ZM205.625 570.232C205.102 570.232 204.84 569.965 204.84 569.432C204.84 568.909 205.102 568.648 205.625 568.648C206.137 568.648 206.393 568.909 206.393 569.432C206.393 569.965 206.137 570.232 205.625 570.232ZM207.673 570.232C207.15 570.232 206.889 569.965 206.889 569.432C206.889 568.909 207.15 568.648 207.673 568.648C208.185 568.648 208.441 568.909 208.441 569.432C208.441 569.965 208.185 570.232 207.673 570.232ZM209.401 577.704H210.457V579H209.241C208.355 579 207.657 578.717 207.145 578.152C206.633 578.717 205.934 579 205.049 579H203.832V577.704H204.889C205.934 577.704 206.457 577.171 206.457 576.104V572.792L207.833 572.056V576.104C207.833 577.171 208.355 577.704 209.401 577.704ZM209.489 579V577.704H210.337C211.446 577.704 212.001 577.123 212.001 575.96V569.416L213.393 568.68V575.976C213.393 576.925 213.11 577.677 212.545 578.232C212.011 578.744 211.313 579 210.449 579H209.489ZM216.268 579V569.416L217.644 568.68V579H216.268ZM223.405 568.456L223.773 567.768H224.205C224.098 567.576 224.045 567.379 224.045 567.176C224.045 566.856 224.162 566.584 224.397 566.36C224.631 566.125 224.909 566.008 225.229 566.008C225.495 566.008 225.751 566.093 225.997 566.264V566.968C225.762 566.787 225.538 566.696 225.325 566.696C224.93 566.696 224.733 566.872 224.733 567.224C224.733 567.405 224.807 567.587 224.957 567.768H226.413L226.045 568.456H223.405ZM224.253 579V570.056L225.629 569.32V579H224.253ZM227.223 579L227.895 577.704H230.743C231.169 577.704 231.468 577.597 231.639 577.384C231.82 577.171 231.911 576.803 231.911 576.28C231.911 574.861 231.255 573.795 229.943 573.08L230.647 571.896C232.321 572.877 233.196 574.232 233.271 575.96C233.292 576.579 233.431 577.027 233.687 577.304C233.953 577.571 234.375 577.704 234.951 577.704H235.895V579H234.839C233.953 579 233.26 578.717 232.759 578.152C232.407 578.717 231.815 579 230.983 579H227.223ZM234.942 579V577.704H235.998C237.043 577.704 237.566 577.171 237.566 576.104V572.792L238.942 572.056V576.152C238.942 577.059 238.67 577.773 238.126 578.296C237.625 578.765 236.969 579 236.158 579H234.942ZM237.518 582.184C236.995 582.184 236.734 581.917 236.734 581.384C236.734 580.861 236.995 580.6 237.518 580.6C238.03 580.6 238.286 580.861 238.286 581.384C238.286 581.917 238.03 582.184 237.518 582.184ZM241.815 579V569.416L243.191 568.68V579H241.815Z" fill="white"/>
</g>
<g opacity="0.2" filter="url(#filter0_f_461_20312)">
<circle cx="206" cy="786" r="144" fill="url(#paint0_linear_461_20312)"/>
</g>
<g clip-path="url(#clip2_461_20312)">
<rect width="412" height="64" transform="translate(0 853)" fill="#FFFFF5"/>
<g clip-path="url(#clip3_461_20312)">
<path d="M41.2002 873C40.1002 873 39.1585 872.608 38.3752 871.825C37.5919 871.042 37.2002 870.1 37.2002 869C37.2002 867.9 37.5919 866.958 38.3752 866.175C39.1585 865.392 40.1002 865 41.2002 865C42.3002 865 43.2419 865.392 44.0252 866.175C44.8085 866.958 45.2002 867.9 45.2002 869C45.2002 870.1 44.8085 871.042 44.0252 871.825C43.2419 872.608 42.3002 873 41.2002 873ZM33.2002 881V878.2C33.2002 877.633 33.346 877.113 33.6377 876.637C33.9294 876.162 34.3169 875.8 34.8002 875.55C35.8335 875.033 36.8835 874.646 37.9502 874.387C39.0169 874.129 40.1002 874 41.2002 874C42.3002 874 43.3835 874.129 44.4502 874.387C45.5169 874.646 46.5669 875.033 47.6002 875.55C48.0835 875.8 48.471 876.162 48.7627 876.637C49.0544 877.113 49.2002 877.633 49.2002 878.2V881H33.2002ZM35.2002 879H47.2002V878.2C47.2002 878.017 47.1544 877.85 47.0627 877.7C46.971 877.55 46.8502 877.433 46.7002 877.35C45.8002 876.9 44.8919 876.563 43.9752 876.338C43.0585 876.113 42.1335 876 41.2002 876C40.2669 876 39.3419 876.113 38.4252 876.338C37.5085 876.563 36.6002 876.9 35.7002 877.35C35.5502 877.433 35.4294 877.55 35.3377 877.7C35.246 877.85 35.2002 878.017 35.2002 878.2V879ZM41.2002 871C41.7502 871 42.221 870.804 42.6127 870.412C43.0044 870.021 43.2002 869.55 43.2002 869C43.2002 868.45 43.0044 867.979 42.6127 867.588C42.221 867.196 41.7502 867 41.2002 867C40.6502 867 40.1794 867.196 39.7877 867.588C39.396 867.979 39.2002 868.45 39.2002 869C39.2002 869.55 39.396 870.021 39.7877 870.412C40.1794 870.804 40.6502 871 41.2002 871Z" fill="#646464"/>
</g>
<path d="M30.3378 905C30.2445 905.821 29.7965 906.479 28.9938 906.974C28.2471 907.431 27.2951 907.66 26.1378 907.66C24.6631 907.66 23.5525 907.231 22.8058 906.372C22.2551 905.737 21.9798 904.953 21.9798 904.02C21.9798 903.236 22.1758 902.564 22.5678 902.004L23.7298 901.752C23.3098 902.415 23.0998 903.129 23.0998 903.894C23.0998 904.725 23.3705 905.378 23.9118 905.854C24.4438 906.33 25.1858 906.568 26.1378 906.568C26.9405 906.568 27.6031 906.428 28.1258 906.148C28.6485 905.868 28.9658 905.485 29.0778 905H27.6778L28.2658 903.866H30.3798V905H30.3378ZM25.1998 910.138C24.7425 910.138 24.5138 909.905 24.5138 909.438C24.5138 908.981 24.7425 908.752 25.1998 908.752C25.6478 908.752 25.8718 908.981 25.8718 909.438C25.8718 909.905 25.6478 910.138 25.1998 910.138ZM26.9778 910.138C26.5205 910.138 26.2918 909.905 26.2918 909.438C26.2918 908.981 26.5205 908.752 26.9778 908.752C27.4258 908.752 27.6498 908.981 27.6498 909.438C27.6498 909.905 27.4258 910.138 26.9778 910.138ZM29.6443 905V903.866H30.5683C31.4829 903.866 31.9403 903.399 31.9403 902.466V899.568L33.1443 898.924V902.508C33.1443 903.301 32.9063 903.927 32.4303 904.384C31.9916 904.795 31.4176 905 30.7083 905H29.6443ZM31.8983 907.786C31.4409 907.786 31.2123 907.553 31.2123 907.086C31.2123 906.629 31.4409 906.4 31.8983 906.4C32.3463 906.4 32.5703 906.629 32.5703 907.086C32.5703 907.553 32.3463 907.786 31.8983 907.786ZM38.0942 905C37.2822 905 36.6569 904.739 36.2182 904.216C35.8449 903.768 35.6582 903.199 35.6582 902.508V896.614L36.8622 895.97V902.466C36.8622 903.399 37.3196 903.866 38.2342 903.866H39.1582V905H38.0942ZM38.3122 905V903.866H39.5722C40.4776 903.866 40.9302 903.399 40.9302 902.466V900.506L42.1342 899.862V902.466C42.1342 903.399 42.5916 903.866 43.5062 903.866H44.1502C45.0649 903.866 45.5222 903.399 45.5222 902.466V900.03L46.7262 899.4V902.466C46.7262 903.399 47.1789 903.866 48.0842 903.866H48.7422C49.6569 903.866 50.1142 903.399 50.1142 902.466V899.568L51.3182 898.924V902.34C51.3182 903.357 51.8036 903.866 52.7742 903.866H53.9362V905H52.6762C51.8362 905 51.1969 904.715 50.7582 904.146C50.3662 904.706 49.7549 904.991 48.9242 905H47.9582C47.1369 905 46.5256 904.725 46.1242 904.174C45.7229 904.715 45.1256 904.991 44.3322 905H43.3662C42.5636 905 41.9522 904.725 41.5322 904.174C41.1309 904.725 40.5196 905 39.6982 905H38.3122ZM53.0915 905V903.866H55.0095C56.9042 903.866 58.4022 903.241 59.5035 901.99C58.7289 900.562 57.7862 899.848 56.6755 899.848C55.9195 899.848 55.1402 900.249 54.3375 901.052V899.932C55.1215 899.139 55.9522 898.742 56.8295 898.742C57.5482 898.742 58.2435 899.003 58.9155 899.526C59.5875 900.039 60.1802 900.777 60.6935 901.738V902.354C59.3215 904.118 57.4222 905 54.9955 905H53.0915Z" fill="#646464"/>
<g clip-path="url(#clip4_461_20312)">
<path d="M123.601 881.325C123.367 881.325 123.13 881.283 122.889 881.2C122.647 881.117 122.435 880.983 122.251 880.8L120.526 879.225C118.759 877.608 117.163 876.004 115.738 874.413C114.312 872.822 113.6 871.067 113.601 869.15C113.601 867.583 114.126 866.275 115.176 865.225C116.226 864.175 117.534 863.65 119.101 863.65C119.984 863.65 120.817 863.837 121.601 864.212C122.384 864.587 123.051 865.099 123.601 865.75C124.151 865.1 124.817 864.588 125.601 864.213C126.384 863.838 127.217 863.651 128.101 863.65C129.667 863.65 130.976 864.175 132.026 865.225C133.076 866.275 133.601 867.583 133.601 869.15C133.601 871.067 132.892 872.825 131.476 874.425C130.059 876.025 128.451 877.633 126.651 879.25L124.951 880.8C124.767 880.983 124.555 881.117 124.314 881.2C124.072 881.283 123.835 881.325 123.601 881.325ZM122.651 867.75C122.167 867.067 121.651 866.546 121.101 866.187C120.551 865.828 119.884 865.649 119.101 865.65C118.101 865.65 117.267 865.983 116.601 866.65C115.934 867.317 115.601 868.15 115.601 869.15C115.601 870.017 115.909 870.938 116.526 871.913C117.142 872.888 117.88 873.834 118.739 874.75C119.597 875.666 120.481 876.524 121.389 877.325C122.297 878.126 123.034 878.784 123.601 879.3C124.167 878.783 124.905 878.125 125.814 877.325C126.722 876.525 127.606 875.667 128.464 874.75C129.322 873.833 130.059 872.888 130.676 871.913C131.292 870.938 131.601 870.017 131.601 869.15C131.601 868.15 131.267 867.317 130.601 866.65C129.934 865.983 129.101 865.65 128.101 865.65C127.317 865.65 126.651 865.829 126.101 866.188C125.551 866.547 125.034 867.067 124.551 867.75C124.434 867.917 124.292 868.042 124.126 868.125C123.959 868.208 123.784 868.25 123.601 868.25C123.417 868.25 123.242 868.208 123.076 868.125C122.909 868.042 122.767 867.917 122.651 867.75Z" fill="#646464"/>
</g>
<path d="M100.266 897.09C99.8086 897.09 99.5799 896.857 99.5799 896.39C99.5799 895.933 99.8086 895.704 100.266 895.704C100.714 895.704 100.938 895.933 100.938 896.39C100.938 896.857 100.714 897.09 100.266 897.09ZM102.044 897.09C101.587 897.09 101.358 896.857 101.358 896.39C101.358 895.933 101.587 895.704 102.044 895.704C102.492 895.704 102.716 895.933 102.716 896.39C102.716 896.857 102.492 897.09 102.044 897.09ZM104.648 903.866H105.572V905H104.508C103.547 905 102.856 904.645 102.436 903.936C101.988 904.365 101.433 904.58 100.77 904.58C99.9486 904.58 99.2952 904.272 98.8099 903.656C98.4086 903.133 98.2079 902.494 98.2079 901.738C98.2079 900.833 98.4832 900.105 99.0339 899.554C99.5006 899.078 100.07 898.84 100.742 898.84C101.255 898.84 101.699 898.971 102.072 899.232V898.63L103.29 897.986V902.466C103.29 903.399 103.743 903.866 104.648 903.866ZM102.072 900.534C101.727 900.151 101.302 899.96 100.798 899.96C100.387 899.96 100.051 900.128 99.7899 900.464C99.5286 900.791 99.3979 901.22 99.3979 901.752C99.3979 902.293 99.5286 902.727 99.7899 903.054C100.051 903.381 100.392 903.544 100.812 903.544C101.335 903.544 101.764 903.329 102.1 902.9C102.081 902.732 102.072 902.601 102.072 902.508V900.534ZM109.511 903.866H110.435V905H109.371C108.568 905 107.948 904.743 107.509 904.23C107.042 904.743 106.398 905 105.577 905H104.737V903.866H105.479C106.45 903.866 106.935 903.357 106.935 902.34V896.614L108.153 895.97V902.354C108.153 902.895 108.256 903.283 108.461 903.516C108.676 903.749 109.026 903.866 109.511 903.866ZM119.447 897.23C118.989 897.23 118.761 896.997 118.761 896.53C118.761 896.073 118.989 895.844 119.447 895.844C119.895 895.844 120.119 896.073 120.119 896.53C120.119 896.997 119.895 897.23 119.447 897.23ZM123.927 903.866H124.851V905H123.787C123.003 905 122.391 904.757 121.953 904.272C121.514 904.757 120.903 905 120.119 905H114.323C113.548 905 112.937 904.753 112.489 904.258C112.041 904.753 111.429 905 110.655 905H109.591V903.866H110.515C111.429 903.866 111.887 903.399 111.887 902.466V900.506L113.091 899.862V902.466C113.091 903.25 113.394 903.703 114.001 903.824C114.374 902.415 114.99 901.239 115.849 900.296C116.81 899.26 117.93 898.742 119.209 898.742C120.273 898.742 121.122 899.111 121.757 899.848C122.289 900.473 122.555 901.243 122.555 902.158V902.494C122.555 903.409 123.012 903.866 123.927 903.866ZM120.049 903.866C120.917 903.866 121.351 903.381 121.351 902.41V902.158C121.351 901.43 121.127 900.851 120.679 900.422C120.287 900.049 119.801 899.862 119.223 899.862C118.233 899.862 117.342 900.319 116.549 901.234C115.942 901.934 115.475 902.811 115.149 903.866H120.049ZM128.396 897.314C127.939 897.314 127.71 897.081 127.71 896.614C127.71 896.157 127.939 895.928 128.396 895.928C128.844 895.928 129.068 896.157 129.068 896.614C129.068 897.081 128.844 897.314 128.396 897.314ZM130.132 903.866H132.736V905H129.32C128.956 905 128.639 904.967 128.368 904.902C128.107 904.967 127.79 905 127.416 905H124.014V903.866H126.618C126.04 903.203 125.75 902.471 125.75 901.668C125.75 900.753 126.007 900.025 126.52 899.484C126.987 898.989 127.603 898.742 128.368 898.742C129.246 898.742 129.922 899.059 130.398 899.694C130.8 900.217 131 900.875 131 901.668C131 902.471 130.711 903.203 130.132 903.866ZM128.382 903.74C128.812 903.591 129.162 903.32 129.432 902.928C129.703 902.527 129.838 902.088 129.838 901.612C129.838 901.071 129.703 900.646 129.432 900.338C129.171 900.021 128.816 899.862 128.368 899.862C127.92 899.862 127.561 900.021 127.29 900.338C127.029 900.655 126.898 901.08 126.898 901.612C126.898 902.079 127.038 902.513 127.318 902.914C127.598 903.315 127.953 903.591 128.382 903.74ZM140.919 903.866H141.857V905H140.793C140.018 905 139.407 904.753 138.959 904.258C138.483 904.939 137.788 905.28 136.873 905.28C135.958 905.28 135.268 904.944 134.801 904.272C134.362 904.757 133.751 905 132.967 905H131.903V903.866H132.827C133.742 903.866 134.199 903.399 134.199 902.466V902.004C134.199 900.921 134.465 900.091 134.997 899.512C135.464 898.999 136.089 898.742 136.873 898.742C137.769 898.742 138.46 899.073 138.945 899.736C139.356 900.305 139.561 901.061 139.561 902.004V902.466C139.561 903.399 140.014 903.866 140.919 903.866ZM136.873 904.146C137.33 904.146 137.69 903.955 137.951 903.572C138.222 903.189 138.357 902.662 138.357 901.99C138.357 900.571 137.862 899.862 136.873 899.862C135.893 899.862 135.403 900.571 135.403 901.99C135.403 903.427 135.893 904.146 136.873 904.146ZM141.022 905V903.866H141.764C142.735 903.866 143.22 903.357 143.22 902.34V896.614L144.438 895.97V902.354C144.438 903.185 144.191 903.843 143.696 904.328C143.23 904.776 142.618 905 141.862 905H141.022ZM146.954 905V896.614L148.158 895.97V905H146.954Z" fill="#646464"/>
<g clip-path="url(#clip5_461_20312)">
<path d="M203.658 874.874C203.855 874.874 204.043 874.952 204.181 875.091C204.32 875.23 204.398 875.418 204.398 875.614V877.587C204.398 877.783 204.32 877.972 204.181 878.11C204.043 878.249 203.855 878.327 203.658 878.327C203.462 878.327 203.274 878.249 203.135 878.11C202.996 877.972 202.918 877.783 202.918 877.587V875.614C202.918 875.418 202.996 875.23 203.135 875.091C203.274 874.952 203.462 874.874 203.658 874.874ZM208.344 875.614C208.344 875.418 208.266 875.23 208.127 875.091C207.989 874.952 207.8 874.874 207.604 874.874C207.408 874.874 207.22 874.952 207.081 875.091C206.942 875.23 206.864 875.418 206.864 875.614V877.587C206.864 877.783 206.942 877.972 207.081 878.11C207.22 878.249 207.408 878.327 207.604 878.327C207.8 878.327 207.989 878.249 208.127 878.11C208.266 877.972 208.344 877.783 208.344 877.587V875.614Z" fill="#646464"/>
<path fill-rule="evenodd" clip-rule="evenodd" d="M203.313 865.133C203.411 864.963 203.438 864.761 203.387 864.571C203.336 864.382 203.212 864.22 203.042 864.122C202.872 864.024 202.67 863.997 202.48 864.048C202.29 864.099 202.129 864.223 202.031 864.393L200.058 867.81C200.03 867.861 200.008 867.914 199.99 867.969H199.712C199.153 867.969 198.607 868.142 198.149 868.465C197.692 868.788 197.345 869.244 197.157 869.771C196.97 870.299 196.949 870.871 197.1 871.41C197.25 871.95 197.563 872.429 197.997 872.783L198.655 877.306L199.096 879.371C199.225 879.975 199.536 880.524 199.988 880.945C200.44 881.366 201.011 881.637 201.622 881.723C204.283 882.092 206.981 882.092 209.64 881.723C210.252 881.637 210.822 881.366 211.274 880.945C211.726 880.524 212.038 879.975 212.167 879.371L212.608 877.306L213.266 872.784C213.7 872.43 214.013 871.951 214.164 871.411C214.314 870.872 214.294 870.299 214.106 869.771C213.918 869.244 213.572 868.787 213.114 868.465C212.656 868.142 212.11 867.969 211.55 867.969H211.273C211.255 867.914 211.232 867.86 211.204 867.809L209.231 864.392C209.184 864.304 209.12 864.227 209.043 864.165C208.966 864.102 208.877 864.056 208.781 864.029C208.686 864.001 208.586 863.993 208.487 864.006C208.389 864.018 208.294 864.05 208.208 864.099C208.122 864.149 208.047 864.215 207.987 864.295C207.927 864.374 207.884 864.465 207.86 864.561C207.836 864.657 207.832 864.758 207.847 864.856C207.863 864.954 207.898 865.048 207.95 865.132L209.588 867.968H201.675L203.313 865.133ZM211.682 873.392L211.55 873.395H199.712C199.668 873.395 199.624 873.394 199.581 873.392L200.112 877.045L200.543 879.062C200.609 879.369 200.767 879.648 200.996 879.862C201.226 880.075 201.516 880.213 201.826 880.257C204.351 880.608 206.912 880.608 209.436 880.257C209.747 880.213 210.036 880.075 210.266 879.862C210.495 879.648 210.654 879.37 210.72 879.063L211.151 877.045L211.682 873.392ZM198.479 870.682C198.479 870.001 199.032 869.449 199.712 869.449H211.55C211.877 869.449 212.191 869.579 212.422 869.81C212.653 870.041 212.783 870.355 212.783 870.682C212.783 871.009 212.653 871.323 212.422 871.554C212.191 871.785 211.877 871.915 211.55 871.915H199.712C199.032 871.915 198.479 871.363 198.479 870.682Z" fill="#646464"/>
</g>
<path d="M190.991 897.09C190.534 897.09 190.305 896.857 190.305 896.39C190.305 895.933 190.534 895.704 190.991 895.704C191.439 895.704 191.663 895.933 191.663 896.39C191.663 896.857 191.439 897.09 190.991 897.09ZM192.769 897.09C192.312 897.09 192.083 896.857 192.083 896.39C192.083 895.933 192.312 895.704 192.769 895.704C193.217 895.704 193.441 895.933 193.441 896.39C193.441 896.857 193.217 897.09 192.769 897.09ZM195.373 903.866H196.297V905H195.233C194.272 905 193.581 904.645 193.161 903.936C192.713 904.365 192.158 904.58 191.495 904.58C190.674 904.58 190.021 904.272 189.535 903.656C189.134 903.133 188.933 902.494 188.933 901.738C188.933 900.833 189.209 900.105 189.759 899.554C190.226 899.078 190.795 898.84 191.467 898.84C191.981 898.84 192.424 898.971 192.797 899.232V898.63L194.015 897.986V902.466C194.015 903.399 194.468 903.866 195.373 903.866ZM192.797 900.534C192.452 900.151 192.027 899.96 191.523 899.96C191.113 899.96 190.777 900.128 190.515 900.464C190.254 900.791 190.123 901.22 190.123 901.752C190.123 902.293 190.254 902.727 190.515 903.054C190.777 903.381 191.117 903.544 191.537 903.544C192.06 903.544 192.489 903.329 192.825 902.9C192.807 902.732 192.797 902.601 192.797 902.508V900.534ZM200.237 903.866H201.161V905H200.097C199.294 905 198.673 904.743 198.235 904.23C197.768 904.743 197.124 905 196.303 905H195.463V903.866H196.205C197.175 903.866 197.661 903.357 197.661 902.34V896.614L198.879 895.97V902.354C198.879 902.895 198.981 903.283 199.187 903.516C199.401 903.749 199.751 903.866 200.237 903.866ZM200.316 905V903.866H201.576C202.481 903.866 202.934 903.399 202.934 902.466V900.506L204.138 899.862V902.466C204.138 903.399 204.595 903.866 205.51 903.866H206.154C207.069 903.866 207.526 903.399 207.526 902.466V900.03L208.73 899.4V902.466C208.73 903.399 209.183 903.866 210.088 903.866H210.746C211.661 903.866 212.118 903.399 212.118 902.466V899.568L213.322 898.924V902.34C213.322 903.357 213.807 903.866 214.778 903.866H215.94V905H214.68C213.84 905 213.201 904.715 212.762 904.146C212.37 904.706 211.759 904.991 210.928 905H209.962C209.141 905 208.529 904.725 208.128 904.174C207.727 904.715 207.129 904.991 206.336 905H205.37C204.567 905 203.956 904.725 203.536 904.174C203.135 904.725 202.523 905 201.702 905H200.316ZM215.095 905V903.866H215.837C216.808 903.866 217.293 903.357 217.293 902.34V896.614L218.511 895.97V902.354C218.511 903.185 218.264 903.843 217.769 904.328C217.303 904.776 216.691 905 215.935 905H215.095ZM221.027 905V896.614L222.231 895.97V905H221.027Z" fill="#646464"/>
<g clip-path="url(#clip6_461_20312)">
<rect width="56" height="32" transform="translate(260.4 857)" fill="#F1E00C"/>
<path fill-rule="evenodd" clip-rule="evenodd" d="M288.358 864C287.854 864 287.389 864.125 286.882 864.335C286.391 864.538 285.821 864.837 285.112 865.21L283.389 866.114C282.518 866.571 281.822 866.937 281.283 867.296C280.726 867.668 280.296 868.06 279.984 868.591C279.672 869.12 279.532 869.693 279.464 870.376C279.399 871.038 279.399 871.852 279.399 872.877V873.039C279.399 874.064 279.399 874.878 279.464 875.541C279.532 876.224 279.673 876.797 279.984 877.326C280.296 877.857 280.725 878.248 281.284 878.621C281.821 878.98 282.518 879.346 283.389 879.802L285.112 880.707C285.821 881.079 286.391 881.378 286.882 881.582C287.39 881.792 287.854 881.917 288.358 881.917C288.862 881.917 289.326 881.792 289.834 881.582C290.324 881.378 290.894 881.079 291.604 880.707L293.327 879.803C294.198 879.346 294.894 878.98 295.432 878.621C295.99 878.248 296.419 877.857 296.732 877.326C297.044 876.797 297.184 876.223 297.251 875.541C297.316 874.878 297.316 874.064 297.316 873.04V872.877C297.316 871.852 297.316 871.038 297.251 870.376C297.184 869.693 297.043 869.12 296.732 868.591C296.419 868.06 295.99 867.668 295.432 867.296C294.894 866.937 294.198 866.571 293.327 866.114L291.604 865.21C290.894 864.837 290.324 864.538 289.834 864.335C289.325 864.125 288.862 864 288.358 864ZM285.666 866.33C286.408 865.941 286.928 865.669 287.359 865.491C287.779 865.317 288.075 865.25 288.358 865.25C288.641 865.25 288.936 865.317 289.356 865.491C289.788 865.669 290.307 865.941 291.049 866.33L292.715 867.205C293.624 867.681 294.261 868.017 294.739 868.335C294.974 868.492 295.158 868.638 295.308 868.785L292.532 870.172L285.449 866.444L285.666 866.33ZM284.145 867.128L284 867.205C283.092 867.681 282.454 868.017 281.978 868.335C281.775 868.467 281.584 868.618 281.409 868.785L288.358 872.26L291.155 870.86L284.317 867.262C284.253 867.227 284.195 867.182 284.145 867.128ZM280.806 869.881C280.764 870.059 280.732 870.262 280.709 870.497C280.65 871.092 280.649 871.845 280.649 872.909V873.007C280.649 874.072 280.649 874.824 280.709 875.418C280.766 875.999 280.875 876.375 281.061 876.692C281.246 877.006 281.514 877.272 281.978 877.582C282.454 877.9 283.092 878.236 284 878.712L285.667 879.587C286.409 879.976 286.928 880.247 287.359 880.426C287.495 880.482 287.619 880.528 287.733 880.563V873.344L280.806 869.881ZM288.983 880.562C289.096 880.528 289.221 880.482 289.356 880.426C289.788 880.247 290.307 879.976 291.049 879.587L292.715 878.712C293.624 878.235 294.261 877.9 294.739 877.582C295.202 877.272 295.469 877.006 295.655 876.692C295.841 876.375 295.949 876 296.007 875.418C296.065 874.824 296.066 874.072 296.066 873.007V872.91C296.066 871.845 296.066 871.093 296.007 870.498C295.987 870.291 295.955 870.085 295.909 869.882L293.149 871.261V873.792C293.149 873.957 293.084 874.116 292.966 874.234C292.849 874.351 292.69 874.417 292.524 874.417C292.359 874.417 292.2 874.351 292.082 874.234C291.965 874.116 291.899 873.957 291.899 873.792V871.887L288.983 873.345V880.562Z" fill="#646464"/>
</g>
<path d="M278.112 905C278.019 905.821 277.571 906.479 276.768 906.974C276.022 907.431 275.07 907.66 273.912 907.66C272.438 907.66 271.327 907.231 270.58 906.372C270.03 905.737 269.754 904.953 269.754 904.02C269.754 903.236 269.95 902.564 270.342 902.004L271.504 901.752C271.084 902.415 270.874 903.129 270.874 903.894C270.874 904.725 271.145 905.378 271.686 905.854C272.218 906.33 272.96 906.568 273.912 906.568C274.715 906.568 275.378 906.428 275.9 906.148C276.423 905.868 276.74 905.485 276.852 905H275.452L276.04 903.866H278.154V905H278.112ZM272.974 910.138C272.517 910.138 272.288 909.905 272.288 909.438C272.288 908.981 272.517 908.752 272.974 908.752C273.422 908.752 273.646 908.981 273.646 909.438C273.646 909.905 273.422 910.138 272.974 910.138ZM274.752 910.138C274.295 910.138 274.066 909.905 274.066 909.438C274.066 908.981 274.295 908.752 274.752 908.752C275.2 908.752 275.424 908.981 275.424 909.438C275.424 909.905 275.2 910.138 274.752 910.138ZM278.497 897.23C278.039 897.23 277.811 896.997 277.811 896.53C277.811 896.073 278.039 895.844 278.497 895.844C278.945 895.844 279.169 896.073 279.169 896.53C279.169 896.997 278.945 897.23 278.497 897.23ZM280.275 897.23C279.817 897.23 279.589 896.997 279.589 896.53C279.589 896.073 279.817 895.844 280.275 895.844C280.723 895.844 280.947 896.073 280.947 896.53C280.947 896.997 280.723 897.23 280.275 897.23ZM277.419 905V903.866H278.343C279.257 903.866 279.715 903.399 279.715 902.466V899.568L280.919 898.924V902.508C280.919 903.301 280.681 903.927 280.205 904.384C279.766 904.795 279.192 905 278.483 905H277.419ZM285.869 905C285.057 905 284.431 904.739 283.993 904.216C283.619 903.768 283.433 903.199 283.433 902.508V896.614L284.637 895.97V902.466C284.637 903.399 285.094 903.866 286.009 903.866H286.933V905H285.869ZM290.959 903.866H291.883V905H290.819C290.044 905 289.433 904.753 288.985 904.258C288.537 904.753 287.925 905 287.151 905H286.087V903.866H287.011C287.925 903.866 288.383 903.399 288.383 902.466V899.568L289.587 898.924V902.466C289.587 903.399 290.044 903.866 290.959 903.866ZM288.901 906.4C289.349 906.4 289.573 906.629 289.573 907.086C289.573 907.553 289.349 907.786 288.901 907.786C288.443 907.786 288.215 907.553 288.215 907.086C288.215 906.629 288.443 906.4 288.901 906.4ZM295.81 903.866H296.734V905H295.67C294.867 905 294.247 904.743 293.808 904.23C293.341 904.743 292.697 905 291.876 905H291.036V903.866H291.778C292.749 903.866 293.234 903.357 293.234 902.34V896.614L294.452 895.97V902.354C294.452 902.895 294.555 903.283 294.76 903.516C294.975 903.749 295.325 903.866 295.81 903.866ZM299.739 901.094C300.803 899.526 302.124 898.742 303.701 898.742C304.756 898.742 305.601 899.111 306.235 899.848C306.777 900.473 307.047 901.243 307.047 902.158V902.606C307.047 903.371 306.861 903.964 306.487 904.384C306.114 904.795 305.582 905 304.891 905H295.889V903.866H298.493L298.535 903.712V896.614L299.739 895.97V901.094ZM305.829 902.55V902.158C305.829 901.43 305.605 900.851 305.157 900.422C304.775 900.049 304.294 899.862 303.715 899.862C302.754 899.862 301.886 900.296 301.111 901.164C300.533 901.817 300.075 902.634 299.739 903.614V903.866H304.793C305.195 903.866 305.465 903.773 305.605 903.586C305.755 903.399 305.829 903.054 305.829 902.55Z" fill="#646464"/>
<g clip-path="url(#clip7_461_20312)">
<path fill-rule="evenodd" clip-rule="evenodd" d="M369.493 865.612C369.948 865.217 370.53 865 371.132 865C371.734 865 372.317 865.217 372.771 865.612L378.605 870.676C378.875 870.91 379.092 871.201 379.24 871.526C379.389 871.852 379.466 872.206 379.465 872.564V879.043C379.465 879.706 379.202 880.342 378.733 880.811C378.264 881.28 377.629 881.543 376.965 881.543H374.049C373.717 881.543 373.399 881.412 373.165 881.177C372.931 880.943 372.799 880.625 372.799 880.293V874.616H369.465V880.293C369.465 880.625 369.334 880.943 369.099 881.177C368.865 881.412 368.547 881.543 368.215 881.543H365.299C364.636 881.543 364 881.28 363.531 880.811C363.062 880.342 362.799 879.706 362.799 879.043V872.564C362.799 872.206 362.876 871.852 363.024 871.526C363.173 871.201 363.389 870.91 363.66 870.676L369.493 865.612ZM371.679 866.871C371.527 866.739 371.333 866.666 371.132 866.666C370.931 866.666 370.737 866.739 370.585 866.871L364.752 871.935C364.662 872.013 364.59 872.11 364.54 872.218C364.491 872.327 364.465 872.445 364.465 872.564V879.043C364.465 879.264 364.553 879.476 364.71 879.632C364.866 879.789 365.078 879.877 365.299 879.877H367.799V874.616C367.799 874.174 367.974 873.75 368.287 873.437C368.6 873.125 369.023 872.949 369.465 872.949H372.799C373.241 872.949 373.665 873.125 373.977 873.437C374.29 873.75 374.465 874.174 374.465 874.616V879.877H376.965C377.187 879.877 377.398 879.789 377.555 879.632C377.711 879.476 377.799 879.264 377.799 879.043V872.564C377.799 872.445 377.773 872.327 377.723 872.218C377.674 872.11 377.602 872.013 377.511 871.935L371.679 866.871Z" fill="#646464"/>
</g>
<path d="M348.593 897.09C348.136 897.09 347.907 896.857 347.907 896.39C347.907 895.933 348.136 895.704 348.593 895.704C349.041 895.704 349.265 895.933 349.265 896.39C349.265 896.857 349.041 897.09 348.593 897.09ZM350.371 897.09C349.914 897.09 349.685 896.857 349.685 896.39C349.685 895.933 349.914 895.704 350.371 895.704C350.819 895.704 351.043 895.933 351.043 896.39C351.043 896.857 350.819 897.09 350.371 897.09ZM352.975 903.866H353.899V905H352.835C351.874 905 351.183 904.645 350.763 903.936C350.315 904.365 349.76 904.58 349.097 904.58C348.276 904.58 347.622 904.272 347.137 903.656C346.736 903.133 346.535 902.494 346.535 901.738C346.535 900.833 346.81 900.105 347.361 899.554C347.828 899.078 348.397 898.84 349.069 898.84C349.582 898.84 350.026 898.971 350.399 899.232V898.63L351.617 897.986V902.466C351.617 903.399 352.07 903.866 352.975 903.866ZM350.399 900.534C350.054 900.151 349.629 899.96 349.125 899.96C348.714 899.96 348.378 900.128 348.117 900.464C347.856 900.791 347.725 901.22 347.725 901.752C347.725 902.293 347.856 902.727 348.117 903.054C348.378 903.381 348.719 903.544 349.139 903.544C349.662 903.544 350.091 903.329 350.427 902.9C350.408 902.732 350.399 902.601 350.399 902.508V900.534ZM357.936 903.866H358.86V905H357.796C357.022 905 356.41 904.753 355.962 904.258C355.514 904.753 354.903 905 354.128 905H353.064V903.866H353.988C354.903 903.866 355.36 903.399 355.36 902.466V899.568L356.564 898.924V902.466C356.564 903.399 357.022 903.866 357.936 903.866ZM354.59 906.4C355.038 906.4 355.262 906.633 355.262 907.1C355.262 907.557 355.038 907.786 354.59 907.786C354.133 907.786 353.904 907.557 353.904 907.1C353.904 906.633 354.133 906.4 354.59 906.4ZM356.368 906.4C356.816 906.4 357.04 906.633 357.04 907.1C357.04 907.557 356.816 907.786 356.368 907.786C355.911 907.786 355.682 907.557 355.682 907.1C355.682 906.633 355.911 906.4 356.368 906.4ZM358.013 905V903.866H359.273C360.179 903.866 360.631 903.399 360.631 902.466V900.506L361.835 899.862V902.466C361.835 903.399 362.293 903.866 363.207 903.866H363.851C364.766 903.866 365.223 903.399 365.223 902.466V900.03L366.427 899.4V902.466C366.427 903.399 366.88 903.866 367.785 903.866H368.443C369.358 903.866 369.815 903.399 369.815 902.466V899.568L371.019 898.924V902.34C371.019 903.357 371.505 903.866 372.475 903.866H373.637V905H372.377C371.537 905 370.898 904.715 370.459 904.146C370.067 904.706 369.456 904.991 368.625 905H367.659C366.838 905 366.227 904.725 365.825 904.174C365.424 904.715 364.827 904.991 364.033 905H363.067C362.265 905 361.653 904.725 361.233 904.174C360.832 904.725 360.221 905 359.399 905H358.013ZM377.665 903.866H378.589V905H377.525C376.75 905 376.139 904.753 375.691 904.258C375.243 904.753 374.631 905 373.857 905H372.793V903.866H373.717C374.631 903.866 375.089 903.399 375.089 902.466V899.568L376.293 898.924V902.466C376.293 903.399 376.75 903.866 377.665 903.866ZM374.319 906.4C374.767 906.4 374.991 906.633 374.991 907.1C374.991 907.557 374.767 907.786 374.319 907.786C373.861 907.786 373.633 907.557 373.633 907.1C373.633 906.633 373.861 906.4 374.319 906.4ZM376.097 906.4C376.545 906.4 376.769 906.633 376.769 907.1C376.769 907.557 376.545 907.786 376.097 907.786C375.639 907.786 375.411 907.557 375.411 907.1C375.411 906.633 375.639 906.4 376.097 906.4ZM378.918 897.132L379.24 896.53H379.618C379.525 896.362 379.478 896.185 379.478 895.998C379.478 895.727 379.581 895.494 379.786 895.298C379.991 895.093 380.234 894.99 380.514 894.99C380.747 894.99 380.971 895.065 381.186 895.214V895.83C380.981 895.671 380.785 895.592 380.598 895.592C380.253 895.592 380.08 895.746 380.08 896.054C380.08 896.213 380.145 896.371 380.276 896.53H381.55L381.228 897.132H378.918ZM377.742 905V903.866H378.666C379.581 903.866 380.038 903.399 380.038 902.466V899.568L381.242 898.924V902.508C381.242 903.301 381.004 903.927 380.528 904.384C380.089 904.795 379.515 905 378.806 905H377.742ZM387.008 903.866H387.932V905H386.868C386.392 905 385.981 904.907 385.636 904.72C385.552 905.644 385.23 906.381 384.67 906.932C384.157 907.436 383.513 907.688 382.738 907.688C382.178 907.688 381.632 907.548 381.1 907.268V906.218C381.576 906.479 382.052 906.61 382.528 906.61C383.125 906.61 383.592 906.409 383.928 906.008C384.264 905.607 384.432 905.051 384.432 904.342V899.568L385.636 898.924V898.938L385.65 898.924V902.746C385.734 903.493 386.187 903.866 387.008 903.866ZM387.093 905V903.866H387.835C388.806 903.866 389.291 903.357 389.291 902.34V896.614L390.509 895.97V902.354C390.509 903.185 390.262 903.843 389.767 904.328C389.301 904.776 388.689 905 387.933 905H387.093ZM393.025 905V896.614L394.229 895.97V905H393.025Z" fill="#646464"/>
</g>
<rect width="412" height="146" fill="url(#paint1_linear_461_20312)"/>
<g clip-path="url(#clip8_461_20312)">
<rect width="412" height="146" fill="url(#paint2_linear_461_20312)"/>
<g clip-path="url(#clip9_461_20312)">
<mask id="mask0_461_20312" style="mask-type:alpha" maskUnits="userSpaceOnUse" x="0" y="0" width="412" height="343">
<rect width="412" height="342.784" fill="#133BB7"/>
</mask>
<g mask="url(#mask0_461_20312)">
<rect x="-63.6836" y="-10.2634" width="577.217" height="204.645" transform="rotate(-13.6691 -63.6836 -10.2634)" fill="url(#paint3_linear_461_20312)"/>
<rect x="70.748" y="-222.374" width="693.914" height="279.56" transform="rotate(28.2388 70.748 -222.374)" fill="url(#paint4_linear_461_20312)" fill-opacity="0.39"/>
</g>
</g>
</g>
<path d="M26.0781 25.7012H26.2148C26.8438 25.7012 27.3678 25.6191 27.7871 25.4551C28.2109 25.2865 28.5482 25.054 28.7988 24.7578C29.0495 24.4616 29.2295 24.113 29.3389 23.7119C29.4482 23.3109 29.5029 22.8757 29.5029 22.4062V20.6904C29.5029 20.2848 29.4596 19.9294 29.373 19.624C29.291 19.3141 29.1725 19.0566 29.0176 18.8516C28.8672 18.6419 28.6917 18.4847 28.4912 18.3799C28.2952 18.2751 28.0833 18.2227 27.8555 18.2227C27.6048 18.2227 27.3792 18.2796 27.1787 18.3936C26.9827 18.5029 26.8164 18.6556 26.6797 18.8516C26.5475 19.043 26.445 19.2686 26.3721 19.5283C26.3037 19.7835 26.2695 20.057 26.2695 20.3486C26.2695 20.6221 26.3014 20.8864 26.3652 21.1416C26.4336 21.3923 26.5339 21.6156 26.666 21.8115C26.7982 22.0075 26.9645 22.1624 27.165 22.2764C27.3656 22.3903 27.6003 22.4473 27.8691 22.4473C28.1243 22.4473 28.359 22.3994 28.5732 22.3037C28.7874 22.2035 28.9743 22.069 29.1338 21.9004C29.2933 21.7318 29.4186 21.5426 29.5098 21.333C29.6009 21.1234 29.651 20.9092 29.6602 20.6904L30.2891 20.8818C30.2891 21.2282 30.2161 21.57 30.0703 21.9072C29.929 22.2399 29.7308 22.5452 29.4756 22.8232C29.2249 23.0967 28.931 23.3154 28.5938 23.4795C28.2611 23.6436 27.8988 23.7256 27.5068 23.7256C27.0329 23.7256 26.6136 23.6367 26.249 23.459C25.889 23.2767 25.5882 23.0306 25.3467 22.7207C25.1097 22.4108 24.932 22.0553 24.8135 21.6543C24.695 21.2533 24.6357 20.8317 24.6357 20.3896C24.6357 19.9111 24.7087 19.4622 24.8545 19.043C25.0003 18.6237 25.2122 18.2546 25.4902 17.9355C25.7682 17.612 26.1055 17.3613 26.502 17.1836C26.903 17.0013 27.3564 16.9102 27.8623 16.9102C28.4001 16.9102 28.8717 17.015 29.2773 17.2246C29.6829 17.4342 30.0247 17.7236 30.3027 18.0928C30.5807 18.4619 30.7904 18.8903 30.9316 19.3779C31.0729 19.8656 31.1436 20.3896 31.1436 20.9502V21.5312C31.1436 22.1191 31.0911 22.6865 30.9863 23.2334C30.8815 23.7757 30.7106 24.2793 30.4736 24.7441C30.2412 25.2044 29.9336 25.61 29.5508 25.9609C29.1725 26.3073 28.7077 26.5785 28.1562 26.7744C27.6094 26.9658 26.9668 27.0615 26.2285 27.0615H26.0781V25.7012ZM33.1019 26.1797C33.1019 25.9245 33.1885 25.7103 33.3617 25.5371C33.5349 25.3594 33.7696 25.2705 34.0658 25.2705C34.3666 25.2705 34.6013 25.3594 34.7699 25.5371C34.9431 25.7103 35.0296 25.9245 35.0296 26.1797C35.0296 26.4349 34.9431 26.6491 34.7699 26.8223C34.6013 26.9954 34.3666 27.082 34.0658 27.082C33.7696 27.082 33.5349 26.9954 33.3617 26.8223C33.1885 26.6491 33.1019 26.4349 33.1019 26.1797ZM33.1088 20.3555C33.1088 20.1003 33.1953 19.8861 33.3685 19.7129C33.5417 19.5352 33.7764 19.4463 34.0726 19.4463C34.3734 19.4463 34.6081 19.5352 34.7767 19.7129C34.9499 19.8861 35.0365 20.1003 35.0365 20.3555C35.0365 20.6107 34.9499 20.8249 34.7767 20.998C34.6081 21.1712 34.3734 21.2578 34.0726 21.2578C33.7764 21.2578 33.5417 21.1712 33.3685 20.998C33.1953 20.8249 33.1088 20.6107 33.1088 20.3555ZM38.7517 21.2783H39.7361C40.1189 21.2783 40.4356 21.2122 40.6862 21.0801C40.9415 20.9479 41.1306 20.7656 41.2536 20.5332C41.3767 20.3008 41.4382 20.0342 41.4382 19.7334C41.4382 19.4189 41.3812 19.1501 41.2673 18.9268C41.1579 18.6989 40.9893 18.5234 40.7614 18.4004C40.5381 18.2773 40.2533 18.2158 39.907 18.2158C39.6153 18.2158 39.351 18.2751 39.114 18.3936C38.8816 18.5075 38.697 18.6715 38.5603 18.8857C38.4236 19.0954 38.3552 19.346 38.3552 19.6377H36.7009C36.7009 19.109 36.8399 18.6396 37.1179 18.2295C37.3959 17.8193 37.7741 17.498 38.2527 17.2656C38.7357 17.0286 39.278 16.9102 39.8796 16.9102C40.5222 16.9102 41.0827 17.0173 41.5612 17.2314C42.0443 17.4411 42.4203 17.7555 42.6892 18.1748C42.9581 18.5941 43.0925 19.1136 43.0925 19.7334C43.0925 20.016 43.0264 20.3031 42.8943 20.5947C42.7621 20.8864 42.5661 21.153 42.3064 21.3945C42.0466 21.6315 41.723 21.8252 41.3357 21.9756C40.9483 22.1214 40.4994 22.1943 39.989 22.1943H38.7517V21.2783ZM38.7517 22.5635V21.6611H39.989C40.5723 21.6611 41.0691 21.7295 41.4792 21.8662C41.8939 22.0029 42.2312 22.1921 42.4909 22.4336C42.7507 22.6706 42.9398 22.9417 43.0583 23.2471C43.1814 23.5524 43.2429 23.876 43.2429 24.2178C43.2429 24.6826 43.1586 25.0973 42.99 25.4619C42.8259 25.8219 42.5912 26.1273 42.2859 26.3779C41.9805 26.6286 41.6228 26.8177 41.2126 26.9453C40.807 27.0729 40.365 27.1367 39.8864 27.1367C39.4581 27.1367 39.0479 27.0775 38.656 26.959C38.264 26.8405 37.9131 26.665 37.6032 26.4326C37.2933 26.1956 37.0473 25.9017 36.865 25.5508C36.6872 25.1953 36.5984 24.7852 36.5984 24.3203H38.2458C38.2458 24.6165 38.3142 24.8786 38.4509 25.1064C38.5922 25.3298 38.7881 25.5052 39.0388 25.6328C39.294 25.7604 39.5857 25.8242 39.9138 25.8242C40.2601 25.8242 40.5586 25.7627 40.8093 25.6396C41.0599 25.5166 41.2514 25.3343 41.3835 25.0928C41.5202 24.8512 41.5886 24.5596 41.5886 24.2178C41.5886 23.8304 41.5134 23.516 41.363 23.2744C41.2126 23.0329 40.9984 22.8551 40.7204 22.7412C40.4424 22.6227 40.1143 22.5635 39.7361 22.5635H38.7517ZM51.5382 21.1895V22.8164C51.5382 23.5957 51.4607 24.2611 51.3057 24.8125C51.1554 25.3594 50.9366 25.8037 50.6495 26.1455C50.3624 26.4873 50.0183 26.738 49.6173 26.8975C49.2208 27.057 48.7764 27.1367 48.2843 27.1367C47.8923 27.1367 47.5277 27.0866 47.1905 26.9863C46.8578 26.8861 46.557 26.7288 46.2882 26.5146C46.0193 26.3005 45.7891 26.0247 45.5977 25.6875C45.4109 25.3457 45.2651 24.9378 45.1602 24.4639C45.06 23.9899 45.0098 23.4408 45.0098 22.8164V21.1895C45.0098 20.4056 45.0873 19.7448 45.2423 19.207C45.3972 18.6647 45.6182 18.2249 45.9054 17.8877C46.1925 17.5459 46.5343 17.2975 46.9307 17.1426C47.3318 16.9876 47.7784 16.9102 48.2706 16.9102C48.6671 16.9102 49.0317 16.9603 49.3643 17.0605C49.7016 17.1562 50.0024 17.3089 50.2667 17.5186C50.5356 17.7282 50.7634 18.0016 50.9503 18.3389C51.1417 18.6715 51.2875 19.0749 51.3878 19.5488C51.488 20.0182 51.5382 20.5651 51.5382 21.1895ZM49.8907 23.0488V20.9434C49.8907 20.5469 49.8679 20.1982 49.8223 19.8975C49.7768 19.5921 49.7084 19.3346 49.6173 19.125C49.5307 18.9108 49.4213 18.7376 49.2891 18.6055C49.157 18.4688 49.0066 18.3708 48.838 18.3115C48.6693 18.2477 48.4802 18.2158 48.2706 18.2158C48.0154 18.2158 47.7875 18.266 47.587 18.3662C47.3865 18.4619 47.2179 18.6169 47.0811 18.8311C46.9444 19.0452 46.8396 19.3278 46.7667 19.6787C46.6983 20.0251 46.6641 20.4466 46.6641 20.9434V23.0488C46.6641 23.4499 46.6869 23.8031 46.7325 24.1084C46.7781 24.4137 46.8464 24.6758 46.9376 24.8945C47.0287 25.1087 47.1381 25.2865 47.2657 25.4277C47.3979 25.5645 47.5483 25.6647 47.7169 25.7285C47.8901 25.7923 48.0792 25.8242 48.2843 25.8242C48.544 25.8242 48.7742 25.7741 48.9747 25.6738C49.1752 25.5736 49.3438 25.4141 49.4805 25.1953C49.6173 24.972 49.7198 24.6826 49.7882 24.3271C49.8565 23.9717 49.8907 23.5456 49.8907 23.0488Z" fill="white"/>
<path opacity="0.1" d="M350.5 16.4166C347.1 16.4166 344.125 17.9041 342 20.2416L350.5 30.5833L359 20.2416C356.875 17.9041 353.9 16.4166 350.5 16.4166Z" fill="white"/>
<path d="M373.584 16.4166L359.417 30.5833H373.584V16.4166Z" fill="white"/>
<path opacity="0.3" d="M385.5 16H382.5V17.5H381C380.448 17.5 380 18.0037 380 18.625V29.875C380 30.4963 380.448 31 381 31H387C387.552 31 388 30.4963 388 29.875V18.625C388 18.0037 387.552 17.5 387 17.5H385.5V16Z" fill="white"/>
<path d="M380 24C380 24.5833 380 29.3667 380 29.95C380 30.5299 380.448 31 381 31H387C387.552 31 388 30.5299 388 29.95C388 29.3667 388 24.5833 388 24H380Z" fill="white"/>
<g filter="url(#filter1_ddd_461_20312)">
<path d="M59.3361 91.7215C59.7161 91.7215 60.0448 91.5811 60.3267 91.3014C60.6076 91.0206 60.7468 90.6829 60.7468 90.2862C60.7468 89.8895 60.6076 89.5764 60.3267 89.2956C60.0459 89.0148 59.7161 88.8755 59.3361 88.8755C58.9561 88.8755 58.6018 89.0159 58.321 89.2956C58.0402 89.5764 57.9009 89.9062 57.9009 90.2862C57.9009 90.6662 58.0402 91.0206 58.321 91.3014C58.6007 91.5811 58.9394 91.7215 59.3361 91.7215Z" fill="#242424"/>
<path d="M59.3361 95.6327C59.7161 95.6327 60.0448 95.4923 60.3267 95.2115C60.6076 94.9307 60.7468 94.5931 60.7468 94.1964C60.7468 93.7997 60.6076 93.4865 60.3267 93.2057C60.0459 92.9249 59.7161 92.7845 59.3361 92.7845C58.9561 92.7845 58.6018 92.9249 58.321 93.2057C58.0402 93.4865 57.9009 93.8164 57.9009 94.1964C57.9009 94.5763 58.0402 94.9307 58.321 95.2115C58.6007 95.4923 58.9394 95.6327 59.3361 95.6327Z" fill="#242424"/>
<path d="M47.131 97.4613C47.1076 97.3911 47.0686 97.312 47.0207 97.2496L42.6983 91.1509C42.5178 90.8757 42.4309 90.5693 42.4309 90.2394C42.4309 89.9408 42.5178 89.65 42.6983 89.3747L48.827 81.4698C49.2672 80.8569 48.827 80 48.0726 80C47.7662 80 47.4832 80.1493 47.3104 80.3934L41.1661 88.2816C40.7572 88.8399 40.5454 89.4917 40.5454 90.2383C40.5454 90.9849 40.7572 91.6535 41.1661 92.2184L44.8757 97.4602H30.8866C30.462 97.4602 30.1166 97.1147 30.1166 96.6902V93.2949C30.1166 91.4641 29.4803 89.923 28.1989 88.6582C26.9096 87.369 25.3618 86.7171 23.5466 86.7171C21.7314 86.7171 20.1903 87.369 18.9177 88.6582C17.6363 89.9319 17 91.4797 17 93.2949C17 95.1101 17.6363 96.6512 18.9177 97.9237C20.1914 99.2208 21.7392 99.8649 23.5466 99.8649C25.2125 99.8649 26.6511 99.3144 27.8768 98.2224C28.1052 98.0185 28.3248 97.7978 28.5365 97.5549C28.5599 97.5159 28.5989 97.5081 28.6468 97.5159C28.7014 97.5705 28.7259 97.595 28.7259 97.6106V98.2625C28.7259 98.5611 28.8362 98.8208 29.048 99.0325C29.2597 99.2442 29.5115 99.3467 29.818 99.3467H62.4573C62.9755 99.3467 63.4 98.9222 63.4 98.404C63.4 97.8858 62.9755 97.4613 62.4573 97.4613H47.131ZM27.2004 96.942C26.2254 97.9483 25.0153 98.4508 23.5455 98.4508C22.0757 98.4508 20.889 97.9483 19.8827 96.942C18.8765 95.9124 18.3739 94.6945 18.3739 93.2949C18.3739 91.8953 18.8765 90.6384 19.8827 89.6243C20.8488 88.6582 22.02 88.1545 23.3884 88.1155C24.8581 88.0843 26.3045 88.6816 27.3174 89.7502C28.2523 90.7409 28.7248 91.9198 28.7248 93.2949C28.7248 94.6699 28.2145 95.9202 27.2004 96.942Z" fill="#242424"/>
<g filter="url(#filter2_d_461_20312)">
<g clip-path="url(#clip10_461_20312)">
<rect x="352" y="70" width="40" height="40" rx="20" fill="white"/>
<path fill-rule="evenodd" clip-rule="evenodd" d="M363 86V84H381V86H363ZM363 91H381V89H363V91ZM363 96H381V94H363V96Z" fill="#242424"/>
</g>
</g>
</g>
</g>
<defs>
<filter id="filter0_f_461_20312" x="-152.181" y="427.819" width="716.362" height="716.362" filterUnits="userSpaceOnUse" color-interpolation-filters="sRGB">
<feFlood flood-opacity="0" result="BackgroundImageFix"/>
<feBlend mode="normal" in="SourceGraphic" in2="BackgroundImageFix" result="shape"/>
<feGaussianBlur stdDeviation="107.091" result="effect1_foregroundBlur_461_20312"/>
</filter>
<filter id="filter1_ddd_461_20312" x="-12" y="55" width="436" height="99" filterUnits="userSpaceOnUse" color-interpolation-filters="sRGB">
<feFlood flood-opacity="0" result="BackgroundImageFix"/>
<feColorMatrix in="SourceAlpha" type="matrix" values="0 0 0 0 0 0 0 0 0 0 0 0 0 0 0 0 0 0 127 0" result="hardAlpha"/>
<feOffset dy="2"/>
<feGaussianBlur stdDeviation="2.5"/>
<feComposite in2="hardAlpha" operator="out"/>
<feColorMatrix type="matrix" values="0 0 0 0 0 0 0 0 0 0 0 0 0 0 0 0 0 0 0.02 0"/>
<feBlend mode="normal" in2="BackgroundImageFix" result="effect1_dropShadow_461_20312"/>
<feColorMatrix in="SourceAlpha" type="matrix" values="0 0 0 0 0 0 0 0 0 0 0 0 0 0 0 0 0 0 127 0" result="hardAlpha"/>
<feOffset dy="9"/>
<feGaussianBlur stdDeviation="4.5"/>
<feComposite in2="hardAlpha" operator="out"/>
<feColorMatrix type="matrix" values="0 0 0 0 0 0 0 0 0 0 0 0 0 0 0 0 0 0 0.02 0"/>
<feBlend mode="normal" in2="effect1_dropShadow_461_20312" result="effect2_dropShadow_461_20312"/>
<feColorMatrix in="SourceAlpha" type="matrix" values="0 0 0 0 0 0 0 0 0 0 0 0 0 0 0 0 0 0 127 0" result="hardAlpha"/>
<feOffset dy="20"/>
<feGaussianBlur stdDeviation="6"/>
<feComposite in2="hardAlpha" operator="out"/>
<feColorMatrix type="matrix" values="0 0 0 0 0 0 0 0 0 0 0 0 0 0 0 0 0 0 0.01 0"/>
<feBlend mode="normal" in2="effect2_dropShadow_461_20312" result="effect3_dropShadow_461_20312"/>
<feBlend mode="normal" in="SourceGraphic" in2="effect3_dropShadow_461_20312" result="shape"/>
</filter>
<filter id="filter2_d_461_20312" x="348" y="70" width="48" height="48" filterUnits="userSpaceOnUse" color-interpolation-filters="sRGB">
<feFlood flood-opacity="0" result="BackgroundImageFix"/>
<feColorMatrix in="SourceAlpha" type="matrix" values="0 0 0 0 0 0 0 0 0 0 0 0 0 0 0 0 0 0 127 0" result="hardAlpha"/>
<feOffset dy="4"/>
<feGaussianBlur stdDeviation="2"/>
<feComposite in2="hardAlpha" operator="out"/>
<feColorMatrix type="matrix" values="0 0 0 0 0.141176 0 0 0 0 0.141176 0 0 0 0 0.141176 0 0 0 0.25 0"/>
<feBlend mode="normal" in2="BackgroundImageFix" result="effect1_dropShadow_461_20312"/>
<feBlend mode="normal" in="SourceGraphic" in2="effect1_dropShadow_461_20312" result="shape"/>
</filter>
<linearGradient id="paint0_linear_461_20312" x1="206" y1="642" x2="206" y2="930" gradientUnits="userSpaceOnUse">
<stop stop-color="#F1E00C"/>
<stop offset="1" stop-color="#FAF194"/>
</linearGradient>
<linearGradient id="paint1_linear_461_20312" x1="206" y1="0" x2="206" y2="146" gradientUnits="userSpaceOnUse">
<stop stop-color="#14294E"/>
<stop offset="1" stop-color="#2FBCAF"/>
</linearGradient>
<linearGradient id="paint2_linear_461_20312" x1="206" y1="0" x2="206" y2="146" gradientUnits="userSpaceOnUse">
<stop stop-color="#F1E00C"/>
<stop offset="1" stop-color="#FAF194"/>
</linearGradient>
<linearGradient id="paint3_linear_461_20312" x1="303.125" y1="348.878" x2="96.5947" y2="-264.104" gradientUnits="userSpaceOnUse">
<stop stop-color="white"/>
<stop offset="0.40911" stop-color="white" stop-opacity="0"/>
</linearGradient>
<linearGradient id="paint4_linear_461_20312" x1="511.716" y1="268.238" x2="504.116" y2="-536.827" gradientUnits="userSpaceOnUse">
<stop offset="0.262075" stop-color="white"/>
<stop offset="0.426686" stop-color="white" stop-opacity="0"/>
</linearGradient>
<clipPath id="clip0_461_20312">
<rect width="412" height="917" fill="white"/>
</clipPath>
<clipPath id="clip1_461_20312">
<rect x="143" y="549" width="126" height="56" rx="28" fill="white"/>
</clipPath>
<clipPath id="clip2_461_20312">
<rect width="412" height="64" fill="white" transform="translate(0 853)"/>
</clipPath>
<clipPath id="clip3_461_20312">
<rect x="13.2002" y="857" width="56" height="32" rx="16" fill="white"/>
</clipPath>
<clipPath id="clip4_461_20312">
<rect x="95.6006" y="857" width="56" height="32" rx="16" fill="white"/>
</clipPath>
<clipPath id="clip5_461_20312">
<rect x="178" y="857" width="56" height="32" rx="16" fill="white"/>
</clipPath>
<clipPath id="clip6_461_20312">
<rect x="260.4" y="857" width="56" height="32" rx="16" fill="white"/>
</clipPath>
<clipPath id="clip7_461_20312">
<rect x="342.8" y="857" width="56" height="32" rx="16" fill="white"/>
</clipPath>
<clipPath id="clip8_461_20312">
<rect width="412" height="146" fill="white"/>
</clipPath>
<clipPath id="clip9_461_20312">
<rect width="412" height="266" fill="white"/>
</clipPath>
<clipPath id="clip10_461_20312">
<rect x="352" y="70" width="40" height="40" rx="20" fill="white"/>
</clipPath>
</defs>
</svg>
