<svg width="48" height="24" viewBox="0 0 48 24" fill="none" xmlns="http://www.w3.org/2000/svg">
<path d="M43.6241 13.8012C44.0067 13.8012 44.3376 13.6598 44.6215 13.3782C44.9042 13.0955 45.0444 12.7556 45.0444 12.3562C45.0444 11.9568 44.9042 11.6416 44.6215 11.3588C44.3388 11.0761 44.0067 10.9359 43.6241 10.9359C43.2415 10.9359 42.8848 11.0772 42.6021 11.3588C42.3194 11.6416 42.1791 11.9736 42.1791 12.3562C42.1791 12.7388 42.3194 13.0955 42.6021 13.3782C42.8837 13.6598 43.2247 13.8012 43.6241 13.8012Z" fill="#F1E00B"/>
<path d="M43.6241 17.739C44.0067 17.739 44.3376 17.5977 44.6215 17.315C44.9042 17.0323 45.0444 16.6923 45.0444 16.2929C45.0444 15.8935 44.9042 15.5783 44.6215 15.2956C44.3388 15.0128 44.0067 14.8715 43.6241 14.8715C43.2415 14.8715 42.8848 15.0128 42.6021 15.2956C42.3194 15.5783 42.1791 15.9104 42.1791 16.2929C42.1791 16.6755 42.3194 17.0323 42.6021 17.315C42.8837 17.5977 43.2247 17.739 43.6241 17.739Z" fill="#F1E00B"/>
<path d="M31.336 19.5801C31.3124 19.5094 31.2732 19.4297 31.2249 19.3669L26.8731 13.2268C26.6914 12.9497 26.6039 12.6412 26.6039 12.3091C26.6039 12.0084 26.6914 11.7156 26.8731 11.4385L33.0435 3.47978C33.4867 2.86274 33.0435 2 32.284 2C31.9755 2 31.6905 2.15033 31.5166 2.39603L25.3305 10.3379C24.9188 10.9 24.7056 11.5563 24.7056 12.308C24.7056 13.0596 24.9188 13.7328 25.3305 14.3016L29.0653 19.579H14.981C14.5536 19.579 14.2058 19.2312 14.2058 18.8037V15.3853C14.2058 13.542 13.5652 11.9905 12.275 10.7171C10.977 9.41909 9.41869 8.76278 7.59113 8.76278C5.76356 8.76278 4.21198 9.41909 2.93078 10.7171C1.6406 11.9994 1 13.5577 1 15.3853C1 17.2129 1.6406 18.7645 2.93078 20.0457C4.2131 21.3515 5.77141 22 7.59113 22C9.26836 22 10.7167 21.4458 11.9508 20.3463C12.1808 20.141 12.4018 19.9189 12.615 19.6743C12.6385 19.635 12.6778 19.6272 12.726 19.635C12.781 19.69 12.8057 19.7147 12.8057 19.7304V20.3867C12.8057 20.6874 12.9168 20.9488 13.1299 21.1619C13.3431 21.3751 13.5966 21.4783 13.9051 21.4783H46.7665C47.2882 21.4783 47.7157 21.0509 47.7157 20.5292C47.7157 20.0075 47.2882 19.5801 46.7665 19.5801H31.336ZM11.2698 19.0573C10.2882 20.0703 9.06978 20.5763 7.59 20.5763C6.11023 20.5763 4.91541 20.0703 3.90234 19.0573C2.88927 18.0206 2.3833 16.7944 2.3833 15.3853C2.3833 13.9762 2.88927 12.7107 3.90234 11.6898C4.87502 10.7171 6.05413 10.21 7.43182 10.1708C8.91159 10.1393 10.3678 10.7407 11.3876 11.8166C12.3289 12.8139 12.8046 14.0009 12.8046 15.3853C12.8046 16.7697 12.2907 18.0285 11.2698 19.0573Z" fill="#F1E00B"/>
</svg>
