<?xml version="1.0" encoding="UTF-8"?>
<svg xmlns="http://www.w3.org/2000/svg" xmlns:xlink="http://www.w3.org/1999/xlink" width="134px" height="41px" viewBox="0 0 134 41" version="1.1">
<defs>
<linearGradient id="linear0" gradientUnits="userSpaceOnUse" x1="-23.235001" y1="97.431" x2="-23.235001" y2="61.386002" gradientTransform="matrix(3.931021,0,0,3.930305,188.536187,-342.77691)">
<stop offset="0" style="stop-color:rgb(10.196078%,10.196078%,10.196078%);stop-opacity:0.101961;"/>
<stop offset="0.123" style="stop-color:rgb(12.941176%,12.941176%,12.941176%);stop-opacity:0.152941;"/>
<stop offset="0.308" style="stop-color:rgb(20.784314%,20.784314%,20.784314%);stop-opacity:0.227451;"/>
<stop offset="0.532" style="stop-color:rgb(34.117647%,34.117647%,34.117647%);stop-opacity:0.317647;"/>
<stop offset="0.783" style="stop-color:rgb(52.156863%,52.156863%,52.156863%);stop-opacity:0.419608;"/>
<stop offset="1" style="stop-color:rgb(70.196078%,70.196078%,70.196078%);stop-opacity:0.509804;"/>
</linearGradient>
</defs>
<g id="surface1">
<path style=" stroke:none;fill-rule:nonzero;fill:rgb(100%,100%,100%);fill-opacity:1;" d="M 131.648438 35.414062 C 131.648438 36.414062 131.25 37.371094 130.546875 38.078125 C 129.839844 38.78125 128.878906 39.179688 127.882812 39.175781 L 4.644531 39.175781 C 2.566406 39.179688 0.875 37.496094 0.875 35.414062 L 0.875 5.414062 C 0.875 3.332031 2.5625 1.644531 4.644531 1.644531 L 127.882812 1.644531 C 129.960938 1.644531 131.648438 3.332031 131.648438 5.414062 Z M 131.648438 35.414062 "/>
<path style=" stroke:none;fill-rule:nonzero;fill:rgb(65.098041%,65.098041%,65.098041%);fill-opacity:1;" d="M 127.882812 40.050781 L 4.644531 40.050781 C 2.082031 40.050781 0.00390625 37.976562 0 35.414062 L 0 5.414062 C 0.00390625 2.851562 2.082031 0.773438 4.644531 0.769531 L 127.882812 0.769531 C 130.445312 0.773438 132.523438 2.851562 132.527344 5.414062 L 132.527344 35.414062 C 132.527344 37.972656 130.441406 40.050781 127.882812 40.050781 Z M 127.882812 40.050781 "/>
<path style=" stroke:none;fill-rule:nonzero;fill:rgb(0%,0%,0%);fill-opacity:1;" d="M 131.648438 35.414062 C 131.648438 36.414062 131.25 37.371094 130.546875 38.078125 C 129.839844 38.78125 128.878906 39.179688 127.882812 39.175781 L 4.644531 39.175781 C 2.566406 39.179688 0.875 37.496094 0.875 35.414062 L 0.875 5.414062 C 0.875 3.332031 2.5625 1.644531 4.644531 1.644531 L 127.882812 1.644531 C 129.960938 1.644531 131.648438 3.332031 131.648438 5.414062 Z M 131.648438 35.414062 "/>
<path style=" stroke:none;fill-rule:nonzero;fill:rgb(100%,100%,100%);fill-opacity:1;" d="M 29.59375 20.203125 C 29.5625 17.039062 32.183594 15.5 32.304688 15.425781 C 30.820312 13.261719 28.519531 12.96875 27.710938 12.945312 C 25.777344 12.742188 23.90625 14.101562 22.921875 14.101562 C 21.917969 14.101562 20.402344 12.964844 18.769531 12.996094 C 16.667969 13.027344 14.699219 14.246094 13.621094 16.136719 C 11.394531 19.988281 13.054688 25.652344 15.1875 28.765625 C 16.253906 30.292969 17.5 31.996094 19.132812 31.9375 C 20.730469 31.871094 21.324219 30.917969 23.25 30.917969 C 25.160156 30.917969 25.71875 31.9375 27.382812 31.898438 C 29.097656 31.871094 30.175781 30.367188 31.203125 28.828125 C 32.4375 27.078125 32.933594 25.355469 32.953125 25.269531 C 32.910156 25.253906 29.625 24 29.59375 20.203125 Z M 26.449219 10.894531 C 27.308594 9.820312 27.894531 8.359375 27.730469 6.878906 C 26.488281 6.933594 24.933594 7.738281 24.039062 8.789062 C 23.25 9.710938 22.542969 11.230469 22.722656 12.65625 C 24.121094 12.761719 25.554688 11.953125 26.449219 10.894531 Z M 26.449219 10.894531 "/>
<path style=" stroke:none;fill-rule:nonzero;fill:url(#linear0);" d="M 127.882812 0.769531 L 61.871094 0.769531 L 87.726562 40.050781 L 127.882812 40.050781 C 130.445312 40.050781 132.523438 37.972656 132.527344 35.410156 L 132.527344 5.414062 C 132.523438 2.851562 130.445312 0.773438 127.882812 0.769531 Z M 127.882812 0.769531 "/>
<path style=" stroke:none;fill-rule:nonzero;fill:rgb(100%,100%,100%);fill-opacity:1;" d="M 52.710938 31.71875 L 50.480469 31.71875 L 49.257812 27.878906 L 45.011719 27.878906 L 43.847656 31.71875 L 41.675781 31.71875 L 45.882812 18.644531 L 48.484375 18.644531 Z M 48.890625 26.265625 L 47.785156 22.851562 C 47.667969 22.503906 47.449219 21.683594 47.125 20.390625 L 47.085938 20.390625 C 46.957031 20.945312 46.75 21.769531 46.464844 22.851562 L 45.378906 26.265625 Z M 63.511719 26.886719 C 63.511719 28.492188 63.078125 29.757812 62.207031 30.6875 C 61.425781 31.515625 60.457031 31.929688 59.300781 31.929688 C 58.054688 31.929688 57.15625 31.484375 56.609375 30.59375 L 56.609375 35.539062 L 54.515625 35.539062 L 54.515625 25.390625 C 54.515625 24.382812 54.488281 23.351562 54.4375 22.292969 L 56.28125 22.292969 L 56.398438 23.785156 L 56.4375 23.785156 C 57.132812 22.660156 58.195312 22.097656 59.617188 22.097656 C 60.726562 22.097656 61.65625 22.535156 62.398438 23.414062 C 63.140625 24.296875 63.511719 25.453125 63.511719 26.886719 Z M 61.378906 26.964844 C 61.378906 26.046875 61.171875 25.292969 60.757812 24.695312 C 60.304688 24.074219 59.699219 23.765625 58.9375 23.765625 C 58.417969 23.765625 57.949219 23.9375 57.53125 24.277344 C 57.109375 24.621094 56.835938 25.070312 56.707031 25.628906 C 56.648438 25.835938 56.617188 26.050781 56.609375 26.265625 L 56.609375 27.835938 C 56.609375 28.523438 56.820312 29.101562 57.238281 29.574219 C 57.660156 30.046875 58.207031 30.28125 58.878906 30.28125 C 59.667969 30.28125 60.28125 29.976562 60.71875 29.371094 C 61.160156 28.761719 61.378906 27.960938 61.378906 26.964844 Z M 74.355469 26.886719 C 74.355469 28.492188 73.917969 29.757812 73.046875 30.6875 C 72.265625 31.515625 71.296875 31.929688 70.140625 31.929688 C 68.890625 31.929688 67.996094 31.484375 67.449219 30.59375 L 67.449219 35.539062 L 65.355469 35.539062 L 65.355469 25.390625 C 65.355469 24.382812 65.328125 23.351562 65.277344 22.292969 L 67.121094 22.292969 L 67.238281 23.785156 L 67.277344 23.785156 C 67.972656 22.660156 69.03125 22.097656 70.457031 22.097656 C 71.566406 22.097656 72.496094 22.535156 73.238281 23.414062 C 73.980469 24.296875 74.355469 25.453125 74.355469 26.886719 Z M 72.21875 26.964844 C 72.21875 26.046875 72.011719 25.292969 71.597656 24.695312 C 71.144531 24.074219 70.539062 23.765625 69.777344 23.765625 C 69.261719 23.765625 68.789062 23.9375 68.367188 24.277344 C 67.949219 24.621094 67.675781 25.070312 67.546875 25.628906 C 67.480469 25.886719 67.449219 26.097656 67.449219 26.265625 L 67.449219 27.835938 C 67.449219 28.523438 67.660156 29.101562 68.078125 29.574219 C 68.496094 30.042969 69.042969 30.28125 69.71875 30.28125 C 70.507812 30.28125 71.121094 29.976562 71.558594 29.371094 C 72 28.761719 72.21875 27.960938 72.21875 26.964844 Z M 86.472656 28.050781 C 86.472656 29.164062 86.085938 30.066406 85.3125 30.765625 C 84.460938 31.527344 83.273438 31.910156 81.75 31.910156 C 80.34375 31.910156 79.21875 31.640625 78.367188 31.097656 L 78.851562 29.351562 C 79.769531 29.894531 80.777344 30.167969 81.875 30.167969 C 82.667969 30.167969 83.28125 29.988281 83.71875 29.632812 C 84.15625 29.277344 84.378906 28.800781 84.378906 28.207031 C 84.378906 27.675781 84.195312 27.230469 83.835938 26.871094 C 83.472656 26.507812 82.875 26.171875 82.03125 25.863281 C 79.742188 25.007812 78.597656 23.757812 78.597656 22.117188 C 78.597656 21.042969 79.003906 20.167969 79.808594 19.480469 C 80.617188 18.792969 81.6875 18.453125 83.019531 18.453125 C 84.210938 18.453125 85.199219 18.660156 85.988281 19.070312 L 85.460938 20.78125 C 84.722656 20.378906 83.886719 20.179688 82.949219 20.179688 C 82.210938 20.179688 81.632812 20.359375 81.21875 20.722656 C 80.867188 21.042969 80.691406 21.4375 80.691406 21.90625 C 80.691406 22.421875 80.894531 22.851562 81.292969 23.1875 C 81.640625 23.496094 82.277344 23.832031 83.195312 24.195312 C 84.320312 24.648438 85.144531 25.175781 85.675781 25.785156 C 86.210938 26.390625 86.472656 27.148438 86.472656 28.050781 Z M 93.414062 23.863281 L 91.105469 23.863281 L 91.105469 28.441406 C 91.105469 29.601562 91.515625 30.183594 92.328125 30.183594 C 92.703125 30.183594 93.015625 30.152344 93.257812 30.085938 L 93.316406 31.675781 C 92.90625 31.832031 92.363281 31.910156 91.6875 31.910156 C 90.863281 31.910156 90.214844 31.65625 89.75 31.152344 C 89.285156 30.648438 89.050781 29.800781 89.050781 28.609375 L 89.050781 23.859375 L 87.675781 23.859375 L 87.675781 22.289062 L 89.050781 22.289062 L 89.050781 20.5625 L 91.105469 19.941406 L 91.105469 22.289062 L 93.414062 22.289062 Z M 103.808594 26.925781 C 103.808594 28.375 103.394531 29.566406 102.566406 30.496094 C 101.703125 31.453125 100.550781 31.929688 99.117188 31.929688 C 97.730469 31.929688 96.628906 31.472656 95.808594 30.554688 C 94.988281 29.636719 94.578125 28.480469 94.578125 27.082031 C 94.578125 25.625 95 24.425781 95.847656 23.496094 C 96.695312 22.566406 97.835938 22.101562 99.273438 22.101562 C 100.65625 22.101562 101.765625 22.558594 102.605469 23.476562 C 103.410156 24.367188 103.808594 25.515625 103.808594 26.925781 Z M 101.636719 26.976562 C 101.636719 26.113281 101.453125 25.371094 101.078125 24.75 C 100.640625 24.003906 100.011719 23.628906 99.195312 23.628906 C 98.355469 23.628906 97.714844 24.003906 97.277344 24.75 C 96.902344 25.371094 96.714844 26.125 96.714844 27.015625 C 96.714844 27.878906 96.902344 28.621094 97.277344 29.238281 C 97.726562 29.988281 98.359375 30.363281 99.179688 30.363281 C 99.980469 30.363281 100.605469 29.980469 101.058594 29.21875 C 101.445312 28.585938 101.636719 27.839844 101.636719 26.976562 Z M 110.617188 24.132812 C 110.402344 24.09375 110.179688 24.074219 109.957031 24.074219 C 109.222656 24.074219 108.652344 24.351562 108.25 24.910156 C 107.902344 25.402344 107.730469 26.023438 107.730469 26.773438 L 107.730469 31.71875 L 105.636719 31.71875 L 105.636719 25.257812 C 105.636719 24.269531 105.617188 23.28125 105.574219 22.292969 L 107.398438 22.292969 L 107.476562 24.097656 L 107.53125 24.097656 C 107.753906 23.476562 108.101562 22.976562 108.578125 22.601562 C 109.015625 22.273438 109.546875 22.097656 110.09375 22.097656 C 110.285156 22.097656 110.460938 22.109375 110.617188 22.136719 Z M 119.984375 26.558594 C 119.988281 26.875 119.964844 27.195312 119.90625 27.507812 L 113.625 27.507812 C 113.648438 28.441406 113.953125 29.152344 114.535156 29.644531 C 115.066406 30.082031 115.75 30.300781 116.59375 30.300781 C 117.523438 30.300781 118.371094 30.15625 119.132812 29.855469 L 119.460938 31.308594 C 118.570312 31.699219 117.515625 31.890625 116.300781 31.890625 C 114.839844 31.890625 113.695312 31.460938 112.859375 30.601562 C 112.027344 29.742188 111.609375 28.589844 111.609375 27.140625 C 111.609375 25.722656 111.996094 24.539062 112.773438 23.59375 C 113.585938 22.585938 114.683594 22.082031 116.070312 22.082031 C 117.425781 22.082031 118.457031 22.585938 119.152344 23.59375 C 119.707031 24.390625 119.984375 25.382812 119.984375 26.558594 Z M 117.988281 26.015625 C 118.003906 25.394531 117.863281 24.859375 117.582031 24.40625 C 117.21875 23.820312 116.660156 23.53125 115.914062 23.53125 C 115.230469 23.53125 114.671875 23.816406 114.246094 24.382812 C 113.898438 24.835938 113.691406 25.382812 113.625 26.011719 Z M 117.988281 26.015625 "/>
<path style=" stroke:none;fill-rule:nonzero;fill:rgb(100%,100%,100%);fill-opacity:1;" d="M 44.40625 14.023438 C 43.824219 14.023438 43.320312 13.996094 42.902344 13.945312 L 42.902344 7.625 C 43.488281 7.535156 44.082031 7.492188 44.675781 7.492188 C 47.074219 7.492188 48.179688 8.675781 48.179688 10.601562 C 48.179688 12.824219 46.875 14.023438 44.40625 14.023438 Z M 44.757812 8.304688 C 44.433594 8.304688 44.160156 8.324219 43.929688 8.371094 L 43.929688 13.175781 C 44.054688 13.195312 44.292969 13.203125 44.625 13.203125 C 46.199219 13.203125 47.09375 12.308594 47.09375 10.628906 C 47.09375 9.132812 46.285156 8.304688 44.757812 8.304688 Z M 51.628906 14.070312 C 50.273438 14.070312 49.398438 13.058594 49.398438 11.6875 C 49.398438 10.257812 50.292969 9.238281 51.703125 9.238281 C 53.039062 9.238281 53.933594 10.199219 53.933594 11.613281 C 53.933594 13.058594 53.011719 14.070312 51.628906 14.070312 Z M 51.667969 9.992188 C 50.925781 9.992188 50.449219 10.6875 50.449219 11.660156 C 50.449219 12.613281 50.933594 13.308594 51.65625 13.308594 C 52.382812 13.308594 52.867188 12.5625 52.867188 11.640625 C 52.867188 10.695312 52.390625 9.992188 51.667969 9.992188 Z M 61.652344 9.332031 L 60.203125 13.964844 L 59.261719 13.964844 L 58.660156 11.953125 C 58.511719 11.460938 58.386719 10.964844 58.289062 10.457031 L 58.269531 10.457031 C 58.191406 10.964844 58.050781 11.46875 57.898438 11.953125 L 57.257812 13.964844 L 56.304688 13.964844 L 54.941406 9.332031 L 56 9.332031 L 56.523438 11.535156 C 56.648438 12.058594 56.753906 12.554688 56.839844 13.023438 L 56.859375 13.023438 C 56.933594 12.632812 57.058594 12.144531 57.238281 11.546875 L 57.898438 9.335938 L 58.738281 9.335938 L 59.367188 11.5 C 59.519531 12.023438 59.640625 12.539062 59.738281 13.023438 L 59.765625 13.023438 C 59.832031 12.546875 59.9375 12.042969 60.082031 11.5 L 60.644531 9.335938 Z M 66.988281 13.964844 L 65.957031 13.964844 L 65.957031 11.304688 C 65.957031 10.488281 65.644531 10.078125 65.023438 10.078125 C 64.414062 10.078125 63.996094 10.601562 63.996094 11.210938 L 63.996094 13.964844 L 62.964844 13.964844 L 62.964844 10.65625 C 62.964844 10.25 62.953125 9.808594 62.925781 9.332031 L 63.832031 9.332031 L 63.878906 10.046875 L 63.910156 10.046875 C 64.1875 9.550781 64.746094 9.238281 65.378906 9.238281 C 66.351562 9.238281 66.988281 9.980469 66.988281 11.191406 Z M 69.824219 13.964844 L 68.796875 13.964844 L 68.796875 7.207031 L 69.824219 7.207031 Z M 73.578125 14.070312 C 72.226562 14.070312 71.347656 13.058594 71.347656 11.6875 C 71.347656 10.257812 72.242188 9.238281 73.65625 9.238281 C 74.988281 9.238281 75.886719 10.199219 75.886719 11.613281 C 75.886719 13.058594 74.960938 14.070312 73.578125 14.070312 Z M 73.617188 9.992188 C 72.875 9.992188 72.398438 10.6875 72.398438 11.660156 C 72.398438 12.613281 72.882812 13.308594 73.605469 13.308594 C 74.332031 13.308594 74.816406 12.5625 74.816406 11.640625 C 74.816406 10.695312 74.34375 9.992188 73.617188 9.992188 Z M 79.945312 13.964844 L 79.867188 13.433594 L 79.839844 13.433594 C 79.527344 13.863281 79.066406 14.070312 78.488281 14.070312 C 77.65625 14.070312 77.066406 13.488281 77.066406 12.707031 C 77.066406 11.5625 78.058594 10.972656 79.773438 10.972656 L 79.773438 10.886719 C 79.773438 10.277344 79.453125 9.972656 78.8125 9.972656 C 78.355469 9.972656 77.957031 10.085938 77.601562 10.316406 L 77.394531 9.640625 C 77.820312 9.371094 78.355469 9.238281 78.984375 9.238281 C 80.195312 9.238281 80.804688 9.875 80.804688 11.15625 L 80.804688 12.859375 C 80.804688 13.328125 80.824219 13.691406 80.871094 13.96875 Z M 79.800781 11.660156 C 78.660156 11.660156 78.085938 11.9375 78.085938 12.59375 C 78.085938 13.078125 78.378906 13.316406 78.792969 13.316406 C 79.316406 13.316406 79.800781 12.917969 79.800781 12.375 Z M 85.804688 13.964844 L 85.753906 13.222656 L 85.726562 13.222656 C 85.429688 13.785156 84.933594 14.070312 84.238281 14.070312 C 83.121094 14.070312 82.296875 13.089844 82.296875 11.707031 C 82.296875 10.257812 83.152344 9.238281 84.324219 9.238281 C 84.945312 9.238281 85.382812 9.445312 85.628906 9.867188 L 85.652344 9.867188 L 85.652344 7.207031 L 86.679688 7.207031 L 86.679688 12.71875 C 86.679688 13.164062 86.691406 13.585938 86.71875 13.964844 Z M 85.652344 11.242188 C 85.652344 10.59375 85.222656 10.039062 84.566406 10.039062 C 83.804688 10.039062 83.335938 10.714844 83.335938 11.667969 C 83.335938 12.601562 83.820312 13.242188 84.546875 13.242188 C 85.195312 13.242188 85.652344 12.679688 85.652344 12.011719 Z M 93.214844 14.070312 C 91.863281 14.070312 90.984375 13.058594 90.984375 11.6875 C 90.984375 10.257812 91.878906 9.238281 93.289062 9.238281 C 94.625 9.238281 95.519531 10.199219 95.519531 11.613281 C 95.523438 13.058594 94.597656 14.070312 93.214844 14.070312 Z M 93.253906 9.992188 C 92.511719 9.992188 92.035156 10.6875 92.035156 11.660156 C 92.035156 12.613281 92.519531 13.308594 93.242188 13.308594 C 93.96875 13.308594 94.453125 12.5625 94.453125 11.640625 C 94.453125 10.695312 93.976562 9.992188 93.253906 9.992188 Z M 101.058594 13.964844 L 100.027344 13.964844 L 100.027344 11.304688 C 100.027344 10.488281 99.710938 10.078125 99.09375 10.078125 C 98.484375 10.078125 98.0625 10.601562 98.0625 11.210938 L 98.0625 13.964844 L 97.035156 13.964844 L 97.035156 10.65625 C 97.035156 10.25 97.023438 9.808594 96.996094 9.332031 L 97.902344 9.332031 L 97.949219 10.046875 L 97.976562 10.046875 C 98.253906 9.550781 98.816406 9.238281 99.445312 9.238281 C 100.417969 9.238281 101.058594 9.980469 101.058594 11.191406 Z M 107.984375 10.105469 L 106.851562 10.105469 L 106.851562 12.355469 C 106.851562 12.929688 107.046875 13.214844 107.449219 13.214844 C 107.632812 13.214844 107.785156 13.195312 107.90625 13.164062 L 107.933594 13.949219 C 107.734375 14.023438 107.46875 14.0625 107.136719 14.0625 C 106.324219 14.0625 105.839844 13.613281 105.839844 12.441406 L 105.839844 10.105469 L 105.164062 10.105469 L 105.164062 9.332031 L 105.839844 9.332031 L 105.839844 8.484375 L 106.851562 8.179688 L 106.851562 9.332031 L 107.984375 9.332031 Z M 113.433594 13.964844 L 112.402344 13.964844 L 112.402344 11.324219 C 112.402344 10.496094 112.089844 10.078125 111.46875 10.078125 C 110.9375 10.078125 110.4375 10.441406 110.4375 11.171875 L 110.4375 13.964844 L 109.410156 13.964844 L 109.410156 7.207031 L 110.4375 7.207031 L 110.4375 9.992188 L 110.460938 9.992188 C 110.785156 9.484375 111.253906 9.238281 111.851562 9.238281 C 112.832031 9.238281 113.433594 10 113.433594 11.210938 Z M 119.015625 11.898438 L 115.925781 11.898438 C 115.945312 12.773438 116.527344 13.269531 117.386719 13.269531 C 117.84375 13.269531 118.261719 13.191406 118.632812 13.050781 L 118.792969 13.765625 C 118.355469 13.957031 117.839844 14.050781 117.238281 14.050781 C 115.792969 14.050781 114.933594 13.136719 114.933594 11.714844 C 114.933594 10.296875 115.8125 9.226562 117.125 9.226562 C 118.308594 9.226562 119.050781 10.105469 119.050781 11.429688 C 119.058594 11.585938 119.046875 11.742188 119.015625 11.898438 Z M 118.070312 11.164062 C 118.070312 10.449219 117.710938 9.945312 117.050781 9.945312 C 116.460938 9.945312 115.992188 10.457031 115.925781 11.164062 Z M 118.070312 11.164062 "/>
</g>
</svg>
