<svg width="48" height="24" viewBox="0 0 48 24" fill="none" xmlns="http://www.w3.org/2000/svg">
<path d="M43.3361 13.7215C43.7161 13.7215 44.0448 13.5811 44.3267 13.3014C44.6076 13.0206 44.7468 12.6829 44.7468 12.2862C44.7468 11.8895 44.6076 11.5764 44.3267 11.2956C44.0459 11.0148 43.7161 10.8755 43.3361 10.8755C42.9561 10.8755 42.6018 11.0159 42.321 11.2956C42.0402 11.5764 41.9009 11.9062 41.9009 12.2862C41.9009 12.6662 42.0402 13.0206 42.321 13.3014C42.6007 13.5811 42.9394 13.7215 43.3361 13.7215Z" fill="#242424"/>
<path d="M43.3361 17.6327C43.7161 17.6327 44.0448 17.4923 44.3267 17.2115C44.6076 16.9307 44.7468 16.5931 44.7468 16.1964C44.7468 15.7997 44.6076 15.4865 44.3267 15.2057C44.0459 14.9249 43.7161 14.7845 43.3361 14.7845C42.9561 14.7845 42.6018 14.9249 42.321 15.2057C42.0402 15.4865 41.9009 15.8164 41.9009 16.1964C41.9009 16.5763 42.0402 16.9307 42.321 17.2115C42.6007 17.4923 42.9394 17.6327 43.3361 17.6327Z" fill="#242424"/>
<path d="M31.131 19.4613C31.1076 19.3911 31.0686 19.312 31.0207 19.2496L26.6983 13.1509C26.5178 12.8757 26.4309 12.5693 26.4309 12.2394C26.4309 11.9408 26.5178 11.65 26.6983 11.3747L32.827 3.46978C33.2672 2.85691 32.827 2 32.0726 2C31.7662 2 31.4832 2.14932 31.3104 2.39335L25.1661 10.2816C24.7572 10.8399 24.5454 11.4917 24.5454 12.2383C24.5454 12.9849 24.7572 13.6535 25.1661 14.2184L28.8757 19.4602H14.8866C14.462 19.4602 14.1166 19.1147 14.1166 18.6902V15.2949C14.1166 13.4641 13.4803 11.923 12.1989 10.6582C10.9096 9.36896 9.36181 8.71708 7.54659 8.71708C5.73138 8.71708 4.19028 9.36896 2.91773 10.6582C1.63627 11.9319 1 13.4797 1 15.2949C1 17.1101 1.63627 18.6512 2.91773 19.9237C4.1914 21.2208 5.73918 21.8649 7.54659 21.8649C9.21249 21.8649 10.6511 21.3144 11.8768 20.2224C12.1052 20.0185 12.3248 19.7978 12.5365 19.5549C12.5599 19.5159 12.5989 19.5081 12.6468 19.5159C12.7014 19.5705 12.7259 19.595 12.7259 19.6106V20.2625C12.7259 20.5611 12.8362 20.8208 13.048 21.0325C13.2597 21.2442 13.5115 21.3467 13.818 21.3467H46.4573C46.9755 21.3467 47.4 20.9222 47.4 20.404C47.4 19.8858 46.9755 19.4613 46.4573 19.4613H31.131ZM11.2004 18.942C10.2254 19.9483 9.01526 20.4508 7.54548 20.4508C6.0757 20.4508 4.88895 19.9483 3.88273 18.942C2.8765 17.9124 2.37395 16.6945 2.37395 15.2949C2.37395 13.8953 2.8765 12.6384 3.88273 11.6243C4.84884 10.6582 6.01998 10.1545 7.38836 10.1155C8.85814 10.0843 10.3045 10.6816 11.3174 11.7502C12.2523 12.7409 12.7248 13.9198 12.7248 15.2949C12.7248 16.6699 12.2145 17.9202 11.2004 18.942Z" fill="#242424"/>
</svg>
